<?xml version="1.0" encoding="UTF-8" standalone="no"?>
<!-- Created with Inkscape (http://www.inkscape.org/) -->

<svg
   width="178.49094"
   height="178.49066"
   viewBox="0 0 178.49094 178.49066"
   version="1.1"
   id="svg5"
   inkscape:version="1.2.2 (b0a8486541, 2022-12-01)"
   inkscape:export-filename="card_red.png"
   inkscape:export-xdpi="96"
   inkscape:export-ydpi="96"
   sodipodi:docname="avatar_4.svg"
   xmlns:inkscape="http://www.inkscape.org/namespaces/inkscape"
   xmlns:sodipodi="http://sodipodi.sourceforge.net/DTD/sodipodi-0.dtd"
   xmlns="http://www.w3.org/2000/svg"
   xmlns:svg="http://www.w3.org/2000/svg">
  <sodipodi:namedview
     id="namedview7"
     pagecolor="#677178"
     bordercolor="#171c20"
     borderopacity="1"
     inkscape:showpageshadow="false"
     inkscape:pageopacity="0"
     inkscape:pagecheckerboard="0"
     inkscape:deskcolor="#25292d"
     inkscape:document-units="px"
     showgrid="false"
     showborder="false"
     borderlayer="true"
     inkscape:zoom="1.6682482"
     inkscape:cx="75.528331"
     inkscape:cy="89.914679"
     inkscape:window-width="1920"
     inkscape:window-height="997"
     inkscape:window-x="0"
     inkscape:window-y="0"
     inkscape:window-maximized="1"
     inkscape:current-layer="layer1" />
  <defs
     id="defs2">
    <clipPath
       clipPathUnits="userSpaceOnUse"
       id="clipPath55488">
      <path
         id="path55490"
         style="fill:#008080;stroke-width:0.133333"
         d="m 3456.5313,314.00653 c -0.741,0 -1.3656,0.62892 -1.3656,1.47932 v 37.74399 c 0,0.8504 0.6246,1.47932 1.3656,1.47932 h 22.0219 c 0.74,0 1.3651,-0.62902 1.3651,-1.47932 v -37.74399 c 0,-0.8503 -0.6251,-1.47931 -1.3651,-1.47932 z" />
    </clipPath>
    <clipPath
       clipPathUnits="userSpaceOnUse"
       id="clipPath287942">
      <path
         id="path287940"
         style="fill:#008080;stroke-width:0.133333"
         d="m 3456.5313,314.00653 c -0.741,0 -1.3656,0.62892 -1.3656,1.47932 v 37.74399 c 0,0.8504 0.6246,1.47932 1.3656,1.47932 h 22.0219 c 0.74,0 1.3651,-0.62902 1.3651,-1.47932 v -37.74399 c 0,-0.8503 -0.6251,-1.47931 -1.3651,-1.47932 z" />
    </clipPath>
    <clipPath
       clipPathUnits="userSpaceOnUse"
       id="clipPath253439">
      <path
         d="m 1640.67,4053.14 c 0,-369.67 -299.67,-669.34 -669.338,-669.34 -369.668,0 -669.344,299.67 -669.344,669.34 0,369.67 299.676,669.34 669.344,669.34 369.668,0 669.338,-299.67 669.338,-669.34 z"
         id="path253437" />
    </clipPath>
    <clipPath
       clipPathUnits="userSpaceOnUse"
       id="clipPath253449">
      <path
         d="m 1640.67,4053.14 c 0,-369.67 -299.67,-669.34 -669.338,-669.34 -369.668,0 -669.344,299.67 -669.344,669.34 0,369.67 299.676,669.34 669.344,669.34 369.668,0 669.338,-299.67 669.338,-669.34 z"
         id="path253447" />
    </clipPath>
    <clipPath
       clipPathUnits="userSpaceOnUse"
       id="clipPath253455">
      <path
         d="m 945.746,4543.82 c -19.168,-1.89 -37.973,-4.86 -56.137,-8.88 -101.777,-22.54 -211.937,-85.77 -269.98,-177.9 -25.551,-40.56 -41.113,-75.67 -53.512,-122.94 -13.297,-50.68 -23.301,-102.27 -30.73,-154.22 -20.762,-145.16 -23.926,-294.07 -20.938,-440.2 0.985,-48.05 2.211,-97.38 19.774,-141.82 29.82,-75.43 96.011,-88.87 164.843,-105.47 103.047,-24.87 212.493,-16.43 317.354,-15.72 100.63,0.68 206.85,-8.31 303.7,24 73.35,24.47 91.17,120.45 101.03,191.44 13.93,100.31 5.17,200.78 -3.28,301.07 -8.84,104.91 -23.54,209.28 -44.03,312.41 -16.32,82.11 -38.04,166.97 -91.8,229.37 -37.6,43.63 -88.71,73.11 -142.62,89.97 -61.92,19.37 -129.42,25.23 -193.674,18.89 z"
         id="path253453" />
    </clipPath>
    <clipPath
       clipPathUnits="userSpaceOnUse"
       id="clipPath253513">
      <path
         d="m 1640.67,4053.14 c 0,-369.67 -299.67,-669.34 -669.338,-669.34 -369.668,0 -669.344,299.67 -669.344,669.34 0,369.67 299.676,669.34 669.344,669.34 369.668,0 669.338,-299.67 669.338,-669.34 z"
         id="path253511" />
    </clipPath>
    <clipPath
       clipPathUnits="userSpaceOnUse"
       id="clipPath254367">
      <path
         d="m 4735.01,2566.69 c 0,-369.67 -299.68,-669.34 -669.35,-669.34 -369.66,0 -669.34,299.67 -669.34,669.34 0,369.67 299.68,669.35 669.34,669.35 369.67,0 669.35,-299.68 669.35,-669.35 z"
         id="path254365" />
    </clipPath>
    <clipPath
       clipPathUnits="userSpaceOnUse"
       id="clipPath254377">
      <path
         d="m 4735.01,2566.69 c 0,-369.67 -299.68,-669.34 -669.35,-669.34 -369.66,0 -669.34,299.67 -669.34,669.34 0,369.67 299.68,669.35 669.34,669.35 369.67,0 669.35,-299.68 669.35,-669.35 z"
         id="path254375" />
    </clipPath>
    <clipPath
       clipPathUnits="userSpaceOnUse"
       id="clipPath254383">
      <path
         d="m 4497.48,2559.78 c -15.2,71.11 -35.51,141.89 -70.62,205.56 -35.13,63.67 -86.19,120.23 -151.46,152.29 14.17,9.75 8.07,34.09 -6.79,42.75 -14.86,8.66 -33.4,6.48 -50.42,4.03 15.13,11.65 15.61,37.7 0.92,49.89 -13.39,11.12 -35.74,7.68 -46.15,-5.89 9.05,14.97 20.1,42.48 3.39,56.13 -17.59,14.37 -56.47,-2.94 -71.77,-13.7 4.88,10.51 4.68,23.19 -2.06,32.9 -6.77,9.73 -19.38,15.02 -31.06,13.06 -13.36,-2.26 -24.16,-13.3 -28.7,-26.06 -4.55,-12.77 -3.59,-26.94 -0.14,-40.04 -9.77,6.15 -18.12,14.26 -27,21.63 -8.89,7.37 -18.65,14.17 -29.85,16.99 -11.19,2.81 -24.13,0.98 -32.36,-7.1 -13.1,-12.86 -4.9,-40.96 4.96,-53.81 -10.42,13.57 -32.76,17.01 -46.15,5.89 -14.69,-12.19 -14.21,-38.24 0.91,-49.89 -17.02,2.45 -35.55,4.63 -50.42,-4.03 -14.86,-8.66 -20.96,-33 -6.79,-42.75 -65.27,-32.06 -116.32,-88.62 -151.45,-152.29 -35.12,-63.67 -55.42,-134.45 -70.62,-205.56 -38.3,-179.1 -45.87,-363.33 -45.67,-546.49 0.04,-42.85 1.61,-89.09 27.76,-123.06 29.7,-38.59 82.27,-50.06 130.58,-56.21 107.96,-13.72 217.06,-13.06 325.68,-11.23 104.45,1.76 208.69,-1.97 312.6,11.23 48.32,6.15 100.88,17.62 130.59,56.21 26.14,33.97 27.71,80.21 27.75,123.06 0.21,183.16 -7.36,367.39 -45.66,546.49 z"
         id="path254381" />
    </clipPath>
    <clipPath
       clipPathUnits="userSpaceOnUse"
       id="clipPath254417">
      <path
         d="m 4735.01,2566.69 c 0,-369.67 -299.68,-669.34 -669.35,-669.34 -369.66,0 -669.34,299.67 -669.34,669.34 0,369.67 299.68,669.35 669.34,669.35 369.67,0 669.35,-299.68 669.35,-669.35 z"
         id="path254415" />
    </clipPath>
    <clipPath
       clipPathUnits="userSpaceOnUse"
       id="clipPath254445">
      <path
         d="m 4735.01,2566.69 c 0,-369.67 -299.68,-669.34 -669.35,-669.34 -369.66,0 -669.34,299.67 -669.34,669.34 0,369.67 299.68,669.35 669.34,669.35 369.67,0 669.35,-299.68 669.35,-669.35 z"
         id="path254443" />
    </clipPath>
    <clipPath
       clipPathUnits="userSpaceOnUse"
       id="clipPath254451">
      <path
         d="m 4182.19,2287.06 c -39.7,-20.75 -84.81,-29.58 -129.57,-31.2 -38.6,-1.41 -77.86,2.49 -113.92,16.34 -36.05,13.85 -68.8,38.26 -88.29,71.6 -5.1,8.71 -9.46,18.2 -17.15,24.75 -7.68,6.54 -20.1,9.02 -27.63,2.3 -4,-3.57 -5.84,-8.94 -7.27,-14.1 -18.02,-64.82 3.1,-137.64 49.03,-186.78 40.54,-43.37 96.06,-66.54 154.15,-72.01 30.95,-2.91 59.52,-6.65 90.73,-2.1 30.16,4.4 59.61,13.82 86.65,27.92 11.34,5.92 22.27,12.67 32.62,20.19 37.02,26.91 66.59,63.72 85.71,105.24 9.56,20.76 16.53,42.72 20.52,65.24 3.8,21.45 8.81,47.59 -6.68,65.97 -7.45,8.85 -25.09,15.22 -35.35,7.13 -9.38,-7.41 -14.11,-27.42 -21.37,-37.94 -18.31,-26.46 -43.76,-47.7 -72.18,-62.55 z"
         id="path254449" />
    </clipPath>
    <clipPath
       clipPathUnits="userSpaceOnUse"
       id="clipPath254479">
      <path
         d="m 4735.01,2566.69 c 0,-369.67 -299.68,-669.34 -669.35,-669.34 -369.66,0 -669.34,299.67 -669.34,669.34 0,369.67 299.68,669.35 669.34,669.35 369.67,0 669.35,-299.68 669.35,-669.35 z"
         id="path254477" />
    </clipPath>
    <clipPath
       clipPathUnits="userSpaceOnUse"
       id="clipPath254235">
      <path
         d="m 3184.91,1101.76 c 0,-369.67 -299.67,-669.338 -669.33,-669.338 -369.67,0 -669.35,299.668 -669.35,669.338 0,369.67 299.68,669.34 669.35,669.34 369.66,0 669.33,-299.67 669.33,-669.34 z"
         id="path254233" />
    </clipPath>
    <clipPath
       clipPathUnits="userSpaceOnUse"
       id="clipPath254245">
      <path
         d="m 3184.91,1101.76 c 0,-369.67 -299.67,-669.338 -669.33,-669.338 -369.67,0 -669.35,299.668 -669.35,669.338 0,369.67 299.68,669.34 669.35,669.34 369.66,0 669.33,-299.67 669.33,-669.34 z"
         id="path254243" />
    </clipPath>
    <clipPath
       clipPathUnits="userSpaceOnUse"
       id="clipPath254251">
      <path
         d="m 2851.56,1552.45 c 13.22,-3.28 25.9,-8.12 37.65,-15.17 52.48,-31.52 46.13,-94.09 50.71,-147.3 6.14,-71.28 12.28,-142.55 18.42,-213.83 16.51,-191.709 33.04,-383.568 37.53,-575.939 1.22,-52.141 0,-109 -32.88,-149.481 -36.62,-45.07 -100.37,-55.289 -158.21,-60.398 -200.32,-17.66 -401.88,-11.953 -602.88,-5.941 -44.26,1.328 -92.47,4.148 -125.65,33.48 -43.31,38.27 -43.32,104.609 -39.96,162.309 14.39,247.062 28.79,494.11 43.18,741.17 3.9,67.01 10.6,140.52 58.25,187.8 45.06,44.72 113.95,52.91 177.36,56.1 108.84,5.49 217.9,3.52 326.74,-0.94 46.3,-1.91 91.98,-5.64 138.71,-5.3 23.73,0.18 48.15,-0.87 71.03,-6.56 z"
         id="path254249" />
    </clipPath>
    <clipPath
       clipPathUnits="userSpaceOnUse"
       id="clipPath254263">
      <path
         d="m 3184.91,1101.76 c 0,-369.67 -299.67,-669.338 -669.33,-669.338 -369.67,0 -669.35,299.668 -669.35,669.338 0,369.67 299.68,669.34 669.35,669.34 369.66,0 669.33,-299.67 669.33,-669.34 z"
         id="path254261" />
    </clipPath>
    <clipPath
       clipPathUnits="userSpaceOnUse"
       id="clipPath254269">
      <path
         d="m 2851.56,1552.45 c 13.22,-3.28 25.9,-8.12 37.65,-15.17 52.48,-31.52 46.13,-94.09 50.71,-147.3 6.14,-71.28 12.28,-142.55 18.42,-213.83 16.51,-191.709 33.04,-383.568 37.53,-575.939 1.22,-52.141 0,-109 -32.88,-149.481 -36.62,-45.07 -100.37,-55.289 -158.21,-60.398 -200.32,-17.66 -401.88,-11.953 -602.88,-5.941 -44.26,1.328 -92.47,4.148 -125.65,33.48 -43.31,38.27 -43.32,104.609 -39.96,162.309 14.39,247.062 28.79,494.11 43.18,741.17 3.9,67.01 10.6,140.52 58.25,187.8 45.06,44.72 113.95,52.91 177.36,56.1 108.84,5.49 217.9,3.52 326.74,-0.94 46.3,-1.91 91.98,-5.64 138.71,-5.3 23.73,0.18 48.15,-0.87 71.03,-6.56 z"
         id="path254267" />
    </clipPath>
    <clipPath
       clipPathUnits="userSpaceOnUse"
       id="clipPath254275">
      <path
         d="m 2585.33,627.809 c 71.25,27 124.54,96.32 132.34,172.101 2.59,25.262 -1.06,54.07 -20.92,69.879 -16.65,13.27 -39.81,13.609 -61.1,13.352 -88.98,-1.09 -177.97,-2.18 -266.97,-3.27 -14.19,-0.172 -29.3,-0.621 -41.07,-8.562 -16.76,-11.321 -21.22,-33.969 -21.27,-54.188 -0.35,-141.371 147.51,-239.141 278.99,-189.312 z"
         id="path254273" />
    </clipPath>
    <clipPath
       clipPathUnits="userSpaceOnUse"
       id="clipPath254291">
      <path
         d="m 3184.91,1101.76 c 0,-369.67 -299.67,-669.338 -669.33,-669.338 -369.67,0 -669.35,299.668 -669.35,669.338 0,369.67 299.68,669.34 669.35,669.34 369.66,0 669.33,-299.67 669.33,-669.34 z"
         id="path254289" />
    </clipPath>
    <clipPath
       clipPathUnits="userSpaceOnUse"
       id="clipPath254297">
      <path
         d="m 2851.56,1552.45 c 13.22,-3.28 25.9,-8.12 37.65,-15.17 52.48,-31.52 46.13,-94.09 50.71,-147.3 6.14,-71.28 12.28,-142.55 18.42,-213.83 16.51,-191.709 33.04,-383.568 37.53,-575.939 1.22,-52.141 0,-109 -32.88,-149.481 -36.62,-45.07 -100.37,-55.289 -158.21,-60.398 -200.32,-17.66 -401.88,-11.953 -602.88,-5.941 -44.26,1.328 -92.47,4.148 -125.65,33.48 -43.31,38.27 -43.32,104.609 -39.96,162.309 14.39,247.062 28.79,494.11 43.18,741.17 3.9,67.01 10.6,140.52 58.25,187.8 45.06,44.72 113.95,52.91 177.36,56.1 108.84,5.49 217.9,3.52 326.74,-0.94 46.3,-1.91 91.98,-5.64 138.71,-5.3 23.73,0.18 48.15,-0.87 71.03,-6.56 z"
         id="path254295" />
    </clipPath>
    <clipPath
       clipPathUnits="userSpaceOnUse"
       id="clipPath253677">
      <path
         d="m 4735.01,4053.14 c 0,-369.67 -299.68,-669.34 -669.35,-669.34 -369.66,0 -669.34,299.67 -669.34,669.34 0,369.67 299.68,669.34 669.34,669.34 369.67,0 669.35,-299.67 669.35,-669.34 z"
         id="path253675" />
    </clipPath>
    <clipPath
       clipPathUnits="userSpaceOnUse"
       id="clipPath253749">
      <path
         d="m 4735.01,4053.14 c 0,-369.67 -299.68,-669.34 -669.35,-669.34 -369.66,0 -669.34,299.67 -669.34,669.34 0,369.67 299.68,669.34 669.34,669.34 369.67,0 669.35,-299.67 669.35,-669.34 z"
         id="path253747" />
    </clipPath>
    <clipPath
       clipPathUnits="userSpaceOnUse"
       id="clipPath253755">
      <path
         d="m 4364.81,4182.11 c -4.78,44.4 -13.58,88.51 -38.59,126.05 -39.18,58.78 -113.44,91.72 -187.44,98.61 -67.99,6.32 -135.35,-1.42 -197.13,-27.38 -59.4,-24.95 -109.54,-45.36 -146.21,-99.24 -32.97,-48.45 -45.07,-106.36 -55.01,-162.94 -20.66,-117.68 -34.75,-236.38 -41.19,-355.48 -5.7,-105.44 -22.16,-229.08 32.08,-326.39 7.44,-13.34 16.25,-26.02 26.5,-37.65 34.85,-39.55 84.89,-65.47 137.04,-81.63 97.69,-30.28 203.8,-28.77 305.62,-14.48 49.07,6.88 100.4,17.93 136.35,49.74 36.92,32.68 51.07,81.55 59,128.38 24.14,142.75 2.38,285.85 -8.9,428.27 -6.23,78.67 -12.47,157.33 -18.7,235.99 -0.99,12.65 -2.04,25.42 -3.42,38.15 z"
         id="path253753" />
    </clipPath>
    <clipPath
       clipPathUnits="userSpaceOnUse"
       id="clipPath253777">
      <path
         d="m 4735.01,4053.14 c 0,-369.67 -299.68,-669.34 -669.35,-669.34 -369.66,0 -669.34,299.67 -669.34,669.34 0,369.67 299.68,669.34 669.34,669.34 369.67,0 669.35,-299.67 669.35,-669.34 z"
         id="path253775" />
    </clipPath>
  </defs>
  <g
     inkscape:label="Capa 1"
     inkscape:groupmode="layer"
     id="layer1"
     transform="translate(-393.67177,-339.9564)">
    <g
       id="g259846"
       transform="translate(-1989.1714,302.95371)">
      <g
         id="g259796"
         transform="matrix(0.13333333,0,0,-0.13333333,1930,666.66667)">
        <g
           id="g259794"
           clip-path="url(#clipPath253677)">
          <path
             d="m 4735.01,4053.14 c 0,-369.67 -299.68,-669.34 -669.35,-669.34 -369.66,0 -669.34,299.67 -669.34,669.34 0,369.67 299.68,669.34 669.34,669.34 369.67,0 669.35,-299.67 669.35,-669.34"
             style="fill:none;fill-opacity:1;fill-rule:nonzero;stroke:none"
             id="path259730" />
          <path
             d="m 4364.81,4182.11 c -4.78,44.4 -13.58,88.51 -38.59,126.05 -39.18,58.78 -113.44,91.72 -187.44,98.61 -67.99,6.32 -135.35,-1.42 -197.13,-27.38 -59.4,-24.95 -109.54,-45.36 -146.21,-99.24 -32.97,-48.45 -45.07,-106.36 -55.01,-162.94 -20.66,-117.68 -34.75,-236.38 -41.19,-355.48 -5.7,-105.44 -22.16,-229.08 32.08,-326.39 7.44,-13.34 16.25,-26.02 26.5,-37.65 34.85,-39.55 84.89,-65.47 137.04,-81.63 97.69,-30.28 203.8,-28.77 305.62,-14.48 49.07,6.88 100.4,17.93 136.35,49.74 36.92,32.68 51.07,81.55 59,128.38 24.14,142.75 2.38,285.85 -8.9,428.27 -6.23,78.67 -12.47,157.33 -18.7,235.99 -0.99,12.65 -2.04,25.42 -3.42,38.15"
             style="fill:#f7dbb7;fill-opacity:1;fill-rule:nonzero;stroke:none"
             id="path259732" />
          <path
             d="m 3776.35,4431.38 c -41.95,25.75 -99.62,29.78 -142.94,6.07 -43.32,-23.7 -67.7,-75.84 -52.34,-120.34 9.22,-26.7 30.7,-48.42 54.89,-65.16 26.44,-18.3 57.41,-31.83 90.22,-34.84 32.8,-3 67.49,5.35 91.9,25.96 64.47,54.45 20.23,150.27 -41.73,188.31"
             style="fill:#f7dbb7;fill-opacity:1;fill-rule:nonzero;stroke:none"
             id="path259734" />
          <path
             d="m 3700.87,4411.13 c -15.06,6.16 -32.7,9.21 -47.86,3.27 -15.17,-5.93 -25.73,-23.21 -19.05,-37.19 6.27,-13.08 23.33,-17.76 38.34,-20.96 -8.98,-4.27 -19.08,-9.94 -20.32,-19.25 -1.26,-9.47 8.15,-17.86 18.2,-19.81 10.04,-1.95 20.38,0.8 30.22,3.53 -40.46,-41.41 67.38,-80.09 76.12,-22.6 6.48,42.6 -36.09,96.81 -75.65,113.01"
             style="fill:#f9a9ae;fill-opacity:1;fill-rule:nonzero;stroke:none"
             id="path259736" />
          <path
             d="m 3652.95,4108.86 c -41.43,-2.67 -47.99,52.31 -5.06,55.89 44.14,3.7 47.52,-53.13 5.06,-55.89 z m 52.46,36.37 c -1.7,21.72 -17.32,41.74 -38.54,50.9 -12.56,5.4 -27.15,7.19 -40.44,3.64 -20.46,-5.52 -35.62,-23.75 -38.36,-43.39 -5.9,-42.36 39.87,-86.83 85.4,-65.11 20.84,9.93 33.65,32.27 31.94,53.96"
             style="fill:#f285bb;fill-opacity:1;fill-rule:nonzero;stroke:none"
             id="path259738" />
          <path
             d="m 3626.05,4196.69 c -1.1,-6.1 -2.2,-12.37 -0.91,-18.44 1.29,-6.08 5.5,-12.02 11.88,-13.79 5.66,-1.57 11.93,0.43 16.42,3.98 4.5,3.55 7.5,8.45 10.05,13.39 8.97,17.4 13.44,36.46 17.85,55.31 2.07,8.91 4.16,18.03 2.9,27.06 -2.75,19.57 -27.7,32.56 -42.01,14.28 -13.78,-17.58 -12.32,-60.52 -16.18,-81.79"
             style="fill:#fabd50;fill-opacity:1;fill-rule:nonzero;stroke:none"
             id="path259740" />
          <path
             d="m 3650.38,4003.65 c 11.27,3.62 13.73,17.21 14,28.29 0.54,23.11 -0.28,46.25 -2.46,69.27 -0.46,5.02 -1.05,10.17 -3.57,14.61 -9.62,17.02 -23.12,3.77 -25.99,-7.55 -2.94,-11.58 -1.9,-25.4 -2.79,-37.27 -1,-13.38 -15.63,-79.06 20.81,-67.35"
             style="fill:#fabd50;fill-opacity:1;fill-rule:nonzero;stroke:none"
             id="path259742" />
          <path
             d="m 3635.15,3856.11 c 8.3,-5.66 14.48,-0.8 20.69,13.54 10.79,24.92 20.6,51.07 20.19,78.29 -0.3,19.15 -10.37,42.07 -16.88,60 -13.53,37.26 -27.25,9.83 -38.45,-12.75 -7.46,-15.03 -17.19,-32.72 -19.25,-49.35 -2.98,-23.98 9.79,-61.72 24.89,-80.88 3.2,-4.08 6.11,-7.02 8.81,-8.85"
             style="fill:#f285bb;fill-opacity:1;fill-rule:nonzero;stroke:none"
             id="path259744" />
          <path
             d="m 4354.98,4431.38 c 41.94,25.75 99.62,29.78 142.94,6.07 43.32,-23.7 67.7,-75.84 52.33,-120.34 -9.21,-26.7 -30.69,-48.42 -54.88,-65.16 -26.45,-18.3 -57.41,-31.83 -90.22,-34.84 -32.81,-3 -67.49,5.35 -91.9,25.96 -64.47,54.45 -20.23,150.27 41.73,188.31"
             style="fill:#f7dbb7;fill-opacity:1;fill-rule:nonzero;stroke:none"
             id="path259746" />
          <path
             d="m 4430.45,4411.13 c 15.07,6.16 32.7,9.21 47.87,3.27 15.17,-5.93 25.73,-23.21 19.04,-37.19 -6.27,-13.08 -23.32,-17.76 -38.34,-20.96 8.99,-4.27 19.09,-9.94 20.33,-19.25 1.26,-9.47 -8.15,-17.86 -18.2,-19.81 -10.05,-1.95 -20.38,0.8 -30.22,3.53 40.46,-41.41 -67.39,-80.09 -76.13,-22.6 -6.48,42.6 36.1,96.81 75.65,113.01"
             style="fill:#f9a9ae;fill-opacity:1;fill-rule:nonzero;stroke:none"
             id="path259748" />
          <path
             d="m 4483.44,4164.75 c 42.93,-3.58 36.36,-58.56 -5.06,-55.89 -42.46,2.76 -39.08,59.59 5.06,55.89 z m -25.58,-73.48 c 45.53,-21.72 91.3,22.75 85.4,65.11 -2.75,19.64 -17.9,37.87 -38.36,43.39 -13.29,3.55 -27.88,1.76 -40.44,-3.64 -21.22,-9.16 -36.84,-29.18 -38.55,-50.9 -1.7,-21.69 11.11,-44.03 31.95,-53.96"
             style="fill:#f285bb;fill-opacity:1;fill-rule:nonzero;stroke:none"
             id="path259750" />
          <path
             d="m 4505.27,4196.69 c 1.11,-6.1 2.21,-12.37 0.92,-18.44 -1.29,-6.08 -5.51,-12.02 -11.88,-13.79 -5.66,-1.57 -11.93,0.43 -16.43,3.98 -4.49,3.55 -7.49,8.45 -10.04,13.39 -8.97,17.4 -13.45,36.46 -17.85,55.31 -2.07,8.91 -4.16,18.03 -2.9,27.06 2.73,19.57 27.7,32.56 42.01,14.28 13.78,-17.58 12.32,-60.52 16.17,-81.79"
             style="fill:#fabd50;fill-opacity:1;fill-rule:nonzero;stroke:none"
             id="path259752" />
          <path
             d="m 4480.95,4003.65 c -11.27,3.62 -13.73,17.21 -14,28.29 -0.54,23.11 0.28,46.25 2.45,69.27 0.47,5.02 1.06,10.17 3.58,14.61 9.62,17.02 23.11,3.77 25.98,-7.55 2.94,-11.58 1.91,-25.4 2.79,-37.27 1,-13.38 15.64,-79.06 -20.8,-67.35"
             style="fill:#fabd50;fill-opacity:1;fill-rule:nonzero;stroke:none"
             id="path259754" />
          <path
             d="m 4496.18,3856.11 c -8.31,-5.66 -14.48,-0.8 -20.69,13.54 -10.79,24.92 -20.6,51.07 -20.19,78.29 0.3,19.15 10.36,42.07 16.88,60 13.53,37.26 27.24,9.83 38.45,-12.75 7.45,-15.03 17.19,-32.72 19.25,-49.35 2.98,-23.98 -9.79,-61.72 -24.89,-80.88 -3.2,-4.08 -6.12,-7.02 -8.81,-8.85"
             style="fill:#f285bb;fill-opacity:1;fill-rule:nonzero;stroke:none"
             id="path259756" />
          <path
             d="m 3961.94,4220.97 c -2.21,3.54 -4.41,7.18 -5.4,11.18 -0.97,4 -0.58,8.48 2.03,11.79 2.61,3.31 7.76,5 11.69,3.13 2.88,-1.36 4.55,-4.18 6.06,-6.84 9.15,-16.23 18.3,-32.46 27.45,-48.69 7.02,-12.44 -12.59,-10.15 -18.32,-3.98 -9.17,9.87 -16.46,22.18 -23.51,33.41"
             style="fill:#100f0d;fill-opacity:1;fill-rule:nonzero;stroke:none"
             id="path259758" />
          <path
             d="m 4052.98,4246.66 c 0.03,4.1 0.14,8.27 1.49,12.18 1.36,3.9 4.15,7.57 8.22,9.17 4.06,1.6 9.41,0.62 11.77,-2.85 1.73,-2.54 1.61,-5.77 1.45,-8.77 -1.05,-18.29 -2.08,-36.59 -3.13,-54.89 -0.8,-14.04 -16.39,-2.75 -17.94,5.27 -2.47,12.84 -1.97,26.89 -1.86,39.89"
             style="fill:#100f0d;fill-opacity:1;fill-rule:nonzero;stroke:none"
             id="path259760" />
          <path
             d="m 3901,4172.22 c -3.14,2.88 -6.28,5.86 -8.34,9.49 -2.06,3.63 -2.94,8.05 -1.34,11.87 1.59,3.82 6.09,6.7 10.41,5.85 3.16,-0.62 5.56,-2.94 7.76,-5.15 13.37,-13.46 26.74,-26.91 40.12,-40.37 10.25,-10.32 -9.33,-12.85 -16.58,-8.27 -11.61,7.31 -22.09,17.44 -32.03,26.58"
             style="fill:#100f0d;fill-opacity:1;fill-rule:nonzero;stroke:none"
             id="path259762" />
          <path
             d="m 4172.54,4220.97 c 2.23,3.54 4.42,7.18 5.4,11.18 0.98,4 0.59,8.48 -2.02,11.79 -2.62,3.31 -7.77,5 -11.7,3.13 -2.88,-1.36 -4.55,-4.18 -6.06,-6.84 -9.15,-16.23 -18.3,-32.46 -27.45,-48.69 -7.02,-12.44 12.59,-10.15 18.32,-3.98 9.17,9.87 16.46,22.18 23.51,33.41"
             style="fill:#100f0d;fill-opacity:1;fill-rule:nonzero;stroke:none"
             id="path259764" />
          <path
             d="m 4233.49,4172.22 c 3.14,2.88 6.28,5.86 8.34,9.49 2.07,3.63 2.94,8.05 1.33,11.87 -1.59,3.82 -6.09,6.7 -10.41,5.85 -3.16,-0.62 -5.56,-2.94 -7.75,-5.15 -13.38,-13.46 -26.75,-26.91 -40.12,-40.37 -10.26,-10.32 9.32,-12.85 16.58,-8.27 11.61,7.31 22.08,17.44 32.03,26.58"
             style="fill:#100f0d;fill-opacity:1;fill-rule:nonzero;stroke:none"
             id="path259766" />
          <path
             d="m 3941.39,4174.8 c -25.61,-22.32 -43.09,-51.85 -45.91,-86.52 -2.99,-36.82 9.89,-76.31 40.83,-99.44 23.07,-17.24 53.2,-23.72 82.49,-27.64 30.16,-4.05 61.02,-5.9 90.99,-0.79 29.98,5.11 59.18,17.71 79.37,38.93 22.4,23.55 32,56.11 30.57,87.53 -1.82,39.77 -21.33,79.23 -54.91,103.93 -65.31,48.08 -165.3,34.65 -223.43,-16"
             style="fill:#ffffff;fill-opacity:1;fill-rule:nonzero;stroke:none"
             id="path259768" />
          <path
             d="m 4003.83,4091.71 c -5.47,-18.42 1.89,-39.3 17.23,-52.02 15.35,-12.71 37.73,-17.21 57.7,-12.67 19.54,4.45 36.95,17.67 43.91,35.23 7.19,18.2 2.28,40.04 -12.17,54.02 -30.25,29.27 -94.85,15.28 -106.67,-24.56"
             style="fill:#100f0d;fill-opacity:1;fill-rule:nonzero;stroke:none"
             id="path259770" />
          <path
             d="m 3883.31,3719.15 c 7.39,-29.38 21.21,-57.79 44.01,-79.13 9.43,-8.81 20.18,-16.17 31.79,-22.18 2.22,23.54 4.46,46.97 5.82,70.65 -28.42,6.4 -55.9,16.47 -81.62,30.66"
             style="fill:#ffffff;fill-opacity:1;fill-rule:nonzero;stroke:none"
             id="path259772" />
          <path
             d="m 3998.2,3682.71 c -0.61,-26.23 -2.18,-52.46 -2.56,-78.69 14.78,-3.88 30.11,-6.12 45.4,-6.72 23.22,-0.91 46.85,1.77 68.87,8.56 -1.02,26.31 0.09,52.72 -2.34,78.8 -36.37,-5.52 -73.34,-6.45 -109.37,-1.95"
             style="fill:#ffffff;fill-opacity:1;fill-rule:nonzero;stroke:none"
             id="path259774" />
          <path
             d="m 4107.57,3684.66 c 2.43,-26.08 1.32,-52.49 2.34,-78.8 11.61,3.58 22.79,8.3 33.19,14.26 -2.02,23.36 -2.51,46.97 -3.36,70.69 -10.65,-2.43 -21.38,-4.51 -32.17,-6.15"
             style="fill:#100f0d;fill-opacity:1;fill-rule:nonzero;stroke:none"
             id="path259776" />
          <path
             d="m 4216.51,3715.57 c -24.59,-10.42 -50.4,-18.75 -76.77,-24.76 0.85,-23.72 1.34,-47.33 3.36,-70.69 3.21,1.84 6.35,3.79 9.41,5.87 31.69,21.56 52.41,54.45 64,89.58"
             style="fill:#ffffff;fill-opacity:1;fill-rule:nonzero;stroke:none"
             id="path259778" />
          <path
             d="m 3964.93,3688.49 c -1.36,-23.68 -3.6,-47.11 -5.82,-70.65 11.47,-5.93 23.8,-10.48 36.53,-13.82 0.38,26.23 1.95,52.46 2.56,78.69 -11.2,1.4 -22.3,3.31 -33.27,5.78"
             style="fill:#100f0d;fill-opacity:1;fill-rule:nonzero;stroke:none"
             id="path259780" />
          <path
             d="m 4216.51,3715.57 c 1.94,5.85 3.64,11.76 5.07,17.7 3.67,15.25 11.72,47.67 11.55,76.3 -15.43,-7.35 -30.97,-15.33 -49.08,-20.95 -37.88,-8.8 -72.61,-23.48 -110.5,-26.41 -63.04,-2.26 -148.41,0.72 -198.93,39.46 0.37,-25.33 1.65,-50.67 7.02,-75.46 0.52,-2.36 1.07,-4.72 1.67,-7.06 100.55,-55.48 227.91,-48.21 333.2,-3.58"
             style="fill:#100f0d;fill-opacity:1;fill-rule:nonzero;stroke:none"
             id="path259782" />
          <path
             d="m 4033.27,3845.02 c -13.64,0.44 -27.26,1.42 -40.84,2.88 -4.64,-27.43 -7.78,-55.16 -10.02,-83.03 31.46,-3.62 63.45,-3.65 91.14,-2.66 11.7,0.9 23.1,2.93 34.38,5.56 -2.3,26.4 -3.22,52.96 -5.38,79.31 -23.01,-2.12 -46.16,-2.81 -69.28,-2.06"
             style="fill:#ffffff;fill-opacity:1;fill-rule:nonzero;stroke:none"
             id="path259784" />
          <path
             d="m 4233.13,3809.57 c -0.15,24.7 -6.43,46.58 -26.96,52.15 -14.22,3.86 -32.7,-0.42 -50.28,-5.01 -0.01,-25.25 -0.71,-50.53 0.31,-75.5 9.16,2.65 18.41,5.22 27.85,7.41 18.11,5.62 33.65,13.6 49.08,20.95"
             style="fill:#ffffff;fill-opacity:1;fill-rule:nonzero;stroke:none"
             id="path259786" />
          <path
             d="m 4155.89,3856.71 c -11,-2.87 -21.64,-5.87 -30.68,-7.07 -7.52,-1.01 -15.08,-1.86 -22.66,-2.56 2.16,-26.35 3.08,-52.91 5.38,-79.31 16.14,3.76 32.06,8.74 48.27,13.44 -1.02,24.97 -0.32,50.25 -0.31,75.5"
             style="fill:#100f0d;fill-opacity:1;fill-rule:nonzero;stroke:none"
             id="path259788" />
          <path
             d="m 3947.38,3854.64 c -7.92,-26.11 -14.42,-52.41 -19.14,-79.07 17.21,-5.17 35.6,-8.56 54.17,-10.7 2.24,27.87 5.38,55.6 10.02,83.03 -15.11,1.63 -30.14,3.87 -45.05,6.74"
             style="fill:#100f0d;fill-opacity:1;fill-rule:nonzero;stroke:none"
             id="path259790" />
          <path
             d="m 3929.37,3858.41 c -15.54,3.56 -34.21,7.1 -45.71,-3.25 -8.75,-7.88 -9.28,-20.55 -9.23,-31.88 0.03,-7.2 0.08,-14.4 0.19,-21.61 15.22,-11.67 33.63,-20.08 53.62,-26.1 4.72,26.66 11.22,52.96 19.14,79.07 -6.02,1.17 -12.04,2.4 -18.01,3.77"
             style="fill:#ffffff;fill-opacity:1;fill-rule:nonzero;stroke:none"
             id="path259792" />
        </g>
      </g>
      <g
         id="g259816"
         transform="matrix(0.13333333,0,0,-0.13333333,1930,666.66667)">
        <g
           id="g259814"
           clip-path="url(#clipPath253749)">
          <g
             id="g259812"
             clip-path="url(#clipPath253755)">
            <path
               d="m 3967.5,3489.06 c 21.74,25.79 52.48,47.06 87.57,50.05 50.4,4.3 97.01,-30.76 118.93,-73.18 21.94,-42.41 24.48,-90.93 26.5,-137.96 0.93,-21.38 1.24,-44.63 -12.49,-61.81 -11.43,-14.31 -30.38,-21.42 -48.73,-26.59 -60.79,-17.16 -126.07,-20.44 -188.51,-9.47 -62.12,10.91 -45.47,66.78 -39.87,111.7 6.51,52.22 21.13,105.19 56.6,147.26"
               style="fill:#fcead8;fill-opacity:1;fill-rule:nonzero;stroke:none"
               id="path259798" />
            <path
               d="m 3766.78,4255.63 c 10.93,7.46 23.91,12.91 37.47,13.04 13.55,0.13 27.61,-5.78 34.42,-16.66 6.83,-10.9 4.55,-26.64 -6.53,-33.9 -6.71,-4.4 -15.31,-5.3 -22.81,-8.42 -7.49,-3.12 -14.46,-10.48 -11.81,-17.71 3.11,-8.44 15.37,-8.99 24.41,-11.98 14.22,-4.72 23.4,-19.9 20.36,-33.65 -3.04,-13.74 -17.93,-24.31 -32.99,-23.42 -10.76,0.63 -23.99,5.5 -30.65,-2.38 -4.81,-5.7 -1.81,-14.25 2.99,-19.96 4.82,-5.71 11.32,-10.42 14.16,-17.18 4.95,-11.77 -4.37,-25.96 -17.37,-29.64 -13.01,-3.68 -27.58,1.59 -36.98,10.71 -9.41,9.13 -14.35,21.48 -17.16,33.85 -6.65,29.31 2.25,57.1 3.07,86.15 0.81,28.23 14.53,54.15 39.42,71.15"
               style="fill:#e57682;fill-opacity:1;fill-rule:nonzero;stroke:none"
               id="path259800" />
            <path
               d="m 3729.14,3993.33 c 15.3,11.99 36.49,21.01 55.03,14 17.23,-6.51 26.19,-25.69 23.79,-42.83 -2.39,-17.15 -14.07,-32.13 -28.05,-43.53 -5.53,-4.52 -11.99,-9.51 -12.28,-16.36 -0.42,-9.87 11.55,-15.43 21,-19.94 13.03,-6.22 25.2,-15.86 29.19,-28.96 3.99,-13.09 -3.25,-29.56 -17.5,-32.72 -8.99,-1.99 -18.2,1.41 -27.25,3.21 -9.05,1.8 -20.2,1.2 -25.25,-6.01 -5.16,-7.38 -0.84,-17.45 5.47,-24.01 6.32,-6.57 14.61,-11.68 19.1,-19.43 10.65,-18.34 -8.27,-42.81 -30.63,-44.25 -22.36,-1.43 -42.7,14.56 -51.6,33.68 -8.91,19.13 -8.71,40.74 -7.44,61.55 3.79,61.64 -11.78,119.98 46.42,165.6"
               style="fill:#e57682;fill-opacity:1;fill-rule:nonzero;stroke:none"
               id="path259802" />
            <path
               d="m 3688.9,3458 c -21.45,31.43 -16.58,77.18 -20.61,112.88 -4.3,38.18 -0.76,78.62 25.25,109.21 12.43,14.62 34.74,27.14 51.49,16.91 10.99,-6.72 14.11,-20.42 13.89,-32.65 -0.24,-12.22 -2.81,-24.71 0.67,-36.5 3.47,-11.79 16.02,-22.65 28.68,-19.37 10.69,2.77 16.22,13.83 25.76,19.11 13.42,7.43 32.62,0.37 39.25,-12.78 6.63,-13.14 1.84,-29.69 -9.17,-39.99 -7.92,-7.41 -18.39,-11.92 -27.26,-18.33 -8.87,-6.4 -16.56,-16.08 -14.99,-26.43 1.59,-10.54 12.27,-17.96 23.11,-21.41 10.84,-3.45 22.54,-4.2 33.22,-8.06 18.22,-6.6 32.47,-23.95 30.72,-42.05 -1.76,-18.12 -22.55,-33.58 -41.25,-28.25 -26.65,7.61 -35.72,47.67 -63.57,46.45 -23,-1 -32.95,-30.47 -55.11,-36.28 -15.24,-4 -31.6,5.11 -40.08,17.54"
               style="fill:#e57682;fill-opacity:1;fill-rule:nonzero;stroke:none"
               id="path259804" />
            <path
               d="m 4342.45,4279.11 c -10.93,7.47 -23.91,12.91 -37.47,13.04 -13.55,0.13 -27.61,-5.77 -34.42,-16.66 -6.83,-10.9 -4.55,-26.63 6.53,-33.89 6.71,-4.4 15.31,-5.31 22.81,-8.42 7.49,-3.13 14.46,-10.49 11.8,-17.71 -3.11,-8.45 -15.36,-8.99 -24.41,-11.99 -14.21,-4.71 -23.39,-19.89 -20.36,-33.64 3.05,-13.75 17.93,-24.32 33,-23.43 10.75,0.64 23.99,5.5 30.65,-2.37 4.81,-5.7 1.81,-14.25 -2.99,-19.97 -4.82,-5.71 -11.32,-10.42 -14.16,-17.18 -4.95,-11.76 4.37,-25.96 17.37,-29.64 13.01,-3.68 27.58,1.59 36.98,10.71 9.41,9.13 14.35,21.49 17.16,33.85 6.65,29.32 -2.25,57.11 -3.07,86.15 -0.82,28.23 -14.54,54.16 -39.42,71.15"
               style="fill:#e57682;fill-opacity:1;fill-rule:nonzero;stroke:none"
               id="path259806" />
            <path
               d="m 4380.09,4016.82 c -15.3,11.99 -36.5,21 -55.03,14 -17.23,-6.52 -26.19,-25.69 -23.79,-42.84 2.39,-17.15 14.07,-32.13 28.05,-43.53 5.53,-4.52 11.99,-9.5 12.28,-16.35 0.42,-9.88 -11.55,-15.44 -21,-19.95 -13.03,-6.21 -25.2,-15.86 -29.19,-28.95 -3.99,-13.1 3.25,-29.57 17.49,-32.73 9,-1.99 18.21,1.42 27.26,3.22 9.05,1.79 20.2,1.19 25.25,-6.02 5.16,-7.38 0.84,-17.44 -5.47,-24.01 -6.32,-6.56 -14.61,-11.67 -19.1,-19.43 -10.65,-18.34 8.27,-42.8 30.63,-44.24 22.35,-1.44 42.7,14.55 51.6,33.68 8.91,19.12 8.71,40.74 7.43,61.54 -3.79,61.65 11.79,119.98 -46.41,165.61"
               style="fill:#e57682;fill-opacity:1;fill-rule:nonzero;stroke:none"
               id="path259808" />
            <path
               d="m 4420.32,3481.48 c 21.46,31.44 16.58,77.18 20.61,112.88 4.3,38.18 0.77,78.62 -25.25,109.21 -12.42,14.62 -34.73,27.14 -51.48,16.91 -10.99,-6.71 -14.11,-20.42 -13.89,-32.64 0.24,-12.22 2.81,-24.72 -0.67,-36.51 -3.47,-11.79 -16.02,-22.65 -28.68,-19.37 -10.7,2.78 -16.23,13.84 -25.76,19.12 -13.42,7.43 -32.62,0.37 -39.25,-12.78 -6.64,-13.14 -1.84,-29.7 9.17,-39.99 7.92,-7.41 18.39,-11.93 27.26,-18.33 8.87,-6.41 16.56,-16.09 14.99,-26.44 -1.59,-10.54 -12.27,-17.95 -23.11,-21.4 -10.84,-3.46 -22.54,-4.21 -33.22,-8.07 -18.23,-6.6 -32.48,-23.94 -30.72,-42.05 1.76,-18.11 22.55,-33.57 41.25,-28.24 26.65,7.6 35.72,47.67 63.57,46.45 22.99,-1.01 32.95,-30.47 55.1,-36.28 15.25,-4 31.61,5.1 40.08,17.53"
               style="fill:#e57682;fill-opacity:1;fill-rule:nonzero;stroke:none"
               id="path259810" />
          </g>
        </g>
      </g>
      <g
         id="g259844"
         transform="matrix(0.13333333,0,0,-0.13333333,1930,666.66667)">
        <g
           id="g259842"
           clip-path="url(#clipPath253777)">
          <path
             d="m 4008.72,4584.52 c -15.05,6.28 -32.32,9.37 -48.14,5.03 -15.82,-4.32 -29.5,-17.35 -30.28,-32.66 -0.79,-15.33 14.4,-30.63 30.72,-28.37 -22.96,0.2 -45.94,-6.22 -64.98,-18.17 -8.3,-5.21 -16.39,-12.34 -17.53,-21.59 -1.29,-10.4 7,-20.17 17.12,-24.76 10.12,-4.59 21.73,-5.12 32.98,-5.57 -18.71,-4.52 -36.52,-14.23 -47.23,-29.19 -10.72,-14.96 -13.21,-35.52 -3.51,-51.06 9.7,-15.56 32.49,-23.74 49.87,-15.89 -16.81,-8.01 -20.23,-31.47 -8.93,-45.56 11.3,-14.08 32.95,-18.6 51.2,-14.02 18.24,4.57 33.31,16.75 44.88,30.63 0.76,-20.88 20.8,-39.57 43.26,-40.34 22.46,-0.77 43.92,16.52 46.32,37.29 10.74,-18.77 36.28,-30.39 57.76,-23.1 21.47,7.29 32.42,35.4 18.08,51.97 24.08,-1.52 48.05,14.88 53.65,36.7 5.62,21.83 -7.79,46.52 -30,55.29 29.28,12.18 40.76,51.17 22.23,75.52 -18.52,24.35 -61.89,27.25 -83.98,5.63 12.06,25.44 -1.39,59.55 -29.39,69.32 -18.26,6.38 -40.18,0.08 -53.18,-13.01 -4.83,-4.85 -9.52,-20.36 -15.85,-22.16 -6.39,-1.81 -28.39,15.28 -35.07,18.07"
             style="fill:#f9a9ae;fill-opacity:1;fill-rule:nonzero;stroke:none"
             id="path259818" />
          <path
             d="m 3990.3,4455.74 c -6.03,-21.82 3.56,-46.65 23.14,-59.92 19.58,-13.28 47.93,-14.16 68.43,-2.15 39.64,23.25 34.15,73.03 -0.63,97.28 -32.22,22.47 -81.36,-0.54 -90.94,-35.21"
             style="fill:#e57682;fill-opacity:1;fill-rule:nonzero;stroke:none"
             id="path259820" />
          <path
             d="m 3833.74,3964.73 c -9.21,-5.63 -14.19,-15.89 -15.49,-26.07 -1.3,-10.18 0.6,-20.46 2.49,-30.55 1.14,-6.14 2.5,-12.66 7.11,-17.17 6.65,-6.51 18,-6.61 27.07,-3.54 17.03,5.75 29.58,21.54 30.5,38.37 1.23,22.73 -25.14,55.17 -51.68,38.96"
             style="fill:#e57682;fill-opacity:1;fill-rule:nonzero;stroke:none"
             id="path259822" />
          <path
             d="m 3834.19,4007.84 c 38.97,0.34 59.52,58.66 12.35,60.7 -14.33,0.62 -21.23,-3.54 -22.92,-15.95 -0.63,-4.71 2.85,-9.85 2.02,-14.95 -0.81,-5.05 -6.83,-9.78 -7.19,-14.26 -0.79,-9.89 3.37,-15.65 15.74,-15.54"
             style="fill:#e57682;fill-opacity:1;fill-rule:nonzero;stroke:none"
             id="path259824" />
          <path
             d="m 4215.56,3945.29 c -1.58,-58.59 76.13,-55.29 72.09,-0.84 -1.45,19.43 -12.91,39.3 -29.52,51.17 -31.92,22.81 -41.99,-28.67 -42.57,-50.33"
             style="fill:#e57682;fill-opacity:1;fill-rule:nonzero;stroke:none"
             id="path259826" />
          <path
             d="m 4250.4,4045.57 c 8.33,-9.48 25.07,-9.98 35.67,-2.73 20.14,13.77 20.89,53.43 -8.62,57.15 -27.61,3.47 -42.71,-36.61 -27.05,-54.42"
             style="fill:#e57682;fill-opacity:1;fill-rule:nonzero;stroke:none"
             id="path259828" />
          <path
             d="m 4192.43,4267.87 c 0.62,-3.17 2.4,-5.8 6.38,-7.57 11.57,-5.15 35.19,6.44 42.65,14.07 15.03,15.39 15.93,51.06 -13.34,53.36 -20.33,1.58 -31.93,-32.36 -34.49,-46.2 -0.91,-4.95 -1.96,-9.72 -1.2,-13.66"
             style="fill:#e57682;fill-opacity:1;fill-rule:nonzero;stroke:none"
             id="path259830" />
          <path
             d="m 3844.47,4290.09 c 0.12,-7.01 2.86,-13.73 5.74,-20.2 2.63,-5.87 5.46,-11.8 9.99,-16.57 4.52,-4.77 11.04,-8.3 17.88,-8 13.06,0.56 21.2,14.97 19.06,26.97 -1.85,10.36 -12.19,28.18 -22.07,34.17 -14.8,8.95 -30.86,-0.1 -30.6,-16.37"
             style="fill:#e57682;fill-opacity:1;fill-rule:nonzero;stroke:none"
             id="path259832" />
          <path
             d="m 3789.8,3702.24 c -3.03,-13.12 -16.62,-24.96 -12.08,-37.71 3.2,-8.95 15.05,-13.43 24.93,-11.26 9.87,2.17 17.62,9.5 22.61,17.72 11.29,18.58 11.12,48.51 -6.31,64.33 -27.74,25.16 -25.82,-18.73 -29.15,-33.08"
             style="fill:#e57682;fill-opacity:1;fill-rule:nonzero;stroke:none"
             id="path259834" />
          <path
             d="m 4274.9,3773.42 c -8.24,-4.74 -12.04,-14.06 -13.55,-22.96 -3.31,-19.42 1.93,-39.99 14.27,-55.97 13.11,-16.99 30.39,-14.58 32.28,6.15 1.27,13.93 1.36,22.74 5.96,36.35 8.08,23.93 -9.56,53.34 -38.96,36.43"
             style="fill:#e57682;fill-opacity:1;fill-rule:nonzero;stroke:none"
             id="path259836" />
          <path
             d="m 4157.46,3540.78 c -2.76,-6.37 -4.87,-14.16 -0.47,-19.68 4.71,-5.9 14.64,-5.78 21.6,-2.29 6.97,3.48 12.07,9.41 18.14,14.13 6.06,4.73 14.23,8.39 21.74,6.06 4.52,-1.4 8.18,-4.83 12.86,-5.7 5.1,-0.96 10.47,1.48 13.69,5.27 15.6,18.42 -2.31,45.64 -24.75,46.23 -30.53,0.82 -52.14,-19.44 -62.81,-44.02"
             style="fill:#e57682;fill-opacity:1;fill-rule:nonzero;stroke:none"
             id="path259838" />
          <path
             d="m 3888.53,3504.27 c 16.66,-3.61 34.95,4.81 43.59,18.54 11.81,18.74 4.19,71.77 -27.44,50.18 -17.79,-12.14 -54.46,-60.43 -16.15,-68.72"
             style="fill:#e57682;fill-opacity:1;fill-rule:nonzero;stroke:none"
             id="path259840" />
        </g>
      </g>
    </g>
  </g>
</svg>
