<?xml version="1.0" encoding="UTF-8" standalone="no"?>
<!-- Created with Inkscape (http://www.inkscape.org/) -->

<svg
   width="178.49094"
   height="178.49066"
   viewBox="0 0 178.49094 178.49066"
   version="1.1"
   id="svg5"
   inkscape:version="1.2.2 (b0a8486541, 2022-12-01)"
   inkscape:export-filename="card_red.png"
   inkscape:export-xdpi="96"
   inkscape:export-ydpi="96"
   sodipodi:docname="avatar_6.svg"
   xmlns:inkscape="http://www.inkscape.org/namespaces/inkscape"
   xmlns:sodipodi="http://sodipodi.sourceforge.net/DTD/sodipodi-0.dtd"
   xmlns="http://www.w3.org/2000/svg"
   xmlns:svg="http://www.w3.org/2000/svg">
  <sodipodi:namedview
     id="namedview7"
     pagecolor="#677178"
     bordercolor="#171c20"
     borderopacity="1"
     inkscape:showpageshadow="false"
     inkscape:pageopacity="0"
     inkscape:pagecheckerboard="0"
     inkscape:deskcolor="#25292d"
     inkscape:document-units="px"
     showgrid="false"
     showborder="false"
     borderlayer="true"
     inkscape:zoom="1.6682482"
     inkscape:cx="75.528331"
     inkscape:cy="89.914679"
     inkscape:window-width="1920"
     inkscape:window-height="997"
     inkscape:window-x="0"
     inkscape:window-y="0"
     inkscape:window-maximized="1"
     inkscape:current-layer="layer1" />
  <defs
     id="defs2">
    <clipPath
       clipPathUnits="userSpaceOnUse"
       id="clipPath55488">
      <path
         id="path55490"
         style="fill:#008080;stroke-width:0.133333"
         d="m 3456.5313,314.00653 c -0.741,0 -1.3656,0.62892 -1.3656,1.47932 v 37.74399 c 0,0.8504 0.6246,1.47932 1.3656,1.47932 h 22.0219 c 0.74,0 1.3651,-0.62902 1.3651,-1.47932 v -37.74399 c 0,-0.8503 -0.6251,-1.47931 -1.3651,-1.47932 z" />
    </clipPath>
    <clipPath
       clipPathUnits="userSpaceOnUse"
       id="clipPath287942">
      <path
         id="path287940"
         style="fill:#008080;stroke-width:0.133333"
         d="m 3456.5313,314.00653 c -0.741,0 -1.3656,0.62892 -1.3656,1.47932 v 37.74399 c 0,0.8504 0.6246,1.47932 1.3656,1.47932 h 22.0219 c 0.74,0 1.3651,-0.62902 1.3651,-1.47932 v -37.74399 c 0,-0.8503 -0.6251,-1.47931 -1.3651,-1.47932 z" />
    </clipPath>
    <clipPath
       clipPathUnits="userSpaceOnUse"
       id="clipPath253439">
      <path
         d="m 1640.67,4053.14 c 0,-369.67 -299.67,-669.34 -669.338,-669.34 -369.668,0 -669.344,299.67 -669.344,669.34 0,369.67 299.676,669.34 669.344,669.34 369.668,0 669.338,-299.67 669.338,-669.34 z"
         id="path253437" />
    </clipPath>
    <clipPath
       clipPathUnits="userSpaceOnUse"
       id="clipPath253449">
      <path
         d="m 1640.67,4053.14 c 0,-369.67 -299.67,-669.34 -669.338,-669.34 -369.668,0 -669.344,299.67 -669.344,669.34 0,369.67 299.676,669.34 669.344,669.34 369.668,0 669.338,-299.67 669.338,-669.34 z"
         id="path253447" />
    </clipPath>
    <clipPath
       clipPathUnits="userSpaceOnUse"
       id="clipPath253455">
      <path
         d="m 945.746,4543.82 c -19.168,-1.89 -37.973,-4.86 -56.137,-8.88 -101.777,-22.54 -211.937,-85.77 -269.98,-177.9 -25.551,-40.56 -41.113,-75.67 -53.512,-122.94 -13.297,-50.68 -23.301,-102.27 -30.73,-154.22 -20.762,-145.16 -23.926,-294.07 -20.938,-440.2 0.985,-48.05 2.211,-97.38 19.774,-141.82 29.82,-75.43 96.011,-88.87 164.843,-105.47 103.047,-24.87 212.493,-16.43 317.354,-15.72 100.63,0.68 206.85,-8.31 303.7,24 73.35,24.47 91.17,120.45 101.03,191.44 13.93,100.31 5.17,200.78 -3.28,301.07 -8.84,104.91 -23.54,209.28 -44.03,312.41 -16.32,82.11 -38.04,166.97 -91.8,229.37 -37.6,43.63 -88.71,73.11 -142.62,89.97 -61.92,19.37 -129.42,25.23 -193.674,18.89 z"
         id="path253453" />
    </clipPath>
    <clipPath
       clipPathUnits="userSpaceOnUse"
       id="clipPath253513">
      <path
         d="m 1640.67,4053.14 c 0,-369.67 -299.67,-669.34 -669.338,-669.34 -369.668,0 -669.344,299.67 -669.344,669.34 0,369.67 299.676,669.34 669.344,669.34 369.668,0 669.338,-299.67 669.338,-669.34 z"
         id="path253511" />
    </clipPath>
    <clipPath
       clipPathUnits="userSpaceOnUse"
       id="clipPath254367">
      <path
         d="m 4735.01,2566.69 c 0,-369.67 -299.68,-669.34 -669.35,-669.34 -369.66,0 -669.34,299.67 -669.34,669.34 0,369.67 299.68,669.35 669.34,669.35 369.67,0 669.35,-299.68 669.35,-669.35 z"
         id="path254365" />
    </clipPath>
    <clipPath
       clipPathUnits="userSpaceOnUse"
       id="clipPath254377">
      <path
         d="m 4735.01,2566.69 c 0,-369.67 -299.68,-669.34 -669.35,-669.34 -369.66,0 -669.34,299.67 -669.34,669.34 0,369.67 299.68,669.35 669.34,669.35 369.67,0 669.35,-299.68 669.35,-669.35 z"
         id="path254375" />
    </clipPath>
    <clipPath
       clipPathUnits="userSpaceOnUse"
       id="clipPath254383">
      <path
         d="m 4497.48,2559.78 c -15.2,71.11 -35.51,141.89 -70.62,205.56 -35.13,63.67 -86.19,120.23 -151.46,152.29 14.17,9.75 8.07,34.09 -6.79,42.75 -14.86,8.66 -33.4,6.48 -50.42,4.03 15.13,11.65 15.61,37.7 0.92,49.89 -13.39,11.12 -35.74,7.68 -46.15,-5.89 9.05,14.97 20.1,42.48 3.39,56.13 -17.59,14.37 -56.47,-2.94 -71.77,-13.7 4.88,10.51 4.68,23.19 -2.06,32.9 -6.77,9.73 -19.38,15.02 -31.06,13.06 -13.36,-2.26 -24.16,-13.3 -28.7,-26.06 -4.55,-12.77 -3.59,-26.94 -0.14,-40.04 -9.77,6.15 -18.12,14.26 -27,21.63 -8.89,7.37 -18.65,14.17 -29.85,16.99 -11.19,2.81 -24.13,0.98 -32.36,-7.1 -13.1,-12.86 -4.9,-40.96 4.96,-53.81 -10.42,13.57 -32.76,17.01 -46.15,5.89 -14.69,-12.19 -14.21,-38.24 0.91,-49.89 -17.02,2.45 -35.55,4.63 -50.42,-4.03 -14.86,-8.66 -20.96,-33 -6.79,-42.75 -65.27,-32.06 -116.32,-88.62 -151.45,-152.29 -35.12,-63.67 -55.42,-134.45 -70.62,-205.56 -38.3,-179.1 -45.87,-363.33 -45.67,-546.49 0.04,-42.85 1.61,-89.09 27.76,-123.06 29.7,-38.59 82.27,-50.06 130.58,-56.21 107.96,-13.72 217.06,-13.06 325.68,-11.23 104.45,1.76 208.69,-1.97 312.6,11.23 48.32,6.15 100.88,17.62 130.59,56.21 26.14,33.97 27.71,80.21 27.75,123.06 0.21,183.16 -7.36,367.39 -45.66,546.49 z"
         id="path254381" />
    </clipPath>
    <clipPath
       clipPathUnits="userSpaceOnUse"
       id="clipPath254417">
      <path
         d="m 4735.01,2566.69 c 0,-369.67 -299.68,-669.34 -669.35,-669.34 -369.66,0 -669.34,299.67 -669.34,669.34 0,369.67 299.68,669.35 669.34,669.35 369.67,0 669.35,-299.68 669.35,-669.35 z"
         id="path254415" />
    </clipPath>
    <clipPath
       clipPathUnits="userSpaceOnUse"
       id="clipPath254445">
      <path
         d="m 4735.01,2566.69 c 0,-369.67 -299.68,-669.34 -669.35,-669.34 -369.66,0 -669.34,299.67 -669.34,669.34 0,369.67 299.68,669.35 669.34,669.35 369.67,0 669.35,-299.68 669.35,-669.35 z"
         id="path254443" />
    </clipPath>
    <clipPath
       clipPathUnits="userSpaceOnUse"
       id="clipPath254451">
      <path
         d="m 4182.19,2287.06 c -39.7,-20.75 -84.81,-29.58 -129.57,-31.2 -38.6,-1.41 -77.86,2.49 -113.92,16.34 -36.05,13.85 -68.8,38.26 -88.29,71.6 -5.1,8.71 -9.46,18.2 -17.15,24.75 -7.68,6.54 -20.1,9.02 -27.63,2.3 -4,-3.57 -5.84,-8.94 -7.27,-14.1 -18.02,-64.82 3.1,-137.64 49.03,-186.78 40.54,-43.37 96.06,-66.54 154.15,-72.01 30.95,-2.91 59.52,-6.65 90.73,-2.1 30.16,4.4 59.61,13.82 86.65,27.92 11.34,5.92 22.27,12.67 32.62,20.19 37.02,26.91 66.59,63.72 85.71,105.24 9.56,20.76 16.53,42.72 20.52,65.24 3.8,21.45 8.81,47.59 -6.68,65.97 -7.45,8.85 -25.09,15.22 -35.35,7.13 -9.38,-7.41 -14.11,-27.42 -21.37,-37.94 -18.31,-26.46 -43.76,-47.7 -72.18,-62.55 z"
         id="path254449" />
    </clipPath>
    <clipPath
       clipPathUnits="userSpaceOnUse"
       id="clipPath254479">
      <path
         d="m 4735.01,2566.69 c 0,-369.67 -299.68,-669.34 -669.35,-669.34 -369.66,0 -669.34,299.67 -669.34,669.34 0,369.67 299.68,669.35 669.34,669.35 369.67,0 669.35,-299.68 669.35,-669.35 z"
         id="path254477" />
    </clipPath>
    <clipPath
       clipPathUnits="userSpaceOnUse"
       id="clipPath254235">
      <path
         d="m 3184.91,1101.76 c 0,-369.67 -299.67,-669.338 -669.33,-669.338 -369.67,0 -669.35,299.668 -669.35,669.338 0,369.67 299.68,669.34 669.35,669.34 369.66,0 669.33,-299.67 669.33,-669.34 z"
         id="path254233" />
    </clipPath>
    <clipPath
       clipPathUnits="userSpaceOnUse"
       id="clipPath254245">
      <path
         d="m 3184.91,1101.76 c 0,-369.67 -299.67,-669.338 -669.33,-669.338 -369.67,0 -669.35,299.668 -669.35,669.338 0,369.67 299.68,669.34 669.35,669.34 369.66,0 669.33,-299.67 669.33,-669.34 z"
         id="path254243" />
    </clipPath>
    <clipPath
       clipPathUnits="userSpaceOnUse"
       id="clipPath254251">
      <path
         d="m 2851.56,1552.45 c 13.22,-3.28 25.9,-8.12 37.65,-15.17 52.48,-31.52 46.13,-94.09 50.71,-147.3 6.14,-71.28 12.28,-142.55 18.42,-213.83 16.51,-191.709 33.04,-383.568 37.53,-575.939 1.22,-52.141 0,-109 -32.88,-149.481 -36.62,-45.07 -100.37,-55.289 -158.21,-60.398 -200.32,-17.66 -401.88,-11.953 -602.88,-5.941 -44.26,1.328 -92.47,4.148 -125.65,33.48 -43.31,38.27 -43.32,104.609 -39.96,162.309 14.39,247.062 28.79,494.11 43.18,741.17 3.9,67.01 10.6,140.52 58.25,187.8 45.06,44.72 113.95,52.91 177.36,56.1 108.84,5.49 217.9,3.52 326.74,-0.94 46.3,-1.91 91.98,-5.64 138.71,-5.3 23.73,0.18 48.15,-0.87 71.03,-6.56 z"
         id="path254249" />
    </clipPath>
    <clipPath
       clipPathUnits="userSpaceOnUse"
       id="clipPath254263">
      <path
         d="m 3184.91,1101.76 c 0,-369.67 -299.67,-669.338 -669.33,-669.338 -369.67,0 -669.35,299.668 -669.35,669.338 0,369.67 299.68,669.34 669.35,669.34 369.66,0 669.33,-299.67 669.33,-669.34 z"
         id="path254261" />
    </clipPath>
    <clipPath
       clipPathUnits="userSpaceOnUse"
       id="clipPath254269">
      <path
         d="m 2851.56,1552.45 c 13.22,-3.28 25.9,-8.12 37.65,-15.17 52.48,-31.52 46.13,-94.09 50.71,-147.3 6.14,-71.28 12.28,-142.55 18.42,-213.83 16.51,-191.709 33.04,-383.568 37.53,-575.939 1.22,-52.141 0,-109 -32.88,-149.481 -36.62,-45.07 -100.37,-55.289 -158.21,-60.398 -200.32,-17.66 -401.88,-11.953 -602.88,-5.941 -44.26,1.328 -92.47,4.148 -125.65,33.48 -43.31,38.27 -43.32,104.609 -39.96,162.309 14.39,247.062 28.79,494.11 43.18,741.17 3.9,67.01 10.6,140.52 58.25,187.8 45.06,44.72 113.95,52.91 177.36,56.1 108.84,5.49 217.9,3.52 326.74,-0.94 46.3,-1.91 91.98,-5.64 138.71,-5.3 23.73,0.18 48.15,-0.87 71.03,-6.56 z"
         id="path254267" />
    </clipPath>
    <clipPath
       clipPathUnits="userSpaceOnUse"
       id="clipPath254275">
      <path
         d="m 2585.33,627.809 c 71.25,27 124.54,96.32 132.34,172.101 2.59,25.262 -1.06,54.07 -20.92,69.879 -16.65,13.27 -39.81,13.609 -61.1,13.352 -88.98,-1.09 -177.97,-2.18 -266.97,-3.27 -14.19,-0.172 -29.3,-0.621 -41.07,-8.562 -16.76,-11.321 -21.22,-33.969 -21.27,-54.188 -0.35,-141.371 147.51,-239.141 278.99,-189.312 z"
         id="path254273" />
    </clipPath>
    <clipPath
       clipPathUnits="userSpaceOnUse"
       id="clipPath254291">
      <path
         d="m 3184.91,1101.76 c 0,-369.67 -299.67,-669.338 -669.33,-669.338 -369.67,0 -669.35,299.668 -669.35,669.338 0,369.67 299.68,669.34 669.35,669.34 369.66,0 669.33,-299.67 669.33,-669.34 z"
         id="path254289" />
    </clipPath>
    <clipPath
       clipPathUnits="userSpaceOnUse"
       id="clipPath254297">
      <path
         d="m 2851.56,1552.45 c 13.22,-3.28 25.9,-8.12 37.65,-15.17 52.48,-31.52 46.13,-94.09 50.71,-147.3 6.14,-71.28 12.28,-142.55 18.42,-213.83 16.51,-191.709 33.04,-383.568 37.53,-575.939 1.22,-52.141 0,-109 -32.88,-149.481 -36.62,-45.07 -100.37,-55.289 -158.21,-60.398 -200.32,-17.66 -401.88,-11.953 -602.88,-5.941 -44.26,1.328 -92.47,4.148 -125.65,33.48 -43.31,38.27 -43.32,104.609 -39.96,162.309 14.39,247.062 28.79,494.11 43.18,741.17 3.9,67.01 10.6,140.52 58.25,187.8 45.06,44.72 113.95,52.91 177.36,56.1 108.84,5.49 217.9,3.52 326.74,-0.94 46.3,-1.91 91.98,-5.64 138.71,-5.3 23.73,0.18 48.15,-0.87 71.03,-6.56 z"
         id="path254295" />
    </clipPath>
    <clipPath
       clipPathUnits="userSpaceOnUse"
       id="clipPath253677">
      <path
         d="m 4735.01,4053.14 c 0,-369.67 -299.68,-669.34 -669.35,-669.34 -369.66,0 -669.34,299.67 -669.34,669.34 0,369.67 299.68,669.34 669.34,669.34 369.67,0 669.35,-299.67 669.35,-669.34 z"
         id="path253675" />
    </clipPath>
    <clipPath
       clipPathUnits="userSpaceOnUse"
       id="clipPath253749">
      <path
         d="m 4735.01,4053.14 c 0,-369.67 -299.68,-669.34 -669.35,-669.34 -369.66,0 -669.34,299.67 -669.34,669.34 0,369.67 299.68,669.34 669.34,669.34 369.67,0 669.35,-299.67 669.35,-669.34 z"
         id="path253747" />
    </clipPath>
    <clipPath
       clipPathUnits="userSpaceOnUse"
       id="clipPath253755">
      <path
         d="m 4364.81,4182.11 c -4.78,44.4 -13.58,88.51 -38.59,126.05 -39.18,58.78 -113.44,91.72 -187.44,98.61 -67.99,6.32 -135.35,-1.42 -197.13,-27.38 -59.4,-24.95 -109.54,-45.36 -146.21,-99.24 -32.97,-48.45 -45.07,-106.36 -55.01,-162.94 -20.66,-117.68 -34.75,-236.38 -41.19,-355.48 -5.7,-105.44 -22.16,-229.08 32.08,-326.39 7.44,-13.34 16.25,-26.02 26.5,-37.65 34.85,-39.55 84.89,-65.47 137.04,-81.63 97.69,-30.28 203.8,-28.77 305.62,-14.48 49.07,6.88 100.4,17.93 136.35,49.74 36.92,32.68 51.07,81.55 59,128.38 24.14,142.75 2.38,285.85 -8.9,428.27 -6.23,78.67 -12.47,157.33 -18.7,235.99 -0.99,12.65 -2.04,25.42 -3.42,38.15 z"
         id="path253753" />
    </clipPath>
    <clipPath
       clipPathUnits="userSpaceOnUse"
       id="clipPath253777">
      <path
         d="m 4735.01,4053.14 c 0,-369.67 -299.68,-669.34 -669.35,-669.34 -369.66,0 -669.34,299.67 -669.34,669.34 0,369.67 299.68,669.34 669.34,669.34 369.67,0 669.35,-299.67 669.35,-669.34 z"
         id="path253775" />
    </clipPath>
    <clipPath
       clipPathUnits="userSpaceOnUse"
       id="clipPath253947">
      <path
         d="m 1640.67,1101.76 c 0,-369.67 -299.67,-669.338 -669.338,-669.338 -369.668,0 -669.344,299.668 -669.344,669.338 0,369.67 299.676,669.34 669.344,669.34 369.668,0 669.338,-299.67 669.338,-669.34 z"
         id="path253945" />
    </clipPath>
    <clipPath
       clipPathUnits="userSpaceOnUse"
       id="clipPath253993">
      <path
         d="m 1640.67,1101.76 c 0,-369.67 -299.67,-669.338 -669.338,-669.338 -369.668,0 -669.344,299.668 -669.344,669.338 0,369.67 299.676,669.34 669.344,669.34 369.668,0 669.338,-299.67 669.338,-669.34 z"
         id="path253991" />
    </clipPath>
    <clipPath
       clipPathUnits="userSpaceOnUse"
       id="clipPath253999">
      <path
         d="m 804.895,1577.9 c -65.993,-15.99 -130.09,-49.54 -169.801,-104.62 -39.504,-54.79 -51.055,-124.49 -57.789,-191.71 -21.352,-213.26 -5.332,-428.289 10.691,-642.019 4.5,-59.949 11.02,-130.61 65.418,-167.063 30.348,-20.328 67.024,-28.789 103.152,-34.187 100.454,-15.012 202.672,-9.301 304.234,-10.59 51.51,-0.672 103.58,-3.102 154.06,7.187 38.92,7.942 78.33,24.344 107.17,52.364 24.84,24.14 32.82,71.82 40.48,104.59 17.19,73.57 15.61,150.046 13.93,225.589 -1.73,77.508 -3.45,155.02 -5.18,232.539 -1.57,70.6 2.14,142.56 -6.92,212.73 -11.94,92.41 -44.35,189.4 -110.54,257.5 -43.63,44.9 -108.73,58.45 -169.74,68.52 -89.962,14.83 -190.392,10.67 -279.165,-10.83 z"
         id="path253997" />
    </clipPath>
    <clipPath
       clipPathUnits="userSpaceOnUse"
       id="clipPath254047">
      <path
         d="m 1640.67,1101.76 c 0,-369.67 -299.67,-669.338 -669.338,-669.338 -369.668,0 -669.344,299.668 -669.344,669.338 0,369.67 299.676,669.34 669.344,669.34 369.668,0 669.338,-299.67 669.338,-669.34 z"
         id="path254045" />
    </clipPath>
    <clipPath
       clipPathUnits="userSpaceOnUse"
       id="clipPath254097">
      <path
         d="m 1640.67,1101.76 c 0,-369.67 -299.67,-669.338 -669.338,-669.338 -369.668,0 -669.344,299.668 -669.344,669.338 0,369.67 299.676,669.34 669.344,669.34 369.668,0 669.338,-299.67 669.338,-669.34 z"
         id="path254095" />
    </clipPath>
    <clipPath
       clipPathUnits="userSpaceOnUse"
       id="clipPath254103">
      <path
         d="m 872.078,1079.39 c -20.945,2.63 -43.5,5.91 -62.129,-4.02 -18.363,-9.78 -28.519,-30.6 -31.644,-51.18 -5.399,-35.542 7.207,-72.51 29.976,-100.319 22.77,-27.82 54.918,-46.961 89.059,-58.199 58.398,-19.223 125.7,-15.262 177.63,17.648 50.68,32.121 84.63,94.508 75.26,155.03 -3.88,25.08 -15.14,50.33 -43.51,49.36 -32.75,-1.12 -65.65,-10.23 -98.57,-12.37 -45.345,-2.95 -90.978,-1.61 -136.072,4.05 z"
         id="path254101" />
    </clipPath>
    <clipPath
       clipPathUnits="userSpaceOnUse"
       id="clipPath254235-3">
      <path
         d="m 3184.91,1101.76 c 0,-369.67 -299.67,-669.338 -669.33,-669.338 -369.67,0 -669.35,299.668 -669.35,669.338 0,369.67 299.68,669.34 669.35,669.34 369.66,0 669.33,-299.67 669.33,-669.34 z"
         id="path254233-6" />
    </clipPath>
    <clipPath
       clipPathUnits="userSpaceOnUse"
       id="clipPath254245-7">
      <path
         d="m 3184.91,1101.76 c 0,-369.67 -299.67,-669.338 -669.33,-669.338 -369.67,0 -669.35,299.668 -669.35,669.338 0,369.67 299.68,669.34 669.35,669.34 369.66,0 669.33,-299.67 669.33,-669.34 z"
         id="path254243-5" />
    </clipPath>
    <clipPath
       clipPathUnits="userSpaceOnUse"
       id="clipPath254251-3">
      <path
         d="m 2851.56,1552.45 c 13.22,-3.28 25.9,-8.12 37.65,-15.17 52.48,-31.52 46.13,-94.09 50.71,-147.3 6.14,-71.28 12.28,-142.55 18.42,-213.83 16.51,-191.709 33.04,-383.568 37.53,-575.939 1.22,-52.141 0,-109 -32.88,-149.481 -36.62,-45.07 -100.37,-55.289 -158.21,-60.398 -200.32,-17.66 -401.88,-11.953 -602.88,-5.941 -44.26,1.328 -92.47,4.148 -125.65,33.48 -43.31,38.27 -43.32,104.609 -39.96,162.309 14.39,247.062 28.79,494.11 43.18,741.17 3.9,67.01 10.6,140.52 58.25,187.8 45.06,44.72 113.95,52.91 177.36,56.1 108.84,5.49 217.9,3.52 326.74,-0.94 46.3,-1.91 91.98,-5.64 138.71,-5.3 23.73,0.18 48.15,-0.87 71.03,-6.56 z"
         id="path254249-5" />
    </clipPath>
    <clipPath
       clipPathUnits="userSpaceOnUse"
       id="clipPath254263-6">
      <path
         d="m 3184.91,1101.76 c 0,-369.67 -299.67,-669.338 -669.33,-669.338 -369.67,0 -669.35,299.668 -669.35,669.338 0,369.67 299.68,669.34 669.35,669.34 369.66,0 669.33,-299.67 669.33,-669.34 z"
         id="path254261-2" />
    </clipPath>
    <clipPath
       clipPathUnits="userSpaceOnUse"
       id="clipPath254269-9">
      <path
         d="m 2851.56,1552.45 c 13.22,-3.28 25.9,-8.12 37.65,-15.17 52.48,-31.52 46.13,-94.09 50.71,-147.3 6.14,-71.28 12.28,-142.55 18.42,-213.83 16.51,-191.709 33.04,-383.568 37.53,-575.939 1.22,-52.141 0,-109 -32.88,-149.481 -36.62,-45.07 -100.37,-55.289 -158.21,-60.398 -200.32,-17.66 -401.88,-11.953 -602.88,-5.941 -44.26,1.328 -92.47,4.148 -125.65,33.48 -43.31,38.27 -43.32,104.609 -39.96,162.309 14.39,247.062 28.79,494.11 43.18,741.17 3.9,67.01 10.6,140.52 58.25,187.8 45.06,44.72 113.95,52.91 177.36,56.1 108.84,5.49 217.9,3.52 326.74,-0.94 46.3,-1.91 91.98,-5.64 138.71,-5.3 23.73,0.18 48.15,-0.87 71.03,-6.56 z"
         id="path254267-1" />
    </clipPath>
    <clipPath
       clipPathUnits="userSpaceOnUse"
       id="clipPath254275-2">
      <path
         d="m 2585.33,627.809 c 71.25,27 124.54,96.32 132.34,172.101 2.59,25.262 -1.06,54.07 -20.92,69.879 -16.65,13.27 -39.81,13.609 -61.1,13.352 -88.98,-1.09 -177.97,-2.18 -266.97,-3.27 -14.19,-0.172 -29.3,-0.621 -41.07,-8.562 -16.76,-11.321 -21.22,-33.969 -21.27,-54.188 -0.35,-141.371 147.51,-239.141 278.99,-189.312 z"
         id="path254273-7" />
    </clipPath>
    <clipPath
       clipPathUnits="userSpaceOnUse"
       id="clipPath254291-0">
      <path
         d="m 3184.91,1101.76 c 0,-369.67 -299.67,-669.338 -669.33,-669.338 -369.67,0 -669.35,299.668 -669.35,669.338 0,369.67 299.68,669.34 669.35,669.34 369.66,0 669.33,-299.67 669.33,-669.34 z"
         id="path254289-9" />
    </clipPath>
    <clipPath
       clipPathUnits="userSpaceOnUse"
       id="clipPath254297-3">
      <path
         d="m 2851.56,1552.45 c 13.22,-3.28 25.9,-8.12 37.65,-15.17 52.48,-31.52 46.13,-94.09 50.71,-147.3 6.14,-71.28 12.28,-142.55 18.42,-213.83 16.51,-191.709 33.04,-383.568 37.53,-575.939 1.22,-52.141 0,-109 -32.88,-149.481 -36.62,-45.07 -100.37,-55.289 -158.21,-60.398 -200.32,-17.66 -401.88,-11.953 -602.88,-5.941 -44.26,1.328 -92.47,4.148 -125.65,33.48 -43.31,38.27 -43.32,104.609 -39.96,162.309 14.39,247.062 28.79,494.11 43.18,741.17 3.9,67.01 10.6,140.52 58.25,187.8 45.06,44.72 113.95,52.91 177.36,56.1 108.84,5.49 217.9,3.52 326.74,-0.94 46.3,-1.91 91.98,-5.64 138.71,-5.3 23.73,0.18 48.15,-0.87 71.03,-6.56 z"
         id="path254295-6" />
    </clipPath>
  </defs>
  <g
     inkscape:label="Capa 1"
     inkscape:groupmode="layer"
     id="layer1"
     transform="translate(-393.67177,-339.9564)">
    <g
       id="g260296"
       transform="translate(-1782.4921,-90.563476)">
      <g
         id="g260200"
         transform="matrix(0.13333333,0,0,-0.13333333,1930,666.66667)">
        <g
           id="g260198"
           clip-path="url(#clipPath254235-3)">
          <path
             d="m 3184.91,1101.76 c 0,-369.67 -299.67,-669.338 -669.33,-669.338 -369.67,0 -669.35,299.668 -669.35,669.338 0,369.67 299.68,669.34 669.35,669.34 369.66,0 669.33,-299.67 669.33,-669.34"
             style="fill:none;fill-opacity:1;fill-rule:nonzero;stroke:none"
             id="path260196" />
        </g>
      </g>
      <g
         id="g260210"
         transform="matrix(0.13333333,0,0,-0.13333333,1930,666.66667)">
        <g
           id="g260208"
           clip-path="url(#clipPath254245-7)">
          <g
             id="g260206"
             clip-path="url(#clipPath254251-3)">
            <path
               d="m 2851.56,1552.45 c 13.22,-3.28 25.9,-8.12 37.65,-15.17 52.48,-31.52 46.13,-94.09 50.71,-147.3 6.14,-71.28 12.28,-142.55 18.42,-213.83 16.51,-191.709 33.04,-383.568 37.53,-575.939 1.22,-52.141 0,-109 -32.88,-149.481 -36.62,-45.07 -100.37,-55.289 -158.21,-60.398 -200.32,-17.66 -401.88,-11.953 -602.88,-5.941 -44.26,1.328 -92.47,4.148 -125.65,33.48 -43.31,38.27 -43.32,104.609 -39.96,162.309 14.39,247.062 28.79,494.11 43.18,741.17 3.9,67.01 10.6,140.52 58.25,187.8 45.06,44.72 113.95,52.91 177.36,56.1 108.84,5.49 217.9,3.52 326.74,-0.94 46.3,-1.91 91.98,-5.64 138.71,-5.3 23.73,0.18 48.15,-0.87 71.03,-6.56"
               style="fill:#63c88e;fill-opacity:1;fill-rule:nonzero;stroke:none"
               id="path260202" />
            <path
               d="m 2426.41,1434.64 c -27.71,-17.57 -47.87,-44.25 -56.66,-84.68 -7.52,-34.53 -6.01,-70.3 -4.48,-105.61 0.86,-19.58 2,-40.14 12.31,-56.81 12.78,-20.66 37.01,-31.08 60.41,-37.58 40.35,-11.22 82.91,-14.48 124.5,-9.54 31.21,3.71 64.21,13.51 83.25,38.52 17.9,23.5 19.65,55.13 20.68,84.66 2.26,65.11 5.15,151.94 -61.56,187.33 -25.85,13.71 -56.43,16.36 -85.48,12.76 -35.42,-4.36 -67.4,-12.83 -92.97,-29.05"
               style="fill:#ffffff;fill-opacity:1;fill-rule:nonzero;stroke:none"
               id="path260204" />
          </g>
        </g>
      </g>
      <g
         id="g260226"
         transform="matrix(0.13333333,0,0,-0.13333333,1930,666.66667)">
        <g
           id="g260224"
           clip-path="url(#clipPath254263-6)">
          <g
             id="g260222"
             clip-path="url(#clipPath254269-9)">
            <g
               id="g260220"
               clip-path="url(#clipPath254275-2)">
              <path
                 d="m 2585.33,627.809 c 71.25,27 124.54,96.32 132.34,172.101 2.59,25.262 -1.06,54.07 -20.92,69.879 -16.65,13.27 -39.81,13.609 -61.1,13.352 -88.98,-1.09 -177.97,-2.18 -266.97,-3.27 -14.19,-0.172 -29.3,-0.621 -41.07,-8.562 -16.76,-11.321 -21.22,-33.969 -21.27,-54.188 -0.35,-141.371 147.51,-239.141 278.99,-189.312"
                 style="fill:#100f0d;fill-opacity:1;fill-rule:nonzero;stroke:none"
                 id="path260212" />
              <path
                 d="m 2367.03,802.551 c -2.5,-12.492 -4.68,-25.969 0.59,-37.563 6.74,-14.797 23.32,-21.976 38.48,-27.859 16.38,-6.348 36.6,-12.168 50.06,-0.879 10,8.391 11.75,22.84 12.78,35.852 3.35,42.16 6.69,84.32 10.04,126.457 1.03,12.961 2.03,26.273 -1.69,38.73 -13.87,46.473 -62.09,20.301 -77.43,-10 -18.42,-36.379 -24.9,-85.098 -32.83,-124.738"
                 style="fill:#fae94f;fill-opacity:1;fill-rule:nonzero;stroke:none"
                 id="path260214" />
              <path
                 d="m 2534.49,813.371 c 0.5,-18.211 1.93,-37.75 13.25,-52.019 11.18,-14.063 31.06,-20.122 48.51,-15.832 17.44,4.281 31.9,18.199 38.07,35.082 6.19,16.937 4.45,35.609 2.63,53.558 -1.93,19.102 -3.87,38.192 -5.81,57.289 -3.35,33.11 -36.71,111.261 -78.88,64.781 -29.07,-32.019 -18.82,-104.16 -17.77,-142.859"
                 style="fill:#fae94f;fill-opacity:1;fill-rule:nonzero;stroke:none"
                 id="path260216" />
              <path
                 d="m 2456.23,645.969 c 3.54,27.742 16.79,55.633 40.71,70.101 23.93,14.481 59.19,11.18 75.34,-11.66 9.1,-12.871 11.09,-29.351 11.79,-45.09 0.99,-21.922 0.03,-43.859 -0.93,-65.781 -0.51,-11.82 -1.17,-24.148 -6.97,-34.457 -10.21,-18.141 -34.09,-24.82 -54.58,-21.113 -16.46,2.98 -49.13,15.011 -58.93,29.722 -11.73,17.59 -8.98,58.301 -6.43,78.278"
                 style="fill:#fae94f;fill-opacity:1;fill-rule:nonzero;stroke:none"
                 id="path260218" />
            </g>
          </g>
        </g>
      </g>
      <g
         id="g260294"
         transform="matrix(0.13333333,0,0,-0.13333333,1930,666.66667)">
        <g
           id="g260292"
           clip-path="url(#clipPath254291-0)">
          <g
             id="g260290"
             clip-path="url(#clipPath254297-3)">
            <path
               d="m 2904.14,983.75 c -11.49,9.961 -31.37,22.98 -46.9,24.2 -8.41,0.66 -20.8,-2.16 -26.07,-9.161 -2.1,-2.801 -4.06,-22.777 -1.95,-21.508 17.65,10.61 43.16,-0.312 50.67,-19.5 7.51,-19.179 -1.28,-42.32 -17.69,-54.769 -16.41,-12.453 -38.72,-15.231 -58.91,-11.102 -20.18,4.129 -38.56,14.488 -55.47,26.262 -36.63,25.527 -67.81,58.117 -103.64,84.758 -33.39,24.83 -77.69,44.78 -115.59,27.61 -1.83,-0.83 -3.6,-1.75 -5.34,-2.74 -1.73,0.99 -3.5,1.91 -5.34,2.74 -37.9,17.17 -82.19,-2.78 -115.58,-27.61 -35.83,-26.641 -67.01,-59.231 -103.64,-84.758 -16.91,-11.774 -35.29,-22.133 -55.47,-26.262 -20.18,-4.129 -42.5,-1.351 -58.91,11.102 -16.41,12.449 -25.2,35.59 -17.69,54.769 7.51,19.188 33.02,30.11 50.67,19.5 2.11,-1.269 0.15,18.707 -1.95,21.508 -5.26,7.001 -17.65,9.821 -26.06,9.161 -15.54,-1.22 -35.42,-14.239 -46.91,-24.2 -27.57,-23.91 -41.46,-64.039 -33.4,-99.77 11.51,-51.011 60.58,-88.718 112.53,-94.832 51.94,-6.117 104.62,15.743 143.54,50.672 -6.02,-12.929 2.59,-29.461 15.8,-34.84 13.22,-5.378 28.86,-1.3 40.28,7.262 11.42,8.539 19.3,20.949 26.02,33.539 4.87,-20.14 26.43,-34.699 46.92,-31.699 12.05,1.77 22.68,9.477 29.19,19.727 6.52,-10.25 17.15,-17.957 29.2,-19.727 20.49,-3 42.05,11.559 46.92,31.699 6.71,-12.59 14.59,-25 26.02,-33.539 11.42,-8.562 27.06,-12.64 40.27,-7.262 13.22,5.379 21.83,21.911 15.8,34.84 38.93,-34.929 91.61,-56.789 143.55,-50.672 51.94,6.114 101.03,43.821 112.53,94.832 8.06,35.731 -5.83,75.86 -33.4,99.77"
               style="fill:#2d7b5a;fill-opacity:1;fill-rule:nonzero;stroke:none"
               id="path260228" />
            <path
               d="m 2614.29,1082.75 c -4.06,34.75 -35.43,60.96 -68.79,71.49 -31.23,9.85 -66.7,8.72 -95.21,-7.38 -57.61,-32.54 -62.47,-131.99 8.93,-150.508 59.03,-15.321 164.44,5.948 155.07,86.398"
               style="fill:#f25773;fill-opacity:1;fill-rule:nonzero;stroke:none"
               id="path260230" />
            <path
               d="m 2435.36,1034.08 c 4.31,-9.34 13.69,-16.49 23.98,-16.96 10.28,-0.46 20.77,6.52 23.23,16.51 1.92,7.77 -0.87,15.92 -4.56,23.01 -2.92,5.61 -6.53,11.01 -11.53,14.86 -5,3.87 -11.58,6.04 -17.74,4.67 -16.99,-3.77 -19.28,-29.31 -13.38,-42.09"
               style="fill:#be2b41;fill-opacity:1;fill-rule:nonzero;stroke:none"
               id="path260232" />
            <path
               d="m 2543.25,1061.79 c -5.39,-5.1 -9.71,-11.66 -10.75,-19.01 -1.05,-7.34 1.67,-15.45 7.81,-19.6 5.25,-3.54 12.26,-3.78 18.22,-1.67 5.95,2.11 10.97,6.32 15.13,11.1 4.12,4.73 7.58,10.22 9.06,16.33 1.5,6.11 0.83,12.91 -2.66,18.13 -10.38,15.48 -27,4 -36.81,-5.28"
               style="fill:#be2b41;fill-opacity:1;fill-rule:nonzero;stroke:none"
               id="path260234" />
            <path
               d="m 2514.01,1255.07 c 62.04,4.91 58.14,104.88 -3.7,101.25 -63.02,-3.69 -63.26,-106.54 3.7,-101.25"
               style="fill:#100f0d;fill-opacity:1;fill-rule:nonzero;stroke:none"
               id="path260236" />
            <path
               d="m 2029.08,1245.8 c 4.95,-11.75 15.88,-20.77 18.4,-33.26 3.92,-19.46 -14.08,-39.64 -6.86,-58.14 5.78,-14.78 24.46,-19.5 40.34,-19.16 54.76,1.19 106.39,41.53 120.77,94.39 11.98,44.04 -6.3,136.04 -65.61,135.91 -44.69,-0.1 -127.47,-71.22 -107.04,-119.74"
               style="fill:#48b073;fill-opacity:1;fill-rule:nonzero;stroke:none"
               id="path260238" />
            <path
               d="m 2101.76,1382.98 c 14.26,-10.44 34.2,-7.47 50.84,-1.53 18.66,6.66 36.19,16.48 51.62,28.92 9.38,7.57 18.37,16.75 21.21,28.47 11.48,47.39 -58.35,57.11 -89.13,43.53 -30.89,-13.63 -71.99,-71.95 -34.54,-99.39"
               style="fill:#48b073;fill-opacity:1;fill-rule:nonzero;stroke:none"
               id="path260240" />
            <path
               d="m 2226.45,1325.72 c 14.35,-9.82 34.05,-10.76 49.68,-3.13 44.51,21.75 27.46,81.89 -18.7,87.51 -44.57,5.42 -68.44,-58.75 -30.98,-84.38"
               style="fill:#48b073;fill-opacity:1;fill-rule:nonzero;stroke:none"
               id="path260242" />
            <path
               d="m 2226.49,1180.66 c 1.5,-7.98 4.28,-16.49 11.05,-20.98 10.25,-6.81 24.29,-1.17 33.63,6.82 24.15,20.67 45.47,86.14 4.5,102.69 -45.32,18.32 -54.07,-62.34 -49.18,-88.53"
               style="fill:#48b073;fill-opacity:1;fill-rule:nonzero;stroke:none"
               id="path260244" />
            <path
               d="m 2125,1090.77 c 6.84,-39.29 1.28,-80.63 -15.67,-116.731 -12.67,-26.93 -39.74,-58.648 -73.5,-47.41 -27.63,9.203 -46.35,50.301 -43.3,77.941 4.55,41.25 119.9,158.46 132.47,86.2"
               style="fill:#48b073;fill-opacity:1;fill-rule:nonzero;stroke:none"
               id="path260246" />
            <path
               d="m 2172.06,1066.23 c 5.47,-15.43 19.48,-27.76 35.65,-30.28 16.18,-2.51 33.74,5.44 41.7,19.74 13.81,24.82 -4.45,70.66 -33.53,76.75 -33.63,7.04 -53.23,-39.71 -43.82,-66.21"
               style="fill:#48b073;fill-opacity:1;fill-rule:nonzero;stroke:none"
               id="path260248" />
            <path
               d="m 2030.9,609.281 c -35.21,32.699 -46.67,72.68 -34.46,117.867 7.3,27.012 35.06,84.512 69.72,81.563 22.82,-1.941 20.62,-25.09 26.18,-42.711 8.75,-27.73 20.13,-54.441 22.68,-83.73 2.17,-24.93 -2.44,-51.36 -17.8,-71.098 -7.37,-9.461 -17.78,-17.434 -29.73,-18.391 -13.74,-1.09 -26.5,7.117 -36.59,16.5"
               style="fill:#48b073;fill-opacity:1;fill-rule:nonzero;stroke:none"
               id="path260250" />
            <path
               d="m 2233.38,626.199 c 25.56,38.231 -22.28,162.5 -54.82,101.871 -12.73,-23.738 -21.22,-65.031 -13.47,-91.09 9.75,-32.789 48.55,-40.32 68.29,-10.781"
               style="fill:#48b073;fill-opacity:1;fill-rule:nonzero;stroke:none"
               id="path260252" />
            <path
               d="m 2122.67,438.852 c 8.21,-11.411 18.61,-21.09 26.98,-32.383 8.37,-11.278 14.79,-25.02 13.17,-38.981 -2.4,-20.699 -22.77,-36.109 -43.53,-37.968 -20.76,-1.848 -41.14,7.289 -57.9,19.679 -38.41,28.422 -69.1,84.41 -64.72,133.453 2.63,29.368 43.04,72.336 72.42,76.227 20.66,2.73 26.65,-8.547 29.48,-26.59 5.25,-33.449 3.05,-64.168 24.1,-93.437"
               style="fill:#48b073;fill-opacity:1;fill-rule:nonzero;stroke:none"
               id="path260254" />
            <path
               d="m 2139.42,518.77 c 0.18,-23.309 11.01,-45.059 22.03,-65.598 7.45,-13.863 16.51,-28.82 31.57,-33.383 14.45,-4.379 30.73,2.922 39.8,14.992 9.07,12.071 11.81,27.918 10.86,42.981 -2,31.758 -20.29,60.16 -46.15,77.968 -32.22,22.18 -58.4,2.04 -58.11,-36.96"
               style="fill:#48b073;fill-opacity:1;fill-rule:nonzero;stroke:none"
               id="path260256" />
            <path
               d="m 2130.37,807.102 c 24.68,10.32 51.93,-37.102 34.61,-55.262 -7.12,-7.469 -19.85,-7.508 -28.43,-1.77 -14.4,9.66 -27.82,46.16 -7.5,56.41 0.44,0.231 0.88,0.43 1.32,0.622"
               style="fill:#48b073;fill-opacity:1;fill-rule:nonzero;stroke:none"
               id="path260258" />
            <path
               d="m 2232.82,548.621 c 4.83,-21.891 30.78,-35.98 52.17,-29.269 21.4,6.687 34.67,31.73 29.47,53.546 -14.71,61.653 -93.48,29.403 -81.64,-24.277"
               style="fill:#48b073;fill-opacity:1;fill-rule:nonzero;stroke:none"
               id="path260260" />
            <path
               d="m 2217.1,1545.48 c -4.48,-5.98 -8.58,-12.51 -10.01,-19.86 -1.42,-7.33 0.29,-15.65 5.91,-20.58 8.63,-7.58 22.12,-4.61 32.86,-8.67 15.04,-5.68 21.31,-23.27 32.9,-34.41 15.57,-14.95 41.47,-16.68 60.02,-5.64 18.55,11.04 29.27,33.13 28.66,54.72 -0.61,21.58 -11.71,42.18 -27.95,56.41 -44.45,38.98 -89.58,21.71 -122.39,-21.97"
               style="fill:#48b073;fill-opacity:1;fill-rule:nonzero;stroke:none"
               id="path260262" />
            <path
               d="m 3020.33,1245.8 c -4.95,-11.75 -15.88,-20.77 -18.4,-33.26 -3.92,-19.46 14.08,-39.64 6.85,-58.14 -5.77,-14.78 -24.45,-19.5 -40.33,-19.16 -54.77,1.19 -106.4,41.53 -120.77,94.39 -11.99,44.04 6.29,136.04 65.6,135.91 44.7,-0.1 127.48,-71.22 107.05,-119.74"
               style="fill:#48b073;fill-opacity:1;fill-rule:nonzero;stroke:none"
               id="path260264" />
            <path
               d="m 2947.65,1382.98 c -14.25,-10.44 -34.2,-7.47 -50.84,-1.53 -18.67,6.66 -36.2,16.48 -51.61,28.92 -9.39,7.57 -18.38,16.75 -21.22,28.47 -11.48,47.39 58.34,57.11 89.13,43.53 30.88,-13.63 71.99,-71.95 34.54,-99.39"
               style="fill:#48b073;fill-opacity:1;fill-rule:nonzero;stroke:none"
               id="path260266" />
            <path
               d="m 2822.97,1325.72 c -14.36,-9.82 -34.06,-10.76 -49.69,-3.13 -44.52,21.75 -27.46,81.89 18.7,87.51 44.57,5.42 68.43,-58.75 30.99,-84.38"
               style="fill:#48b073;fill-opacity:1;fill-rule:nonzero;stroke:none"
               id="path260268" />
            <path
               d="m 2822.91,1180.66 c -1.49,-7.98 -4.28,-16.49 -11.05,-20.98 -10.24,-6.81 -24.27,-1.17 -33.62,6.82 -24.15,20.67 -45.47,86.14 -4.51,102.69 45.33,18.32 54.08,-62.34 49.18,-88.53"
               style="fill:#48b073;fill-opacity:1;fill-rule:nonzero;stroke:none"
               id="path260270" />
            <path
               d="m 2924.4,1090.77 c -6.83,-39.29 -1.27,-80.63 15.69,-116.731 12.65,-26.93 39.72,-58.648 73.48,-47.41 27.64,9.203 46.35,50.301 43.31,77.941 -4.56,41.25 -119.9,158.46 -132.48,86.2"
               style="fill:#48b073;fill-opacity:1;fill-rule:nonzero;stroke:none"
               id="path260272" />
            <path
               d="m 2877.35,1066.23 c -5.47,-15.43 -19.48,-27.76 -35.66,-30.28 -16.17,-2.51 -33.73,5.44 -41.69,19.74 -13.82,24.82 4.44,70.66 33.53,76.75 33.63,7.04 53.23,-39.71 43.82,-66.21"
               style="fill:#48b073;fill-opacity:1;fill-rule:nonzero;stroke:none"
               id="path260274" />
            <path
               d="m 3018.52,609.281 c 35.2,32.699 46.66,72.68 34.45,117.867 -7.31,27.012 -35.06,84.512 -69.73,81.563 -22.81,-1.941 -20.61,-25.09 -26.18,-42.711 -8.74,-27.73 -20.13,-54.441 -22.67,-83.73 -2.16,-24.93 2.44,-51.36 17.8,-71.098 7.37,-9.461 17.77,-17.434 29.73,-18.391 13.73,-1.09 26.5,7.117 36.6,16.5"
               style="fill:#48b073;fill-opacity:1;fill-rule:nonzero;stroke:none"
               id="path260276" />
            <path
               d="m 2816.03,626.199 c -25.56,38.231 22.28,162.5 54.82,101.871 12.73,-23.738 21.22,-65.031 13.48,-91.09 -9.76,-32.789 -48.56,-40.32 -68.3,-10.781"
               style="fill:#48b073;fill-opacity:1;fill-rule:nonzero;stroke:none"
               id="path260278" />
            <path
               d="m 2926.74,438.852 c -8.21,-11.411 -18.61,-21.09 -26.98,-32.383 -8.37,-11.278 -14.79,-25.02 -13.18,-38.981 2.4,-20.699 22.79,-36.109 43.54,-37.968 20.76,-1.848 41.14,7.289 57.9,19.679 38.41,28.422 69.09,84.41 64.71,133.453 -2.62,29.368 -43.03,72.336 -72.42,76.227 -20.65,2.73 -26.64,-8.547 -29.47,-26.59 -5.25,-33.449 -3.05,-64.168 -24.1,-93.437"
               style="fill:#48b073;fill-opacity:1;fill-rule:nonzero;stroke:none"
               id="path260280" />
            <path
               d="m 2909.98,518.77 c -0.18,-23.309 -11.01,-45.059 -22.02,-65.598 -7.44,-13.863 -16.5,-28.82 -31.57,-33.383 -14.46,-4.379 -30.74,2.922 -39.8,14.992 -9.07,12.071 -11.81,27.918 -10.87,42.981 2.01,31.758 20.3,60.16 46.15,77.968 32.22,22.18 58.41,2.04 58.11,-36.96"
               style="fill:#48b073;fill-opacity:1;fill-rule:nonzero;stroke:none"
               id="path260282" />
            <path
               d="m 2919.04,807.102 c -24.68,10.32 -51.93,-37.102 -34.62,-55.262 7.12,-7.469 19.87,-7.508 28.43,-1.77 14.41,9.66 27.82,46.16 7.51,56.41 -0.44,0.231 -0.88,0.43 -1.32,0.622"
               style="fill:#48b073;fill-opacity:1;fill-rule:nonzero;stroke:none"
               id="path260284" />
            <path
               d="m 2816.59,548.621 c -4.83,-21.891 -30.78,-35.98 -52.18,-29.269 -21.39,6.687 -34.66,31.73 -29.46,53.546 14.71,61.653 93.48,29.403 81.64,-24.277"
               style="fill:#48b073;fill-opacity:1;fill-rule:nonzero;stroke:none"
               id="path260286" />
            <path
               d="m 2832.3,1545.48 c 4.5,-5.98 8.59,-12.51 10.01,-19.86 1.43,-7.33 -0.28,-15.65 -5.9,-20.58 -8.63,-7.58 -22.12,-4.61 -32.87,-8.67 -15.03,-5.68 -21.3,-23.27 -32.89,-34.41 -15.57,-14.95 -41.47,-16.68 -60.03,-5.64 -18.55,11.04 -29.26,33.13 -28.65,54.72 0.61,21.58 11.71,42.18 27.94,56.41 44.45,38.98 89.59,21.71 122.39,-21.97"
               style="fill:#48b073;fill-opacity:1;fill-rule:nonzero;stroke:none"
               id="path260288" />
          </g>
        </g>
      </g>
    </g>
  </g>
</svg>
