<?xml version="1.0" encoding="UTF-8" standalone="no"?>
<!-- Created with Inkscape (http://www.inkscape.org/) -->

<svg
   width="178.49094"
   height="178.49066"
   viewBox="0 0 178.49094 178.49066"
   version="1.1"
   id="svg5"
   inkscape:version="1.2.2 (b0a8486541, 2022-12-01)"
   inkscape:export-filename="card_red.png"
   inkscape:export-xdpi="96"
   inkscape:export-ydpi="96"
   sodipodi:docname="avatar_2.svg"
   xmlns:inkscape="http://www.inkscape.org/namespaces/inkscape"
   xmlns:sodipodi="http://sodipodi.sourceforge.net/DTD/sodipodi-0.dtd"
   xmlns="http://www.w3.org/2000/svg"
   xmlns:svg="http://www.w3.org/2000/svg">
  <sodipodi:namedview
     id="namedview7"
     pagecolor="#677178"
     bordercolor="#171c20"
     borderopacity="1"
     inkscape:showpageshadow="false"
     inkscape:pageopacity="0"
     inkscape:pagecheckerboard="0"
     inkscape:deskcolor="#25292d"
     inkscape:document-units="px"
     showgrid="false"
     showborder="false"
     borderlayer="true"
     inkscape:zoom="1.6682482"
     inkscape:cx="75.528331"
     inkscape:cy="89.914679"
     inkscape:window-width="1920"
     inkscape:window-height="997"
     inkscape:window-x="0"
     inkscape:window-y="0"
     inkscape:window-maximized="1"
     inkscape:current-layer="layer1" />
  <defs
     id="defs2">
    <clipPath
       clipPathUnits="userSpaceOnUse"
       id="clipPath55488">
      <path
         id="path55490"
         style="fill:#008080;stroke-width:0.133333"
         d="m 3456.5313,314.00653 c -0.741,0 -1.3656,0.62892 -1.3656,1.47932 v 37.74399 c 0,0.8504 0.6246,1.47932 1.3656,1.47932 h 22.0219 c 0.74,0 1.3651,-0.62902 1.3651,-1.47932 v -37.74399 c 0,-0.8503 -0.6251,-1.47931 -1.3651,-1.47932 z" />
    </clipPath>
    <clipPath
       clipPathUnits="userSpaceOnUse"
       id="clipPath287942">
      <path
         id="path287940"
         style="fill:#008080;stroke-width:0.133333"
         d="m 3456.5313,314.00653 c -0.741,0 -1.3656,0.62892 -1.3656,1.47932 v 37.74399 c 0,0.8504 0.6246,1.47932 1.3656,1.47932 h 22.0219 c 0.74,0 1.3651,-0.62902 1.3651,-1.47932 v -37.74399 c 0,-0.8503 -0.6251,-1.47931 -1.3651,-1.47932 z" />
    </clipPath>
    <clipPath
       clipPathUnits="userSpaceOnUse"
       id="clipPath253439">
      <path
         d="m 1640.67,4053.14 c 0,-369.67 -299.67,-669.34 -669.338,-669.34 -369.668,0 -669.344,299.67 -669.344,669.34 0,369.67 299.676,669.34 669.344,669.34 369.668,0 669.338,-299.67 669.338,-669.34 z"
         id="path253437" />
    </clipPath>
    <clipPath
       clipPathUnits="userSpaceOnUse"
       id="clipPath253449">
      <path
         d="m 1640.67,4053.14 c 0,-369.67 -299.67,-669.34 -669.338,-669.34 -369.668,0 -669.344,299.67 -669.344,669.34 0,369.67 299.676,669.34 669.344,669.34 369.668,0 669.338,-299.67 669.338,-669.34 z"
         id="path253447" />
    </clipPath>
    <clipPath
       clipPathUnits="userSpaceOnUse"
       id="clipPath253455">
      <path
         d="m 945.746,4543.82 c -19.168,-1.89 -37.973,-4.86 -56.137,-8.88 -101.777,-22.54 -211.937,-85.77 -269.98,-177.9 -25.551,-40.56 -41.113,-75.67 -53.512,-122.94 -13.297,-50.68 -23.301,-102.27 -30.73,-154.22 -20.762,-145.16 -23.926,-294.07 -20.938,-440.2 0.985,-48.05 2.211,-97.38 19.774,-141.82 29.82,-75.43 96.011,-88.87 164.843,-105.47 103.047,-24.87 212.493,-16.43 317.354,-15.72 100.63,0.68 206.85,-8.31 303.7,24 73.35,24.47 91.17,120.45 101.03,191.44 13.93,100.31 5.17,200.78 -3.28,301.07 -8.84,104.91 -23.54,209.28 -44.03,312.41 -16.32,82.11 -38.04,166.97 -91.8,229.37 -37.6,43.63 -88.71,73.11 -142.62,89.97 -61.92,19.37 -129.42,25.23 -193.674,18.89 z"
         id="path253453" />
    </clipPath>
    <clipPath
       clipPathUnits="userSpaceOnUse"
       id="clipPath253513">
      <path
         d="m 1640.67,4053.14 c 0,-369.67 -299.67,-669.34 -669.338,-669.34 -369.668,0 -669.344,299.67 -669.344,669.34 0,369.67 299.676,669.34 669.344,669.34 369.668,0 669.338,-299.67 669.338,-669.34 z"
         id="path253511" />
    </clipPath>
    <clipPath
       clipPathUnits="userSpaceOnUse"
       id="clipPath254367">
      <path
         d="m 4735.01,2566.69 c 0,-369.67 -299.68,-669.34 -669.35,-669.34 -369.66,0 -669.34,299.67 -669.34,669.34 0,369.67 299.68,669.35 669.34,669.35 369.67,0 669.35,-299.68 669.35,-669.35 z"
         id="path254365" />
    </clipPath>
    <clipPath
       clipPathUnits="userSpaceOnUse"
       id="clipPath254377">
      <path
         d="m 4735.01,2566.69 c 0,-369.67 -299.68,-669.34 -669.35,-669.34 -369.66,0 -669.34,299.67 -669.34,669.34 0,369.67 299.68,669.35 669.34,669.35 369.67,0 669.35,-299.68 669.35,-669.35 z"
         id="path254375" />
    </clipPath>
    <clipPath
       clipPathUnits="userSpaceOnUse"
       id="clipPath254383">
      <path
         d="m 4497.48,2559.78 c -15.2,71.11 -35.51,141.89 -70.62,205.56 -35.13,63.67 -86.19,120.23 -151.46,152.29 14.17,9.75 8.07,34.09 -6.79,42.75 -14.86,8.66 -33.4,6.48 -50.42,4.03 15.13,11.65 15.61,37.7 0.92,49.89 -13.39,11.12 -35.74,7.68 -46.15,-5.89 9.05,14.97 20.1,42.48 3.39,56.13 -17.59,14.37 -56.47,-2.94 -71.77,-13.7 4.88,10.51 4.68,23.19 -2.06,32.9 -6.77,9.73 -19.38,15.02 -31.06,13.06 -13.36,-2.26 -24.16,-13.3 -28.7,-26.06 -4.55,-12.77 -3.59,-26.94 -0.14,-40.04 -9.77,6.15 -18.12,14.26 -27,21.63 -8.89,7.37 -18.65,14.17 -29.85,16.99 -11.19,2.81 -24.13,0.98 -32.36,-7.1 -13.1,-12.86 -4.9,-40.96 4.96,-53.81 -10.42,13.57 -32.76,17.01 -46.15,5.89 -14.69,-12.19 -14.21,-38.24 0.91,-49.89 -17.02,2.45 -35.55,4.63 -50.42,-4.03 -14.86,-8.66 -20.96,-33 -6.79,-42.75 -65.27,-32.06 -116.32,-88.62 -151.45,-152.29 -35.12,-63.67 -55.42,-134.45 -70.62,-205.56 -38.3,-179.1 -45.87,-363.33 -45.67,-546.49 0.04,-42.85 1.61,-89.09 27.76,-123.06 29.7,-38.59 82.27,-50.06 130.58,-56.21 107.96,-13.72 217.06,-13.06 325.68,-11.23 104.45,1.76 208.69,-1.97 312.6,11.23 48.32,6.15 100.88,17.62 130.59,56.21 26.14,33.97 27.71,80.21 27.75,123.06 0.21,183.16 -7.36,367.39 -45.66,546.49 z"
         id="path254381" />
    </clipPath>
    <clipPath
       clipPathUnits="userSpaceOnUse"
       id="clipPath254417">
      <path
         d="m 4735.01,2566.69 c 0,-369.67 -299.68,-669.34 -669.35,-669.34 -369.66,0 -669.34,299.67 -669.34,669.34 0,369.67 299.68,669.35 669.34,669.35 369.67,0 669.35,-299.68 669.35,-669.35 z"
         id="path254415" />
    </clipPath>
    <clipPath
       clipPathUnits="userSpaceOnUse"
       id="clipPath254445">
      <path
         d="m 4735.01,2566.69 c 0,-369.67 -299.68,-669.34 -669.35,-669.34 -369.66,0 -669.34,299.67 -669.34,669.34 0,369.67 299.68,669.35 669.34,669.35 369.67,0 669.35,-299.68 669.35,-669.35 z"
         id="path254443" />
    </clipPath>
    <clipPath
       clipPathUnits="userSpaceOnUse"
       id="clipPath254451">
      <path
         d="m 4182.19,2287.06 c -39.7,-20.75 -84.81,-29.58 -129.57,-31.2 -38.6,-1.41 -77.86,2.49 -113.92,16.34 -36.05,13.85 -68.8,38.26 -88.29,71.6 -5.1,8.71 -9.46,18.2 -17.15,24.75 -7.68,6.54 -20.1,9.02 -27.63,2.3 -4,-3.57 -5.84,-8.94 -7.27,-14.1 -18.02,-64.82 3.1,-137.64 49.03,-186.78 40.54,-43.37 96.06,-66.54 154.15,-72.01 30.95,-2.91 59.52,-6.65 90.73,-2.1 30.16,4.4 59.61,13.82 86.65,27.92 11.34,5.92 22.27,12.67 32.62,20.19 37.02,26.91 66.59,63.72 85.71,105.24 9.56,20.76 16.53,42.72 20.52,65.24 3.8,21.45 8.81,47.59 -6.68,65.97 -7.45,8.85 -25.09,15.22 -35.35,7.13 -9.38,-7.41 -14.11,-27.42 -21.37,-37.94 -18.31,-26.46 -43.76,-47.7 -72.18,-62.55 z"
         id="path254449" />
    </clipPath>
    <clipPath
       clipPathUnits="userSpaceOnUse"
       id="clipPath254479">
      <path
         d="m 4735.01,2566.69 c 0,-369.67 -299.68,-669.34 -669.35,-669.34 -369.66,0 -669.34,299.67 -669.34,669.34 0,369.67 299.68,669.35 669.34,669.35 369.67,0 669.35,-299.68 669.35,-669.35 z"
         id="path254477" />
    </clipPath>
  </defs>
  <g
     inkscape:label="Capa 1"
     inkscape:groupmode="layer"
     id="layer1"
     transform="translate(-393.67177,-339.9564)">
    <g
       id="g260398"
       transform="translate(-1989.1714,104.76105)">
      <g
         id="g260302"
         transform="matrix(0.13333333,0,0,-0.13333333,1930,666.66667)">
        <g
           id="g260300"
           clip-path="url(#clipPath254367)">
          <path
             d="m 4735.01,2566.69 c 0,-369.67 -299.68,-669.34 -669.35,-669.34 -369.66,0 -669.34,299.67 -669.34,669.34 0,369.67 299.68,669.35 669.34,669.35 369.67,0 669.35,-299.68 669.35,-669.35"
             style="fill:none;fill-opacity:1;fill-rule:nonzero;stroke:none"
             id="path260298" />
        </g>
      </g>
      <g
         id="g260334"
         transform="matrix(0.13333333,0,0,-0.13333333,1930,666.66667)">
        <g
           id="g260332"
           clip-path="url(#clipPath254377)">
          <g
             id="g260330"
             clip-path="url(#clipPath254383)">
            <path
               d="m 4497.48,2559.78 c -15.2,71.11 -35.51,141.89 -70.62,205.56 -35.13,63.67 -86.19,120.23 -151.46,152.29 14.17,9.75 8.07,34.09 -6.79,42.75 -14.86,8.66 -33.4,6.48 -50.42,4.03 15.13,11.65 15.61,37.7 0.92,49.89 -13.39,11.12 -35.74,7.68 -46.15,-5.89 9.05,14.97 20.1,42.48 3.39,56.13 -17.59,14.37 -56.47,-2.94 -71.77,-13.7 4.88,10.51 4.68,23.19 -2.06,32.9 -6.77,9.73 -19.38,15.02 -31.06,13.06 -13.36,-2.26 -24.16,-13.3 -28.7,-26.06 -4.55,-12.77 -3.59,-26.94 -0.14,-40.04 -9.77,6.15 -18.12,14.26 -27,21.63 -8.89,7.37 -18.65,14.17 -29.85,16.99 -11.19,2.81 -24.13,0.98 -32.36,-7.1 -13.1,-12.86 -4.9,-40.96 4.96,-53.81 -10.42,13.57 -32.76,17.01 -46.15,5.89 -14.69,-12.19 -14.21,-38.24 0.91,-49.89 -17.02,2.45 -35.55,4.63 -50.42,-4.03 -14.86,-8.66 -20.96,-33 -6.79,-42.75 -65.27,-32.06 -116.32,-88.62 -151.45,-152.29 -35.12,-63.67 -55.42,-134.45 -70.62,-205.56 -38.3,-179.1 -45.87,-363.33 -45.67,-546.49 0.04,-42.85 1.61,-89.09 27.76,-123.06 29.7,-38.59 82.27,-50.06 130.58,-56.21 107.96,-13.72 217.06,-13.06 325.68,-11.23 104.45,1.76 208.69,-1.97 312.6,11.23 48.32,6.15 100.88,17.62 130.59,56.21 26.14,33.97 27.71,80.21 27.75,123.06 0.21,183.16 -7.36,367.39 -45.66,546.49"
               style="fill:#61cce7;fill-opacity:1;fill-rule:nonzero;stroke:none"
               id="path260304" />
            <path
               d="m 3741.41,2585.54 c 2.53,-2.07 5.27,-4.67 5.08,-7.93 -0.23,-4.19 -4.96,-6.4 -8.96,-7.64 -38.58,-12.04 -78.78,-18.88 -119.16,-20.27 -8.79,-0.3 -18.99,0.31 -24.21,7.38 -3.47,4.7 -3.68,10.99 -3.5,16.83 0.81,26.03 5.29,94.38 43.78,83.79 37.24,-10.25 77.68,-48.09 106.97,-72.16"
               style="fill:#3767ba;fill-opacity:1;fill-rule:nonzero;stroke:none"
               id="path260306" />
            <path
               d="m 3742.58,2472.78 c 6.38,-1.96 14.24,-6.21 12.97,-12.76 -0.98,-5.05 -6.84,-7.24 -11.82,-8.48 -42.41,-10.58 -85.79,-17.29 -129.41,-20.03 -15.2,-0.94 -32.38,-0.69 -43.03,10.19 -21.77,22.23 -1.91,72.83 28.99,71.76 21.63,-0.75 47.28,-12.66 68.07,-18.64 24.81,-7.11 49.55,-14.47 74.23,-22.04"
               style="fill:#3767ba;fill-opacity:1;fill-rule:nonzero;stroke:none"
               id="path260308" />
            <path
               d="m 3724.49,2329.75 c 5.41,-2.36 11.44,-5.6 12.65,-11.38 1.77,-8.51 -7.82,-14.63 -15.92,-17.79 -47.58,-18.58 -98.02,-29.83 -148.97,-33.24 -7.36,-0.48 -15.57,-0.53 -21.05,4.39 -4.51,4.04 -5.96,10.45 -6.69,16.46 -3.62,29.71 1.01,76.92 38.22,78.21 46.06,1.59 100.25,-18.59 141.76,-36.65"
               style="fill:#3767ba;fill-opacity:1;fill-rule:nonzero;stroke:none"
               id="path260310" />
            <path
               d="m 3760.74,2175.15 c 6.62,-1.03 13.53,-2.27 18.81,-6.38 5.27,-4.11 8.2,-12.06 4.61,-17.71 -2.68,-4.2 -7.91,-5.85 -12.71,-7.2 -65.41,-18.35 -130.81,-36.69 -196.21,-55.03 -35.33,-9.91 -60.75,3.1 -56.63,42.29 2.25,21.35 10.77,38.51 31.14,47.21 28.08,12 65.89,7.7 95.49,7.04 38.68,-0.87 77.29,-4.28 115.5,-10.22"
               style="fill:#3767ba;fill-opacity:1;fill-rule:nonzero;stroke:none"
               id="path260312" />
            <path
               d="m 3735.83,2045.21 c 25.63,6.29 54.47,10.9 76.97,-2.9 -44.77,-51.27 -89.55,-102.56 -134.32,-153.84 -17.39,-19.91 -37.17,-41.15 -63.39,-44.45 -55.32,-6.98 -112.23,72.77 -74.54,119.43 20.43,25.3 60.7,36.89 89.89,48.33 34.34,13.45 69.57,24.65 105.39,33.43"
               style="fill:#3767ba;fill-opacity:1;fill-rule:nonzero;stroke:none"
               id="path260314" />
            <path
               d="m 3726.11,2705.14 c 10.95,3.75 17.78,10.12 13.67,20.49 -6.56,16.55 -44.04,29.33 -59.21,35.59 -5.3,2.18 -11.18,4.12 -16.65,2.44 -8.49,-2.59 -12.16,-12.31 -14.69,-20.8 -3.03,-10.17 -5.82,-22 0.23,-30.71 4.4,-6.32 12.33,-9.11 19.91,-10.47 10.09,-1.81 38.89,-2.66 56.74,3.46"
               style="fill:#3767ba;fill-opacity:1;fill-rule:nonzero;stroke:none"
               id="path260316" />
            <path
               d="m 4384.66,2585.54 c -2.53,-2.07 -5.27,-4.67 -5.09,-7.93 0.24,-4.19 4.97,-6.4 8.97,-7.64 38.58,-12.04 78.77,-18.88 119.16,-20.27 8.78,-0.3 18.98,0.31 24.2,7.38 3.48,4.7 3.69,10.99 3.5,16.83 -0.81,26.03 -5.28,94.38 -43.78,83.79 -37.24,-10.25 -77.67,-48.09 -106.96,-72.16"
               style="fill:#3767ba;fill-opacity:1;fill-rule:nonzero;stroke:none"
               id="path260318" />
            <path
               d="m 4383.49,2472.78 c -6.39,-1.96 -14.24,-6.21 -12.97,-12.76 0.97,-5.05 6.83,-7.24 11.82,-8.48 42.41,-10.58 85.79,-17.29 129.41,-20.03 15.19,-0.94 32.37,-0.69 43.04,10.19 21.75,22.23 1.9,72.83 -29,71.76 -21.64,-0.75 -47.28,-12.66 -68.08,-18.64 -24.8,-7.11 -49.55,-14.47 -74.22,-22.04"
               style="fill:#3767ba;fill-opacity:1;fill-rule:nonzero;stroke:none"
               id="path260320" />
            <path
               d="m 4401.57,2329.75 c -5.41,-2.36 -11.43,-5.6 -12.63,-11.38 -1.78,-8.51 7.81,-14.63 15.91,-17.79 47.58,-18.58 98.01,-29.83 148.98,-33.24 7.35,-0.48 15.55,-0.53 21.03,4.39 4.52,4.04 5.97,10.45 6.7,16.46 3.62,29.71 -1.01,76.92 -38.23,78.21 -46.04,1.59 -100.24,-18.59 -141.76,-36.65"
               style="fill:#3767ba;fill-opacity:1;fill-rule:nonzero;stroke:none"
               id="path260322" />
            <path
               d="m 4365.32,2175.15 c -6.61,-1.03 -13.52,-2.27 -18.8,-6.38 -5.28,-4.11 -8.21,-12.06 -4.62,-17.71 2.68,-4.2 7.91,-5.85 12.72,-7.2 65.4,-18.35 130.8,-36.69 196.2,-55.03 35.33,-9.91 60.76,3.1 56.64,42.29 -2.25,21.35 -10.78,38.51 -31.13,47.21 -28.09,12 -65.9,7.7 -95.51,7.04 -38.67,-0.87 -77.28,-4.28 -115.5,-10.22"
               style="fill:#3767ba;fill-opacity:1;fill-rule:nonzero;stroke:none"
               id="path260324" />
            <path
               d="m 4390.23,2045.21 c -25.62,6.29 -54.47,10.9 -76.96,-2.9 44.78,-51.27 89.55,-102.56 134.33,-153.84 17.37,-19.91 37.17,-41.15 63.38,-44.45 55.32,-6.98 112.23,72.77 74.54,119.43 -20.43,25.3 -60.71,36.89 -89.89,48.33 -34.34,13.45 -69.58,24.65 -105.4,33.43"
               style="fill:#3767ba;fill-opacity:1;fill-rule:nonzero;stroke:none"
               id="path260326" />
            <path
               d="m 4399.95,2705.14 c -10.95,3.75 -17.77,10.12 -13.66,20.49 6.55,16.55 44.03,29.33 59.21,35.59 5.3,2.18 11.18,4.12 16.66,2.44 8.47,-2.59 12.16,-12.31 14.68,-20.8 3.02,-10.17 5.82,-22 -0.24,-30.71 -4.39,-6.32 -12.32,-9.11 -19.9,-10.47 -10.1,-1.81 -38.9,-2.66 -56.75,3.46"
               style="fill:#3767ba;fill-opacity:1;fill-rule:nonzero;stroke:none"
               id="path260328" />
          </g>
        </g>
      </g>
      <g
         id="g260358"
         transform="matrix(0.13333333,0,0,-0.13333333,1930,666.66667)">
        <g
           id="g260356"
           clip-path="url(#clipPath254417)">
          <path
             d="m 3771.69,2666.16 c -7.89,-39.86 -2.85,-86.36 12.22,-118.05 9.49,-19.95 25.72,-39.46 47.7,-41.69 27.25,-2.76 49.41,21.81 61.66,46.29 25.98,51.9 29.66,114.5 9.97,169.08 -22.11,61.26 -86.45,32.73 -113.89,-9.51 -8.45,-12.99 -14.25,-28.94 -17.66,-46.12"
             style="fill:#ffffff;fill-opacity:1;fill-rule:nonzero;stroke:none"
             id="path260336" />
          <path
             d="m 3827.09,2596.34 c 2.39,-7.6 7.64,-16.28 15.58,-15.62 5.46,0.46 9.41,5.29 12.26,9.95 11.14,18.2 27.74,81.93 -2.61,91.7 -37.05,11.92 -30.65,-68.83 -25.23,-86.03"
             style="fill:#100f0d;fill-opacity:1;fill-rule:nonzero;stroke:none"
             id="path260338" />
          <path
             d="m 4333.33,2679.31 c 7.89,-39.86 2.85,-86.36 -12.22,-118.05 -9.48,-19.95 -25.71,-39.46 -47.69,-41.69 -27.25,-2.76 -49.42,21.81 -61.67,46.29 -25.97,51.9 -29.66,114.5 -9.96,169.09 22.1,61.25 86.45,32.72 113.89,-9.52 8.44,-12.99 14.25,-28.94 17.65,-46.12"
             style="fill:#ffffff;fill-opacity:1;fill-rule:nonzero;stroke:none"
             id="path260340" />
          <path
             d="m 4277.94,2609.49 c -2.39,-7.61 -7.65,-16.28 -15.59,-15.62 -5.45,0.46 -9.4,5.29 -12.25,9.95 -11.14,18.2 -27.74,81.93 2.61,91.7 37.04,11.93 30.65,-68.83 25.23,-86.03"
             style="fill:#100f0d;fill-opacity:1;fill-rule:nonzero;stroke:none"
             id="path260342" />
          <path
             d="m 3963.27,2796.68 c -2.97,-30.99 -1.97,-63.34 10.98,-91.66 12.94,-28.32 39.91,-51.79 71,-53.35 34.64,-1.73 66.28,24.23 80.22,55.99 13.92,31.77 13.2,68.03 8.24,102.36 -3.96,27.42 -10.94,55.47 -28.26,77.09 -21.34,26.64 -67.14,42.33 -95.41,18.76 -31.13,-25.95 -43.06,-70.49 -46.77,-109.19"
             style="fill:#ffffff;fill-opacity:1;fill-rule:nonzero;stroke:none"
             id="path260344" />
          <path
             d="m 4030.46,2739.2 c 3.04,-9.15 9.33,-19.26 18.97,-19.2 9.26,0.05 15.42,9.47 18.91,18.06 7.23,17.83 24.2,102.03 -10.53,102.85 -37.22,0.89 -34.09,-81.36 -27.35,-101.71"
             style="fill:#100f0d;fill-opacity:1;fill-rule:nonzero;stroke:none"
             id="path260346" />
          <path
             d="m 3982.18,2613.87 c -27.22,-9.23 -50.24,-25.24 -59.48,-52.4 -9.95,-29.18 -0.39,-62.73 19.54,-86.26 19.92,-23.55 48.85,-38.01 78.67,-45.87 27.74,-7.31 57.85,-9.25 84.68,0.92 47.9,18.18 86.54,87.08 70.45,137.44 -12.29,38.46 -60.1,56.61 -96.59,57.65 -28.05,0.8 -65.52,-0.73 -97.27,-11.48"
             style="fill:#385eaf;fill-opacity:1;fill-rule:nonzero;stroke:none"
             id="path260348" />
          <path
             d="m 3949.94,2427.26 c -4.4,-21.09 -2.83,-44.12 8.3,-62.56 10.61,-17.57 28.91,-29.43 48.27,-36.23 28.52,-10 60.83,-9.91 88.54,2.17 27.69,12.08 50.18,36.49 58.08,65.66 7.91,29.17 0.29,62.5 -20.9,84.05 -3.18,3.23 -6.81,6.3 -11.22,7.36 -7.95,1.9 -16.3,-3.62 -19.86,-10.99 -3.55,-7.36 -3.23,-16.02 -1.73,-24.05 1.51,-8.05 4.12,-15.89 4.94,-24.03 2.22,-22.42 -10.88,-45.52 -31.2,-55.25 -20.32,-9.72 -46.45,-5.46 -62.73,10.12 -16.27,15.57 -21.68,41.39 -13.15,62.24 4.79,11.72 15.7,25.53 9.16,38.77 -4.34,8.79 -11.63,9.04 -19.75,5.02 -21.67,-10.69 -32.2,-40.52 -36.75,-62.28"
             style="fill:#fbc434;fill-opacity:1;fill-rule:nonzero;stroke:none"
             id="path260350" />
          <path
             d="m 3963.77,2511.16 c -7.29,-10.9 -5.8,-26.43 2.36,-36.68 9.26,-11.62 24.91,-16.11 39.72,-17.27 7.21,-0.57 15.38,-0.12 20.23,5.24 4.21,4.64 4.56,11.63 3.5,17.8 -4.31,25.02 -44.63,62.61 -65.81,30.91"
             style="fill:#274a87;fill-opacity:1;fill-rule:nonzero;stroke:none"
             id="path260352" />
          <path
             d="m 4075.12,2485.2 c -4.7,-8.32 -7.38,-19.41 -1.55,-26.98 6.07,-7.88 18.11,-7.76 27.53,-4.59 15.75,5.29 29.14,17.16 36.31,32.13 7.19,15.05 2.28,34.44 -17.07,32.39 -18.5,-1.95 -36.4,-17.32 -45.22,-32.95"
             style="fill:#274a87;fill-opacity:1;fill-rule:nonzero;stroke:none"
             id="path260354" />
        </g>
      </g>
      <g
         id="g260384"
         transform="matrix(0.13333333,0,0,-0.13333333,1930,666.66667)">
        <g
           id="g260382"
           clip-path="url(#clipPath254445)">
          <g
             id="g260380"
             clip-path="url(#clipPath254451)">
            <path
               d="m 4182.19,2287.06 c -39.7,-20.75 -84.81,-29.58 -129.57,-31.2 -38.6,-1.41 -77.86,2.49 -113.92,16.34 -36.05,13.85 -68.8,38.26 -88.29,71.6 -5.1,8.71 -9.46,18.2 -17.15,24.75 -7.68,6.54 -20.1,9.02 -27.63,2.3 -4,-3.57 -5.84,-8.94 -7.27,-14.1 -18.02,-64.82 3.1,-137.64 49.03,-186.78 40.54,-43.37 96.06,-66.54 154.15,-72.01 30.95,-2.91 59.52,-6.65 90.73,-2.1 30.16,4.4 59.61,13.82 86.65,27.92 11.34,5.92 22.27,12.67 32.62,20.19 37.02,26.91 66.59,63.72 85.71,105.24 9.56,20.76 16.53,42.72 20.52,65.24 3.8,21.45 8.81,47.59 -6.68,65.97 -7.45,8.85 -25.09,15.22 -35.35,7.13 -9.38,-7.41 -14.11,-27.42 -21.37,-37.94 -18.31,-26.46 -43.76,-47.7 -72.18,-62.55"
               style="fill:#100f0d;fill-opacity:1;fill-rule:nonzero;stroke:none"
               id="path260360" />
            <path
               d="m 3860.52,2265.66 c 0.11,-12.3 2.28,-46.94 19.53,-48.13 12.17,-0.84 14.34,29.4 17.9,38.91 6.75,18 15.7,35.2 26.63,51.03 6.4,9.25 13.64,18.45 15.92,29.46 3.05,14.79 -4.46,31.14 -17.68,38.44 -55.04,30.43 -62.58,-79.45 -62.3,-109.71"
               style="fill:#ffffff;fill-opacity:1;fill-rule:nonzero;stroke:none"
               id="path260362" />
            <path
               d="m 3954.67,2188.98 c 0.29,-0.36 0.6,-0.68 0.94,-0.96 10.44,-9.19 33.61,34.88 38.3,43.59 8.41,15.65 24.26,30.63 21.81,49.74 -1.49,11.58 -9.22,21.75 -18.99,28.13 -7.97,5.21 -26.76,14.71 -35.64,7.62 -8.81,-7.03 -10.76,-31.95 -12.17,-42.32 -2.43,-17.8 -2.41,-35.92 -0.63,-53.77 0.75,-7.62 0.91,-25.43 6.38,-32.03"
               style="fill:#ffffff;fill-opacity:1;fill-rule:nonzero;stroke:none"
               id="path260364" />
            <path
               d="m 4077.39,2189.4 c 0.9,0.02 1.85,0.29 2.85,0.82 12.18,6.42 17.99,39.38 20.54,51.42 4.56,21.5 4.26,44.69 -5.05,64.61 -5.26,11.27 -15.14,22.13 -27.58,21.93 -10.57,-0.16 -23.68,-10.44 -27.35,-20.39 -3.97,-10.81 3.94,-27.14 6.92,-37.81 4.21,-15.01 8.79,-29.92 13.76,-44.71 2.65,-7.88 6.06,-36.12 15.91,-35.87"
               style="fill:#ffffff;fill-opacity:1;fill-rule:nonzero;stroke:none"
               id="path260366" />
            <path
               d="m 4160.43,2240.59 c -0.18,-6.5 -0.79,-13.19 1.25,-19.36 2.05,-6.17 7.69,-11.75 14.17,-11.25 3.75,0.29 7.05,2.5 9.99,4.83 29.8,23.71 39.03,69.68 20.68,103.05 -8.97,16.32 -54.1,50.75 -62.32,16.34 -2.88,-12.07 2.59,-26.67 6.19,-37.99 5.86,-18.4 10.56,-36.09 10.04,-55.62"
               style="fill:#ffffff;fill-opacity:1;fill-rule:nonzero;stroke:none"
               id="path260368" />
            <path
               d="m 4257.48,2277.32 c 0.63,-3.22 3.2,-7.5 5.98,-5.74 0.97,0.63 1.39,1.82 1.73,2.92 9.29,30.42 7.28,64.14 -5.54,93.24 -5.95,13.5 -20.51,34.21 -38.41,27.97 -11.41,-3.98 -10.27,-16.92 -7.7,-26.59 4.09,-15.3 14.18,-26.37 22.59,-39.3 10.36,-15.93 17.73,-33.82 21.35,-52.5"
               style="fill:#ffffff;fill-opacity:1;fill-rule:nonzero;stroke:none"
               id="path260370" />
            <path
               d="m 3916.75,2207.62 c 2.66,-1.13 4.3,-5.47 4.96,-12.1 1.8,-18.29 5.01,-36.25 10.54,-53.81 6.58,-20.96 19.4,-45.53 14.98,-68.12 -4.77,-24.34 -28.23,-17.35 -43.84,-7.36 -27.17,17.37 -23.67,58.98 -17.85,86.44 3.38,15.93 10.91,36.69 21.33,49.27 4.17,5.05 7.45,6.7 9.88,5.68"
               style="fill:#ffffff;fill-opacity:1;fill-rule:nonzero;stroke:none"
               id="path260372" />
            <path
               d="m 4015.26,2183.77 c 0.25,6.7 1.72,15.26 8.29,16.64 6.71,1.41 11.51,-6.16 14.14,-12.49 3.38,-8.16 6.77,-16.32 10.16,-24.48 7.12,-17.15 14.32,-34.62 16.08,-53.1 2.59,-27.22 -12.83,-67.33 -46.87,-62.63 -35.81,4.94 -14.59,51.43 -10.11,71.58 4.73,21.18 7.52,42.79 8.31,64.48"
               style="fill:#ffffff;fill-opacity:1;fill-rule:nonzero;stroke:none"
               id="path260374" />
            <path
               d="m 4124.92,2206 c 0.62,5.83 3.27,13.44 9.1,12.83 3.89,-0.4 6.15,-4.49 7.74,-8.07 9.24,-20.83 18.48,-41.66 27.72,-62.49 4.9,-11.01 9.83,-22.18 11.98,-34.04 2.14,-11.87 1.25,-24.7 -4.93,-35.05 -7.68,-12.89 -22.2,-20.03 -36.46,-24.72 -9.63,-3.16 -27.49,-6.7 -30.75,6.55 -2.72,11.05 3.6,30.41 4.78,41.75 3.61,34.42 7.22,68.82 10.82,103.24"
               style="fill:#ffffff;fill-opacity:1;fill-rule:nonzero;stroke:none"
               id="path260376" />
            <path
               d="m 4231.1,2227.79 c -1.15,5.85 -2.18,12.81 2.08,16.97 3.71,3.62 9.81,3.21 14.66,1.4 17.35,-6.45 26.05,-25.69 30.74,-43.59 3.38,-12.87 5.65,-26.26 4.09,-39.48 -1.57,-13.22 -7.33,-26.33 -17.71,-34.66 -6.1,-4.91 -19.92,-11.68 -27.78,-7.11 -8.96,5.21 -3.72,18.84 -2.81,26.93 2.95,26.48 1.87,53.41 -3.27,79.54"
               style="fill:#ffffff;fill-opacity:1;fill-rule:nonzero;stroke:none"
               id="path260378" />
          </g>
        </g>
      </g>
      <g
         id="g260396"
         transform="matrix(0.13333333,0,0,-0.13333333,1930,666.66667)">
        <g
           id="g260394"
           clip-path="url(#clipPath254479)">
          <path
             d="m 4357.5,2946.25 c 24.81,36.25 65.1,59.12 106.46,73.92 9.88,3.54 21.1,6.63 30.56,2.07 11.78,-5.68 15.53,-20.55 16.34,-33.61 4.01,-64.9 -37.8,-146.57 -106.31,-161.14 -76.67,-16.3 -78.8,72.38 -47.05,118.76"
             style="fill:#61cce7;fill-opacity:1;fill-rule:nonzero;stroke:none"
             id="path260386" />
          <path
             d="m 4438.42,2973.01 c 2.29,1.36 4.59,2.61 6.84,3.71 6.96,3.42 16.35,5.43 21.63,-0.23 6.09,-6.5 1.31,-17.49 -5.64,-23.05 -6.95,-5.56 -15.94,-8.87 -21.1,-16.13 4.05,2.69 8.28,5.43 13.08,6.1 4.81,0.67 10.36,-1.4 12.11,-5.92 2.2,-5.66 -2.33,-11.67 -7.16,-15.34 -4.83,-3.67 -10.66,-6.95 -12.61,-12.69 3.52,4.21 11.22,0.44 12.18,-4.97 0.98,-5.41 -2.34,-10.62 -5.87,-14.83 -10.98,-13.06 -42.96,-40.75 -62.33,-32.11 -17.34,7.74 -14.64,33.81 -9.54,48.39 8.8,25.13 34.13,52.7 58.41,67.07"
             style="fill:#3767ba;fill-opacity:1;fill-rule:nonzero;stroke:none"
             id="path260388" />
          <path
             d="m 3773.83,2946.25 c -24.82,36.25 -65.1,59.12 -106.46,73.92 -9.88,3.54 -21.1,6.63 -30.56,2.07 -11.79,-5.68 -15.53,-20.55 -16.34,-33.61 -4.01,-64.9 37.79,-146.57 106.31,-161.14 76.67,-16.3 78.8,72.38 47.05,118.76"
             style="fill:#61cce7;fill-opacity:1;fill-rule:nonzero;stroke:none"
             id="path260390" />
          <path
             d="m 3692.91,2973.01 c -2.29,1.36 -4.59,2.61 -6.85,3.71 -6.95,3.42 -16.34,5.43 -21.63,-0.23 -6.08,-6.5 -1.3,-17.49 5.65,-23.05 6.95,-5.56 15.94,-8.87 21.09,-16.13 -4.04,2.69 -8.27,5.43 -13.07,6.1 -4.81,0.67 -10.37,-1.4 -12.12,-5.92 -2.19,-5.66 2.33,-11.67 7.16,-15.34 4.84,-3.67 10.67,-6.95 12.62,-12.69 -3.52,4.21 -11.22,0.44 -12.19,-4.97 -0.97,-5.41 2.35,-10.62 5.88,-14.83 10.98,-13.06 42.96,-40.75 62.33,-32.11 17.34,7.74 14.64,33.81 9.53,48.39 -8.79,25.13 -34.12,52.7 -58.4,67.07"
             style="fill:#3767ba;fill-opacity:1;fill-rule:nonzero;stroke:none"
             id="path260392" />
        </g>
      </g>
    </g>
  </g>
</svg>
