<?xml version="1.0" encoding="UTF-8" standalone="no"?>
<!-- Created with Inkscape (http://www.inkscape.org/) -->

<svg
   width="178.49094"
   height="178.49066"
   viewBox="0 0 178.49094 178.49066"
   version="1.1"
   id="svg5"
   inkscape:version="1.2.2 (b0a8486541, 2022-12-01)"
   inkscape:export-filename="card_red.png"
   inkscape:export-xdpi="96"
   inkscape:export-ydpi="96"
   sodipodi:docname="avatar_5.svg"
   xmlns:inkscape="http://www.inkscape.org/namespaces/inkscape"
   xmlns:sodipodi="http://sodipodi.sourceforge.net/DTD/sodipodi-0.dtd"
   xmlns="http://www.w3.org/2000/svg"
   xmlns:svg="http://www.w3.org/2000/svg">
  <sodipodi:namedview
     id="namedview7"
     pagecolor="#677178"
     bordercolor="#171c20"
     borderopacity="1"
     inkscape:showpageshadow="false"
     inkscape:pageopacity="0"
     inkscape:pagecheckerboard="0"
     inkscape:deskcolor="#25292d"
     inkscape:document-units="px"
     showgrid="false"
     showborder="false"
     borderlayer="true"
     inkscape:zoom="1.6682482"
     inkscape:cx="75.528331"
     inkscape:cy="89.914679"
     inkscape:window-width="1920"
     inkscape:window-height="997"
     inkscape:window-x="0"
     inkscape:window-y="0"
     inkscape:window-maximized="1"
     inkscape:current-layer="layer1" />
  <defs
     id="defs2">
    <clipPath
       clipPathUnits="userSpaceOnUse"
       id="clipPath55488">
      <path
         id="path55490"
         style="fill:#008080;stroke-width:0.133333"
         d="m 3456.5313,314.00653 c -0.741,0 -1.3656,0.62892 -1.3656,1.47932 v 37.74399 c 0,0.8504 0.6246,1.47932 1.3656,1.47932 h 22.0219 c 0.74,0 1.3651,-0.62902 1.3651,-1.47932 v -37.74399 c 0,-0.8503 -0.6251,-1.47931 -1.3651,-1.47932 z" />
    </clipPath>
    <clipPath
       clipPathUnits="userSpaceOnUse"
       id="clipPath287942">
      <path
         id="path287940"
         style="fill:#008080;stroke-width:0.133333"
         d="m 3456.5313,314.00653 c -0.741,0 -1.3656,0.62892 -1.3656,1.47932 v 37.74399 c 0,0.8504 0.6246,1.47932 1.3656,1.47932 h 22.0219 c 0.74,0 1.3651,-0.62902 1.3651,-1.47932 v -37.74399 c 0,-0.8503 -0.6251,-1.47931 -1.3651,-1.47932 z" />
    </clipPath>
    <clipPath
       clipPathUnits="userSpaceOnUse"
       id="clipPath253439">
      <path
         d="m 1640.67,4053.14 c 0,-369.67 -299.67,-669.34 -669.338,-669.34 -369.668,0 -669.344,299.67 -669.344,669.34 0,369.67 299.676,669.34 669.344,669.34 369.668,0 669.338,-299.67 669.338,-669.34 z"
         id="path253437" />
    </clipPath>
    <clipPath
       clipPathUnits="userSpaceOnUse"
       id="clipPath253449">
      <path
         d="m 1640.67,4053.14 c 0,-369.67 -299.67,-669.34 -669.338,-669.34 -369.668,0 -669.344,299.67 -669.344,669.34 0,369.67 299.676,669.34 669.344,669.34 369.668,0 669.338,-299.67 669.338,-669.34 z"
         id="path253447" />
    </clipPath>
    <clipPath
       clipPathUnits="userSpaceOnUse"
       id="clipPath253455">
      <path
         d="m 945.746,4543.82 c -19.168,-1.89 -37.973,-4.86 -56.137,-8.88 -101.777,-22.54 -211.937,-85.77 -269.98,-177.9 -25.551,-40.56 -41.113,-75.67 -53.512,-122.94 -13.297,-50.68 -23.301,-102.27 -30.73,-154.22 -20.762,-145.16 -23.926,-294.07 -20.938,-440.2 0.985,-48.05 2.211,-97.38 19.774,-141.82 29.82,-75.43 96.011,-88.87 164.843,-105.47 103.047,-24.87 212.493,-16.43 317.354,-15.72 100.63,0.68 206.85,-8.31 303.7,24 73.35,24.47 91.17,120.45 101.03,191.44 13.93,100.31 5.17,200.78 -3.28,301.07 -8.84,104.91 -23.54,209.28 -44.03,312.41 -16.32,82.11 -38.04,166.97 -91.8,229.37 -37.6,43.63 -88.71,73.11 -142.62,89.97 -61.92,19.37 -129.42,25.23 -193.674,18.89 z"
         id="path253453" />
    </clipPath>
    <clipPath
       clipPathUnits="userSpaceOnUse"
       id="clipPath253513">
      <path
         d="m 1640.67,4053.14 c 0,-369.67 -299.67,-669.34 -669.338,-669.34 -369.668,0 -669.344,299.67 -669.344,669.34 0,369.67 299.676,669.34 669.344,669.34 369.668,0 669.338,-299.67 669.338,-669.34 z"
         id="path253511" />
    </clipPath>
    <clipPath
       clipPathUnits="userSpaceOnUse"
       id="clipPath254367">
      <path
         d="m 4735.01,2566.69 c 0,-369.67 -299.68,-669.34 -669.35,-669.34 -369.66,0 -669.34,299.67 -669.34,669.34 0,369.67 299.68,669.35 669.34,669.35 369.67,0 669.35,-299.68 669.35,-669.35 z"
         id="path254365" />
    </clipPath>
    <clipPath
       clipPathUnits="userSpaceOnUse"
       id="clipPath254377">
      <path
         d="m 4735.01,2566.69 c 0,-369.67 -299.68,-669.34 -669.35,-669.34 -369.66,0 -669.34,299.67 -669.34,669.34 0,369.67 299.68,669.35 669.34,669.35 369.67,0 669.35,-299.68 669.35,-669.35 z"
         id="path254375" />
    </clipPath>
    <clipPath
       clipPathUnits="userSpaceOnUse"
       id="clipPath254383">
      <path
         d="m 4497.48,2559.78 c -15.2,71.11 -35.51,141.89 -70.62,205.56 -35.13,63.67 -86.19,120.23 -151.46,152.29 14.17,9.75 8.07,34.09 -6.79,42.75 -14.86,8.66 -33.4,6.48 -50.42,4.03 15.13,11.65 15.61,37.7 0.92,49.89 -13.39,11.12 -35.74,7.68 -46.15,-5.89 9.05,14.97 20.1,42.48 3.39,56.13 -17.59,14.37 -56.47,-2.94 -71.77,-13.7 4.88,10.51 4.68,23.19 -2.06,32.9 -6.77,9.73 -19.38,15.02 -31.06,13.06 -13.36,-2.26 -24.16,-13.3 -28.7,-26.06 -4.55,-12.77 -3.59,-26.94 -0.14,-40.04 -9.77,6.15 -18.12,14.26 -27,21.63 -8.89,7.37 -18.65,14.17 -29.85,16.99 -11.19,2.81 -24.13,0.98 -32.36,-7.1 -13.1,-12.86 -4.9,-40.96 4.96,-53.81 -10.42,13.57 -32.76,17.01 -46.15,5.89 -14.69,-12.19 -14.21,-38.24 0.91,-49.89 -17.02,2.45 -35.55,4.63 -50.42,-4.03 -14.86,-8.66 -20.96,-33 -6.79,-42.75 -65.27,-32.06 -116.32,-88.62 -151.45,-152.29 -35.12,-63.67 -55.42,-134.45 -70.62,-205.56 -38.3,-179.1 -45.87,-363.33 -45.67,-546.49 0.04,-42.85 1.61,-89.09 27.76,-123.06 29.7,-38.59 82.27,-50.06 130.58,-56.21 107.96,-13.72 217.06,-13.06 325.68,-11.23 104.45,1.76 208.69,-1.97 312.6,11.23 48.32,6.15 100.88,17.62 130.59,56.21 26.14,33.97 27.71,80.21 27.75,123.06 0.21,183.16 -7.36,367.39 -45.66,546.49 z"
         id="path254381" />
    </clipPath>
    <clipPath
       clipPathUnits="userSpaceOnUse"
       id="clipPath254417">
      <path
         d="m 4735.01,2566.69 c 0,-369.67 -299.68,-669.34 -669.35,-669.34 -369.66,0 -669.34,299.67 -669.34,669.34 0,369.67 299.68,669.35 669.34,669.35 369.67,0 669.35,-299.68 669.35,-669.35 z"
         id="path254415" />
    </clipPath>
    <clipPath
       clipPathUnits="userSpaceOnUse"
       id="clipPath254445">
      <path
         d="m 4735.01,2566.69 c 0,-369.67 -299.68,-669.34 -669.35,-669.34 -369.66,0 -669.34,299.67 -669.34,669.34 0,369.67 299.68,669.35 669.34,669.35 369.67,0 669.35,-299.68 669.35,-669.35 z"
         id="path254443" />
    </clipPath>
    <clipPath
       clipPathUnits="userSpaceOnUse"
       id="clipPath254451">
      <path
         d="m 4182.19,2287.06 c -39.7,-20.75 -84.81,-29.58 -129.57,-31.2 -38.6,-1.41 -77.86,2.49 -113.92,16.34 -36.05,13.85 -68.8,38.26 -88.29,71.6 -5.1,8.71 -9.46,18.2 -17.15,24.75 -7.68,6.54 -20.1,9.02 -27.63,2.3 -4,-3.57 -5.84,-8.94 -7.27,-14.1 -18.02,-64.82 3.1,-137.64 49.03,-186.78 40.54,-43.37 96.06,-66.54 154.15,-72.01 30.95,-2.91 59.52,-6.65 90.73,-2.1 30.16,4.4 59.61,13.82 86.65,27.92 11.34,5.92 22.27,12.67 32.62,20.19 37.02,26.91 66.59,63.72 85.71,105.24 9.56,20.76 16.53,42.72 20.52,65.24 3.8,21.45 8.81,47.59 -6.68,65.97 -7.45,8.85 -25.09,15.22 -35.35,7.13 -9.38,-7.41 -14.11,-27.42 -21.37,-37.94 -18.31,-26.46 -43.76,-47.7 -72.18,-62.55 z"
         id="path254449" />
    </clipPath>
    <clipPath
       clipPathUnits="userSpaceOnUse"
       id="clipPath254479">
      <path
         d="m 4735.01,2566.69 c 0,-369.67 -299.68,-669.34 -669.35,-669.34 -369.66,0 -669.34,299.67 -669.34,669.34 0,369.67 299.68,669.35 669.34,669.35 369.67,0 669.35,-299.68 669.35,-669.35 z"
         id="path254477" />
    </clipPath>
    <clipPath
       clipPathUnits="userSpaceOnUse"
       id="clipPath254235">
      <path
         d="m 3184.91,1101.76 c 0,-369.67 -299.67,-669.338 -669.33,-669.338 -369.67,0 -669.35,299.668 -669.35,669.338 0,369.67 299.68,669.34 669.35,669.34 369.66,0 669.33,-299.67 669.33,-669.34 z"
         id="path254233" />
    </clipPath>
    <clipPath
       clipPathUnits="userSpaceOnUse"
       id="clipPath254245">
      <path
         d="m 3184.91,1101.76 c 0,-369.67 -299.67,-669.338 -669.33,-669.338 -369.67,0 -669.35,299.668 -669.35,669.338 0,369.67 299.68,669.34 669.35,669.34 369.66,0 669.33,-299.67 669.33,-669.34 z"
         id="path254243" />
    </clipPath>
    <clipPath
       clipPathUnits="userSpaceOnUse"
       id="clipPath254251">
      <path
         d="m 2851.56,1552.45 c 13.22,-3.28 25.9,-8.12 37.65,-15.17 52.48,-31.52 46.13,-94.09 50.71,-147.3 6.14,-71.28 12.28,-142.55 18.42,-213.83 16.51,-191.709 33.04,-383.568 37.53,-575.939 1.22,-52.141 0,-109 -32.88,-149.481 -36.62,-45.07 -100.37,-55.289 -158.21,-60.398 -200.32,-17.66 -401.88,-11.953 -602.88,-5.941 -44.26,1.328 -92.47,4.148 -125.65,33.48 -43.31,38.27 -43.32,104.609 -39.96,162.309 14.39,247.062 28.79,494.11 43.18,741.17 3.9,67.01 10.6,140.52 58.25,187.8 45.06,44.72 113.95,52.91 177.36,56.1 108.84,5.49 217.9,3.52 326.74,-0.94 46.3,-1.91 91.98,-5.64 138.71,-5.3 23.73,0.18 48.15,-0.87 71.03,-6.56 z"
         id="path254249" />
    </clipPath>
    <clipPath
       clipPathUnits="userSpaceOnUse"
       id="clipPath254263">
      <path
         d="m 3184.91,1101.76 c 0,-369.67 -299.67,-669.338 -669.33,-669.338 -369.67,0 -669.35,299.668 -669.35,669.338 0,369.67 299.68,669.34 669.35,669.34 369.66,0 669.33,-299.67 669.33,-669.34 z"
         id="path254261" />
    </clipPath>
    <clipPath
       clipPathUnits="userSpaceOnUse"
       id="clipPath254269">
      <path
         d="m 2851.56,1552.45 c 13.22,-3.28 25.9,-8.12 37.65,-15.17 52.48,-31.52 46.13,-94.09 50.71,-147.3 6.14,-71.28 12.28,-142.55 18.42,-213.83 16.51,-191.709 33.04,-383.568 37.53,-575.939 1.22,-52.141 0,-109 -32.88,-149.481 -36.62,-45.07 -100.37,-55.289 -158.21,-60.398 -200.32,-17.66 -401.88,-11.953 -602.88,-5.941 -44.26,1.328 -92.47,4.148 -125.65,33.48 -43.31,38.27 -43.32,104.609 -39.96,162.309 14.39,247.062 28.79,494.11 43.18,741.17 3.9,67.01 10.6,140.52 58.25,187.8 45.06,44.72 113.95,52.91 177.36,56.1 108.84,5.49 217.9,3.52 326.74,-0.94 46.3,-1.91 91.98,-5.64 138.71,-5.3 23.73,0.18 48.15,-0.87 71.03,-6.56 z"
         id="path254267" />
    </clipPath>
    <clipPath
       clipPathUnits="userSpaceOnUse"
       id="clipPath254275">
      <path
         d="m 2585.33,627.809 c 71.25,27 124.54,96.32 132.34,172.101 2.59,25.262 -1.06,54.07 -20.92,69.879 -16.65,13.27 -39.81,13.609 -61.1,13.352 -88.98,-1.09 -177.97,-2.18 -266.97,-3.27 -14.19,-0.172 -29.3,-0.621 -41.07,-8.562 -16.76,-11.321 -21.22,-33.969 -21.27,-54.188 -0.35,-141.371 147.51,-239.141 278.99,-189.312 z"
         id="path254273" />
    </clipPath>
    <clipPath
       clipPathUnits="userSpaceOnUse"
       id="clipPath254291">
      <path
         d="m 3184.91,1101.76 c 0,-369.67 -299.67,-669.338 -669.33,-669.338 -369.67,0 -669.35,299.668 -669.35,669.338 0,369.67 299.68,669.34 669.35,669.34 369.66,0 669.33,-299.67 669.33,-669.34 z"
         id="path254289" />
    </clipPath>
    <clipPath
       clipPathUnits="userSpaceOnUse"
       id="clipPath254297">
      <path
         d="m 2851.56,1552.45 c 13.22,-3.28 25.9,-8.12 37.65,-15.17 52.48,-31.52 46.13,-94.09 50.71,-147.3 6.14,-71.28 12.28,-142.55 18.42,-213.83 16.51,-191.709 33.04,-383.568 37.53,-575.939 1.22,-52.141 0,-109 -32.88,-149.481 -36.62,-45.07 -100.37,-55.289 -158.21,-60.398 -200.32,-17.66 -401.88,-11.953 -602.88,-5.941 -44.26,1.328 -92.47,4.148 -125.65,33.48 -43.31,38.27 -43.32,104.609 -39.96,162.309 14.39,247.062 28.79,494.11 43.18,741.17 3.9,67.01 10.6,140.52 58.25,187.8 45.06,44.72 113.95,52.91 177.36,56.1 108.84,5.49 217.9,3.52 326.74,-0.94 46.3,-1.91 91.98,-5.64 138.71,-5.3 23.73,0.18 48.15,-0.87 71.03,-6.56 z"
         id="path254295" />
    </clipPath>
    <clipPath
       clipPathUnits="userSpaceOnUse"
       id="clipPath253677">
      <path
         d="m 4735.01,4053.14 c 0,-369.67 -299.68,-669.34 -669.35,-669.34 -369.66,0 -669.34,299.67 -669.34,669.34 0,369.67 299.68,669.34 669.34,669.34 369.67,0 669.35,-299.67 669.35,-669.34 z"
         id="path253675" />
    </clipPath>
    <clipPath
       clipPathUnits="userSpaceOnUse"
       id="clipPath253749">
      <path
         d="m 4735.01,4053.14 c 0,-369.67 -299.68,-669.34 -669.35,-669.34 -369.66,0 -669.34,299.67 -669.34,669.34 0,369.67 299.68,669.34 669.34,669.34 369.67,0 669.35,-299.67 669.35,-669.34 z"
         id="path253747" />
    </clipPath>
    <clipPath
       clipPathUnits="userSpaceOnUse"
       id="clipPath253755">
      <path
         d="m 4364.81,4182.11 c -4.78,44.4 -13.58,88.51 -38.59,126.05 -39.18,58.78 -113.44,91.72 -187.44,98.61 -67.99,6.32 -135.35,-1.42 -197.13,-27.38 -59.4,-24.95 -109.54,-45.36 -146.21,-99.24 -32.97,-48.45 -45.07,-106.36 -55.01,-162.94 -20.66,-117.68 -34.75,-236.38 -41.19,-355.48 -5.7,-105.44 -22.16,-229.08 32.08,-326.39 7.44,-13.34 16.25,-26.02 26.5,-37.65 34.85,-39.55 84.89,-65.47 137.04,-81.63 97.69,-30.28 203.8,-28.77 305.62,-14.48 49.07,6.88 100.4,17.93 136.35,49.74 36.92,32.68 51.07,81.55 59,128.38 24.14,142.75 2.38,285.85 -8.9,428.27 -6.23,78.67 -12.47,157.33 -18.7,235.99 -0.99,12.65 -2.04,25.42 -3.42,38.15 z"
         id="path253753" />
    </clipPath>
    <clipPath
       clipPathUnits="userSpaceOnUse"
       id="clipPath253777">
      <path
         d="m 4735.01,4053.14 c 0,-369.67 -299.68,-669.34 -669.35,-669.34 -369.66,0 -669.34,299.67 -669.34,669.34 0,369.67 299.68,669.34 669.34,669.34 369.67,0 669.35,-299.67 669.35,-669.34 z"
         id="path253775" />
    </clipPath>
    <clipPath
       clipPathUnits="userSpaceOnUse"
       id="clipPath253947">
      <path
         d="m 1640.67,1101.76 c 0,-369.67 -299.67,-669.338 -669.338,-669.338 -369.668,0 -669.344,299.668 -669.344,669.338 0,369.67 299.676,669.34 669.344,669.34 369.668,0 669.338,-299.67 669.338,-669.34 z"
         id="path253945" />
    </clipPath>
    <clipPath
       clipPathUnits="userSpaceOnUse"
       id="clipPath253993">
      <path
         d="m 1640.67,1101.76 c 0,-369.67 -299.67,-669.338 -669.338,-669.338 -369.668,0 -669.344,299.668 -669.344,669.338 0,369.67 299.676,669.34 669.344,669.34 369.668,0 669.338,-299.67 669.338,-669.34 z"
         id="path253991" />
    </clipPath>
    <clipPath
       clipPathUnits="userSpaceOnUse"
       id="clipPath253999">
      <path
         d="m 804.895,1577.9 c -65.993,-15.99 -130.09,-49.54 -169.801,-104.62 -39.504,-54.79 -51.055,-124.49 -57.789,-191.71 -21.352,-213.26 -5.332,-428.289 10.691,-642.019 4.5,-59.949 11.02,-130.61 65.418,-167.063 30.348,-20.328 67.024,-28.789 103.152,-34.187 100.454,-15.012 202.672,-9.301 304.234,-10.59 51.51,-0.672 103.58,-3.102 154.06,7.187 38.92,7.942 78.33,24.344 107.17,52.364 24.84,24.14 32.82,71.82 40.48,104.59 17.19,73.57 15.61,150.046 13.93,225.589 -1.73,77.508 -3.45,155.02 -5.18,232.539 -1.57,70.6 2.14,142.56 -6.92,212.73 -11.94,92.41 -44.35,189.4 -110.54,257.5 -43.63,44.9 -108.73,58.45 -169.74,68.52 -89.962,14.83 -190.392,10.67 -279.165,-10.83 z"
         id="path253997" />
    </clipPath>
    <clipPath
       clipPathUnits="userSpaceOnUse"
       id="clipPath254047">
      <path
         d="m 1640.67,1101.76 c 0,-369.67 -299.67,-669.338 -669.338,-669.338 -369.668,0 -669.344,299.668 -669.344,669.338 0,369.67 299.676,669.34 669.344,669.34 369.668,0 669.338,-299.67 669.338,-669.34 z"
         id="path254045" />
    </clipPath>
    <clipPath
       clipPathUnits="userSpaceOnUse"
       id="clipPath254097">
      <path
         d="m 1640.67,1101.76 c 0,-369.67 -299.67,-669.338 -669.338,-669.338 -369.668,0 -669.344,299.668 -669.344,669.338 0,369.67 299.676,669.34 669.344,669.34 369.668,0 669.338,-299.67 669.338,-669.34 z"
         id="path254095" />
    </clipPath>
    <clipPath
       clipPathUnits="userSpaceOnUse"
       id="clipPath254103">
      <path
         d="m 872.078,1079.39 c -20.945,2.63 -43.5,5.91 -62.129,-4.02 -18.363,-9.78 -28.519,-30.6 -31.644,-51.18 -5.399,-35.542 7.207,-72.51 29.976,-100.319 22.77,-27.82 54.918,-46.961 89.059,-58.199 58.398,-19.223 125.7,-15.262 177.63,17.648 50.68,32.121 84.63,94.508 75.26,155.03 -3.88,25.08 -15.14,50.33 -43.51,49.36 -32.75,-1.12 -65.65,-10.23 -98.57,-12.37 -45.345,-2.95 -90.978,-1.61 -136.072,4.05 z"
         id="path254101" />
    </clipPath>
  </defs>
  <g
     inkscape:label="Capa 1"
     inkscape:groupmode="layer"
     id="layer1"
     transform="translate(-393.67177,-339.9564)">
    <g
       id="g256188"
       transform="translate(-1576.5933,-90.563343)">
      <g
         id="g253941"
         transform="matrix(0.13333333,0,0,-0.13333333,1930,666.66667)">
        <g
           id="g253943"
           clip-path="url(#clipPath253947)">
          <path
             d="m 1640.67,1101.76 c 0,-369.67 -299.67,-669.338 -669.338,-669.338 -369.668,0 -669.344,299.668 -669.344,669.338 0,369.67 299.676,669.34 669.344,669.34 369.668,0 669.338,-299.67 669.338,-669.34"
             style="fill:none;fill-opacity:1;fill-rule:nonzero;stroke:none"
             id="path253949" />
          <path
             d="m 1044.91,1226.32 c -15.09,18.16 -39,27.38 -62.566,28.72 -38.168,2.16 -77.61,-16.3 -97.801,-48.76 -20.203,-32.46 -18.563,-77.95 6.242,-107.03 17.617,-20.67 44.863,-31.83 71.992,-32.91 28.844,-1.15 58.313,8.85 79.303,28.66 21,19.81 32.77,49.5 29.34,78.16 -3.45,28.67 -22.69,55.31 -49.5,66.03"
             style="fill:#fbc434;fill-opacity:1;fill-rule:nonzero;stroke:none"
             id="path253951" />
          <path
             d="m 927.727,1190.16 c -3.571,-3.23 -7.223,-7.74 -5.786,-12.32 1.36,-4.3 6.45,-6.05 10.907,-6.73 5.789,-0.89 11.738,-1.02 17.312,-2.82 5.57,-1.8 10.926,-5.7 12.414,-11.37 2.84,-10.81 -9.183,-20.62 -8.48,-31.77 0.617,-9.77 11.582,-16.46 21.312,-15.32 9.727,1.14 17.864,8.02 23.875,15.75 15.639,20.1 25.609,62.64 5.529,83.53 -20.462,21.29 -60.65,-4.14 -77.083,-18.95"
             style="fill:#f7913b;fill-opacity:1;fill-rule:nonzero;stroke:none"
             id="path253953" />
          <path
             d="m 936.34,1019.53 c 1.043,-5.98 3.316,-12.85 9.109,-14.65 3.633,-1.12 7.692,0.26 10.598,2.71 2.902,2.46 4.844,5.85 6.508,9.27 9.285,19.04 11.855,41.1 8.23,61.98 -2.976,17.18 -22.449,32.92 -29.73,10.37 -7.153,-22.14 -8.719,-46.82 -4.715,-69.68"
             style="fill:#e7f1f3;fill-opacity:1;fill-rule:nonzero;stroke:none"
             id="path253955" />
          <path
             d="m 971.461,971.609 c 11.367,7.5 17.773,21.52 17.031,35.121 -0.531,9.66 -4.961,19.67 -13.465,24.28 -7.093,3.84 -15.847,3.36 -23.535,0.89 -12.863,-4.13 -24.23,-14.19 -27.703,-27.26 -7.805,-29.359 23.356,-49.081 47.672,-33.031"
             style="fill:#cf83c8;fill-opacity:1;fill-rule:nonzero;stroke:none"
             id="path253957" />
          <path
             d="m 944.516,964.68 c 0.351,4.851 1.054,9.949 4.039,13.789 2.984,3.832 8.972,5.742 12.836,2.793 2.804,-2.141 3.621,-5.942 4.238,-9.403 3.144,-17.597 6.269,-35.847 1.812,-53.16 -0.957,-3.711 -2.699,-7.801 -6.343,-9.008 -3.203,-1.07 -6.805,0.629 -8.969,3.219 -10.188,12.192 -8.688,37.121 -7.613,51.77"
             style="fill:#e7f1f3;fill-opacity:1;fill-rule:nonzero;stroke:none"
             id="path253959" />
          <path
             d="m 975.309,825.879 c 21.351,7.742 34.751,31.93 31.781,54.441 -2.6,19.782 -18.082,38.11 -37.832,40.86 -17.539,2.449 -35.363,-7.559 -45.192,-22.289 -9.496,-14.25 -17.304,-39.219 -5.144,-53.821 13.387,-16.09 35.773,-26.66 56.387,-19.191"
             style="fill:#cf83c8;fill-opacity:1;fill-rule:nonzero;stroke:none"
             id="path253961" />
          <path
             d="m 579.043,1100.51 c -15.09,18.17 -39.02,27.4 -62.602,28.74 -38.195,2.16 -77.656,-16.31 -97.867,-48.79 -20.211,-32.48 -18.57,-78 6.25,-107.108 17.625,-20.661 44.895,-31.84 72.035,-32.922 28.864,-1.149 58.356,8.851 79.364,28.672 21.004,19.839 32.785,49.538 29.343,78.218 -3.441,28.68 -22.707,55.35 -49.519,66.07"
             style="fill:#fbc434;fill-opacity:1;fill-rule:nonzero;stroke:none"
             id="path253963" />
          <path
             d="m 461.781,1064.32 c -3.566,-3.22 -7.226,-7.74 -5.781,-12.32 1.359,-4.3 6.449,-6.05 10.914,-6.74 5.789,-0.89 11.742,-1.02 17.324,-2.82 5.575,-1.8 10.934,-5.71 12.422,-11.38 2.844,-10.81 -9.195,-20.62 -8.492,-31.779 0.621,-9.793 11.594,-16.472 21.328,-15.332 9.734,1.141 17.875,8.02 23.895,15.762 15.648,20.109 25.625,62.669 5.535,83.579 -20.485,21.3 -60.696,-4.15 -77.145,-18.97"
             style="fill:#f7913b;fill-opacity:1;fill-rule:nonzero;stroke:none"
             id="path253965" />
          <path
             d="m 470.406,893.582 c 1.043,-5.973 3.324,-12.852 9.114,-14.641 3.64,-1.14 7.699,0.25 10.601,2.7 2.91,2.461 4.852,5.847 6.516,9.281 9.293,19.047 11.863,41.117 8.242,62.008 -2.984,17.199 -22.473,32.949 -29.758,10.379 -7.152,-22.149 -8.719,-46.848 -4.715,-69.727"
             style="fill:#e7f1f3;fill-opacity:1;fill-rule:nonzero;stroke:none"
             id="path253967" />
          <path
             d="m 505.551,845.629 c 11.375,7.512 17.785,21.543 17.039,35.152 -0.527,9.66 -4.961,19.68 -13.469,24.289 -7.101,3.86 -15.859,3.371 -23.551,0.899 -12.875,-4.129 -24.246,-14.207 -27.722,-27.278 -7.809,-29.382 23.367,-49.121 47.703,-33.062"
             style="fill:#cf83c8;fill-opacity:1;fill-rule:nonzero;stroke:none"
             id="path253969" />
          <path
             d="m 478.59,838.699 c 0.355,4.852 1.058,9.949 4.043,13.801 2.98,3.84 8.972,5.742 12.847,2.789 2.801,-2.141 3.618,-5.93 4.239,-9.41 3.14,-17.609 6.273,-35.867 1.808,-53.18 -0.957,-3.73 -2.699,-7.82 -6.347,-9.027 -3.203,-1.063 -6.805,0.637 -8.973,3.226 -10.191,12.192 -8.691,37.141 -7.617,51.801"
             style="fill:#e7f1f3;fill-opacity:1;fill-rule:nonzero;stroke:none"
             id="path253971" />
          <path
             d="m 509.398,699.809 c 21.364,7.75 34.774,31.953 31.809,54.48 -2.609,19.781 -18.098,38.133 -37.855,40.891 -17.559,2.449 -35.387,-7.571 -45.223,-22.321 -9.508,-14.25 -17.316,-39.238 -5.156,-53.847 13.406,-16.09 35.8,-26.68 56.425,-19.203"
             style="fill:#cf83c8;fill-opacity:1;fill-rule:nonzero;stroke:none"
             id="path253973" />
          <path
             d="m 1363.62,1100.51 c 15.09,18.17 39.02,27.4 62.61,28.74 38.18,2.16 77.65,-16.31 97.86,-48.79 20.21,-32.48 18.57,-78 -6.25,-107.108 -17.63,-20.661 -44.9,-31.84 -72.04,-32.922 -28.86,-1.149 -58.35,8.851 -79.35,28.672 -21.01,19.839 -32.8,49.538 -29.36,78.218 3.45,28.68 22.71,55.35 49.53,66.07"
             style="fill:#fbc434;fill-opacity:1;fill-rule:nonzero;stroke:none"
             id="path253975" />
          <path
             d="m 1480.88,1064.32 c 3.57,-3.22 7.23,-7.74 5.78,-12.32 -1.36,-4.3 -6.45,-6.05 -10.91,-6.74 -5.79,-0.89 -11.75,-1.02 -17.32,-2.82 -5.58,-1.8 -10.93,-5.71 -12.42,-11.38 -2.85,-10.81 9.19,-20.62 8.48,-31.779 -0.61,-9.793 -11.59,-16.472 -21.32,-15.332 -9.74,1.141 -17.88,8.02 -23.9,15.762 -15.64,20.109 -25.62,62.669 -5.53,83.579 20.48,21.3 60.69,-4.15 77.14,-18.97"
             style="fill:#f7913b;fill-opacity:1;fill-rule:nonzero;stroke:none"
             id="path253977" />
          <path
             d="m 1472.26,893.582 c -1.04,-5.973 -3.32,-12.852 -9.12,-14.641 -3.63,-1.14 -7.7,0.25 -10.6,2.7 -2.91,2.461 -4.84,5.847 -6.51,9.281 -9.3,19.047 -11.87,41.117 -8.24,62.008 2.98,17.199 22.46,32.949 29.75,10.379 7.16,-22.149 8.72,-46.848 4.72,-69.727"
             style="fill:#e7f1f3;fill-opacity:1;fill-rule:nonzero;stroke:none"
             id="path253979" />
          <path
             d="m 1437.11,845.629 c -11.37,7.512 -17.78,21.543 -17.04,35.152 0.53,9.66 4.97,19.68 13.47,24.289 7.1,3.86 15.86,3.371 23.55,0.899 12.88,-4.129 24.25,-14.207 27.72,-27.278 7.82,-29.382 -23.36,-49.121 -47.7,-33.062"
             style="fill:#cf83c8;fill-opacity:1;fill-rule:nonzero;stroke:none"
             id="path253981" />
          <path
             d="m 1464.08,838.699 c -0.36,4.852 -1.06,9.949 -4.05,13.801 -2.98,3.84 -8.98,5.742 -12.84,2.789 -2.81,-2.141 -3.62,-5.93 -4.24,-9.41 -3.15,-17.609 -6.28,-35.867 -1.82,-53.18 0.96,-3.73 2.71,-7.82 6.36,-9.027 3.2,-1.063 6.8,0.637 8.97,3.226 10.19,12.192 8.69,37.141 7.62,51.801"
             style="fill:#e7f1f3;fill-opacity:1;fill-rule:nonzero;stroke:none"
             id="path253983" />
          <path
             d="m 1433.26,699.809 c -21.36,7.75 -34.77,31.953 -31.8,54.48 2.61,19.781 18.09,38.133 37.86,40.891 17.55,2.449 35.38,-7.571 45.22,-22.321 9.5,-14.25 17.32,-39.238 5.15,-53.847 -13.4,-16.09 -35.8,-26.68 -56.43,-19.203"
             style="fill:#cf83c8;fill-opacity:1;fill-rule:nonzero;stroke:none"
             id="path253985" />
        </g>
      </g>
      <g
         id="g253987"
         transform="matrix(0.13333333,0,0,-0.13333333,1930,666.66667)">
        <g
           id="g253989"
           clip-path="url(#clipPath253993)">
          <g
             id="g253995"
             clip-path="url(#clipPath253999)">
            <path
               d="m 804.895,1577.9 c -65.993,-15.99 -130.09,-49.54 -169.801,-104.62 -39.504,-54.79 -51.055,-124.49 -57.789,-191.71 -21.352,-213.26 -5.332,-428.289 10.691,-642.019 4.5,-59.949 11.02,-130.61 65.418,-167.063 30.348,-20.328 67.024,-28.789 103.152,-34.187 100.454,-15.012 202.672,-9.301 304.234,-10.59 51.51,-0.672 103.58,-3.102 154.06,7.187 38.92,7.942 78.33,24.344 107.17,52.364 24.84,24.14 32.82,71.82 40.48,104.59 17.19,73.57 15.61,150.046 13.93,225.589 -1.73,77.508 -3.45,155.02 -5.18,232.539 -1.57,70.6 2.14,142.56 -6.92,212.73 -11.94,92.41 -44.35,189.4 -110.54,257.5 -43.63,44.9 -108.73,58.45 -169.74,68.52 -89.962,14.83 -190.392,10.67 -279.165,-10.83"
               style="fill:#fbc434;fill-opacity:1;fill-rule:nonzero;stroke:none"
               id="path254001" />
            <path
               d="m 595.57,1298.69 c 25.41,-3.46 51.243,12.11 63.535,34.62 12.301,22.51 12.219,50.43 3.653,74.6 -7.793,21.97 -25.199,43.16 -48.445,44.91 -13.879,1.04 -27.52,-5.15 -38.239,-14.03 -37.597,-31.16 -40.027,-131.98 19.496,-140.1"
               style="fill:#f7913b;fill-opacity:1;fill-rule:nonzero;stroke:none"
               id="path254003" />
            <path
               d="m 681.598,1440.7 c 13.968,-4.07 29.679,0.27 40.746,9.71 11.062,9.45 17.672,23.49 19.648,37.91 5.387,39.18 -43.344,90.85 -78.32,52.93 -24.106,-26.13 -19.981,-89.52 17.926,-100.55"
               style="fill:#f7913b;fill-opacity:1;fill-rule:nonzero;stroke:none"
               id="path254005" />
            <path
               d="m 635.859,1073.19 c 15.883,-12.24 26.567,-30.36 32.457,-49.54 4.883,-15.89 6.45,-33.978 -1.711,-48.459 -8.652,-15.371 -26.718,-23.48 -44.296,-24.839 -22.946,-1.77 -46.493,6.707 -63.047,22.707 -20.524,19.82 -35.762,56.041 -18.442,81.871 22.203,33.11 62.254,43.53 95.039,18.26"
               style="fill:#f7913b;fill-opacity:1;fill-rule:nonzero;stroke:none"
               id="path254007" />
            <path
               d="m 547.852,732.98 c -22.125,46.262 -19.407,125.168 22.972,160.168 20.055,16.571 50.696,22.801 72.285,8.313 21.332,-14.332 27.289,-43.121 26.84,-68.809 -0.562,-32.543 -8.547,-64.941 -23.164,-94.023 -11.203,-22.289 -31.055,-44.988 -55.894,-42.66 -19.723,1.832 -34.489,19.152 -43.039,37.011"
               style="fill:#f7913b;fill-opacity:1;fill-rule:nonzero;stroke:none"
               id="path254009" />
            <path
               d="m 609.84,469.02 c -50.508,36.359 -43.293,90.062 -44.992,145.261 -0.754,24.641 9.472,43.149 28.886,59.258 9.055,7.5 22.383,13.492 32.063,6.813 10.125,-6.993 8.621,-21.911 9.254,-34.192 1.14,-22.258 12.797,-42.512 25.137,-61.07 12.335,-18.57 25.921,-36.961 31.82,-58.461 5.89,-21.488 2.168,-47.41 -15.371,-61.16 -18.832,-14.77 -47.375,-10.43 -66.797,3.551"
               style="fill:#f7913b;fill-opacity:1;fill-rule:nonzero;stroke:none"
               id="path254011" />
            <path
               d="m 671.594,623.73 c 2.847,-13.878 9.758,-29.48 23.64,-32.3 14.371,-2.918 27.114,9.742 34.434,22.461 17.016,29.539 21.293,66.148 11.555,98.82 -7.602,25.48 -38.243,44.98 -55.52,16.961 -18.324,-29.711 -20.961,-72.621 -14.109,-105.942"
               style="fill:#f7913b;fill-opacity:1;fill-rule:nonzero;stroke:none"
               id="path254013" />
            <path
               d="m 671.168,941.719 c -2.707,-6.778 -5.059,-13.828 -5.309,-21.117 -0.246,-7.301 1.86,-14.942 7.024,-20.09 7.902,-7.903 21.519,-7.981 30.984,-2.02 9.469,5.938 15.11,16.668 17.399,27.61 2.027,9.66 1.484,20.539 -4.661,28.269 -15.281,19.25 -38.57,4.578 -45.437,-12.652"
               style="fill:#f7913b;fill-opacity:1;fill-rule:nonzero;stroke:none"
               id="path254015" />
            <path
               d="m 702.883,786.641 c 3.711,-9.352 12.961,-16.743 23.015,-16.551 7.301,0.129 14.196,4.14 18.883,9.73 4.688,5.602 7.364,12.66 8.805,19.821 3.531,17.558 -6.406,45.398 -29.68,38.871 -18.258,-5.121 -27.308,-36.043 -21.023,-51.871"
               style="fill:#f7913b;fill-opacity:1;fill-rule:nonzero;stroke:none"
               id="path254017" />
            <path
               d="m 766.063,1513.2 c -4.106,-8.04 -6.473,-18.02 -2.098,-25.93 3.226,-5.83 9.668,-9.4 16.254,-10.4 6.59,-0.99 13.32,0.3 19.679,2.29 12.375,3.9 24.278,10.9 31.274,21.83 7.004,10.92 8.051,26.2 0.254,36.58 -19.391,25.8 -55.641,-5.31 -65.363,-24.37"
               style="fill:#f7913b;fill-opacity:1;fill-rule:nonzero;stroke:none"
               id="path254019" />
            <path
               d="m 1333.94,1298.69 c -25.41,-3.46 -51.24,12.11 -63.54,34.62 -12.3,22.51 -12.22,50.43 -3.65,74.6 7.79,21.97 25.2,43.16 48.45,44.91 13.87,1.04 27.51,-5.15 38.23,-14.03 37.6,-31.16 40.03,-131.98 -19.49,-140.1"
               style="fill:#f7913b;fill-opacity:1;fill-rule:nonzero;stroke:none"
               id="path254021" />
            <path
               d="m 1247.91,1440.7 c -13.97,-4.07 -29.68,0.27 -40.75,9.71 -11.06,9.45 -17.67,23.49 -19.65,37.91 -5.38,39.18 43.34,90.85 78.32,52.93 24.11,-26.13 19.99,-89.52 -17.92,-100.55"
               style="fill:#f7913b;fill-opacity:1;fill-rule:nonzero;stroke:none"
               id="path254023" />
            <path
               d="m 1293.65,1073.19 c -15.89,-12.24 -26.57,-30.36 -32.46,-49.54 -4.88,-15.89 -6.45,-33.978 1.71,-48.459 8.65,-15.371 26.71,-23.48 44.29,-24.839 22.95,-1.77 46.5,6.707 63.05,22.707 20.52,19.82 35.77,56.041 18.45,81.871 -22.21,33.11 -62.26,43.53 -95.04,18.26"
               style="fill:#f7913b;fill-opacity:1;fill-rule:nonzero;stroke:none"
               id="path254025" />
            <path
               d="m 1381.65,732.98 c 22.12,46.262 19.41,125.168 -22.97,160.168 -20.05,16.571 -50.69,22.801 -72.28,8.313 -21.34,-14.332 -27.3,-43.121 -26.85,-68.809 0.57,-32.543 8.56,-64.941 23.17,-94.023 11.21,-22.289 31.05,-44.988 55.9,-42.66 19.72,1.832 34.49,19.152 43.03,37.011"
               style="fill:#f7913b;fill-opacity:1;fill-rule:nonzero;stroke:none"
               id="path254027" />
            <path
               d="m 1319.66,469.02 c 50.52,36.359 43.3,90.062 44.99,145.261 0.76,24.641 -9.47,43.149 -28.88,59.258 -9.05,7.5 -22.39,13.492 -32.06,6.813 -10.13,-6.993 -8.62,-21.911 -9.25,-34.192 -1.14,-22.258 -12.8,-42.512 -25.14,-61.07 -12.34,-18.57 -25.93,-36.961 -31.82,-58.461 -5.89,-21.488 -2.17,-47.41 15.37,-61.16 18.83,-14.77 47.37,-10.43 66.79,3.551"
               style="fill:#f7913b;fill-opacity:1;fill-rule:nonzero;stroke:none"
               id="path254029" />
            <path
               d="m 1257.92,623.73 c -2.86,-13.878 -9.77,-29.48 -23.65,-32.3 -14.37,-2.918 -27.11,9.742 -34.43,22.461 -17.02,29.539 -21.3,66.148 -11.55,98.82 7.59,25.48 38.23,44.98 55.51,16.961 18.32,-29.711 20.97,-72.621 14.12,-105.942"
               style="fill:#f7913b;fill-opacity:1;fill-rule:nonzero;stroke:none"
               id="path254031" />
            <path
               d="m 1258.34,941.719 c 2.7,-6.778 5.06,-13.828 5.3,-21.117 0.25,-7.301 -1.85,-14.942 -7.01,-20.09 -7.91,-7.903 -21.53,-7.981 -31,-2.02 -9.46,5.938 -15.1,16.668 -17.39,27.61 -2.02,9.66 -1.48,20.539 4.66,28.269 15.28,19.25 38.57,4.578 45.44,-12.652"
               style="fill:#f7913b;fill-opacity:1;fill-rule:nonzero;stroke:none"
               id="path254033" />
            <path
               d="m 1226.62,786.641 c -3.7,-9.352 -12.96,-16.743 -23.01,-16.551 -7.31,0.129 -14.2,4.14 -18.88,9.73 -4.7,5.602 -7.37,12.66 -8.81,19.821 -3.53,17.558 6.41,45.398 29.68,38.871 18.26,-5.121 27.31,-36.043 21.02,-51.871"
               style="fill:#f7913b;fill-opacity:1;fill-rule:nonzero;stroke:none"
               id="path254035" />
            <path
               d="m 1163.44,1513.2 c 4.11,-8.04 6.48,-18.02 2.1,-25.93 -3.23,-5.83 -9.67,-9.4 -16.25,-10.4 -6.59,-0.99 -13.32,0.3 -19.68,2.29 -12.38,3.9 -24.28,10.9 -31.28,21.83 -7,10.92 -8.05,26.2 -0.25,36.58 19.39,25.8 55.64,-5.31 65.36,-24.37"
               style="fill:#f7913b;fill-opacity:1;fill-rule:nonzero;stroke:none"
               id="path254037" />
            <path
               d="m 794.145,628.82 c 29.835,70.922 94.273,132.789 171.132,136.059 66.503,2.832 129.283,-39.27 165.163,-95.328 35.89,-56.051 48.46,-124.039 51.44,-190.539 1.22,-27.09 -0.11,-57.141 -18.76,-76.821 -16.41,-17.339 -41.83,-21.91 -65.42,-25.562 -57.84,-8.938 -116.134,-17.918 -174.602,-15.348 -41.258,1.821 -148.059,11 -161.008,61.141 -7.496,29.039 1.621,71.078 5.332,100.457 4.582,36.23 12.523,72.191 26.723,105.941"
               style="fill:#fcdc88;fill-opacity:1;fill-rule:nonzero;stroke:none"
               id="path254039" />
          </g>
        </g>
      </g>
      <g
         id="g254041"
         transform="matrix(0.13333333,0,0,-0.13333333,1930,666.66667)">
        <g
           id="g254043"
           clip-path="url(#clipPath254047)">
          <path
             d="m 620.027,1220.38 c -1.808,1.56 -3.664,3.19 -4.73,5.34 -1.063,2.14 -1.141,4.96 0.449,6.75 1.559,1.74 4.274,2.02 6.496,1.29 2.223,-0.72 4.063,-2.28 5.844,-3.78 5.836,-4.96 11.676,-9.91 17.512,-14.87 4.832,-4.1 13.605,-18.22 1.351,-16.8 -8.336,0.96 -20.793,16.76 -26.922,22.07"
             style="fill:#100f0d;fill-opacity:1;fill-rule:nonzero;stroke:none"
             id="path254049" />
          <path
             d="m 663.531,1251.21 c -1.754,3.99 -3.476,8.71 -1.297,12.48 2.746,4.73 10.227,4.43 14.286,0.76 4.062,-3.65 5.554,-9.3 6.761,-14.63 1.344,-5.9 2.571,-11.84 3.789,-17.78 1.696,-8.24 -2.593,-16.73 -10.511,-9.35 -6.278,5.85 -9.586,20.68 -13.028,28.52"
             style="fill:#100f0d;fill-opacity:1;fill-rule:nonzero;stroke:none"
             id="path254051" />
          <path
             d="m 628.035,1184.43 c -6.121,-21.98 0.715,-47.07 17.153,-62.91 16.433,-15.83 41.765,-21.73 63.503,-14.79 25.016,7.99 43.418,32.15 46.653,58.21 2.453,19.75 -3.656,41.01 -18.281,54.5 -34.625,31.94 -97.176,7.51 -109.028,-35.01"
             style="fill:#ffffff;fill-opacity:1;fill-rule:nonzero;stroke:none"
             id="path254053" />
          <path
             d="m 698.184,1152.44 c 20.515,-2.34 24.046,29.54 4.254,32.53 -20.391,3.07 -25.485,-30.11 -4.254,-32.53"
             style="fill:#100f0d;fill-opacity:1;fill-rule:nonzero;stroke:none"
             id="path254055" />
          <path
             d="m 739.297,1360.43 c -1.66,1.73 -3.359,3.52 -4.219,5.75 -0.863,2.24 -0.683,5.05 1.067,6.68 1.707,1.59 4.441,1.62 6.585,0.69 2.141,-0.92 3.833,-2.63 5.469,-4.3 5.356,-5.47 10.719,-10.94 16.074,-16.42 4.434,-4.52 11.875,-19.37 -0.195,-16.84 -8.215,1.72 -19.172,18.59 -24.781,24.44"
             style="fill:#100f0d;fill-opacity:1;fill-rule:nonzero;stroke:none"
             id="path254057" />
          <path
             d="m 785.445,1387.14 c -1.379,4.12 -2.664,8.99 -0.14,12.54 3.164,4.46 10.586,3.46 14.289,-0.54 3.711,-4.01 4.679,-9.77 5.39,-15.19 0.793,-6.01 1.469,-12.04 2.145,-18.05 0.93,-8.37 -4.121,-16.43 -11.328,-8.36 -5.711,6.4 -7.653,21.47 -10.356,29.6"
             style="fill:#100f0d;fill-opacity:1;fill-rule:nonzero;stroke:none"
             id="path254059" />
          <path
             d="m 743.977,1323.91 c -8.122,-21.33 -3.61,-46.95 11.296,-64.22 14.915,-17.28 39.594,-25.48 61.879,-20.57 25.645,5.67 46.188,28.03 51.801,53.68 4.254,19.45 0.125,41.18 -13.207,55.96 -31.543,34.98 -96.066,16.4 -111.769,-24.85"
             style="fill:#ffffff;fill-opacity:1;fill-rule:nonzero;stroke:none"
             id="path254061" />
          <path
             d="m 810.883,1285.61 c 20.222,-4.22 26.66,27.21 7.222,32 -20.023,4.93 -28.132,-27.65 -7.222,-32"
             style="fill:#100f0d;fill-opacity:1;fill-rule:nonzero;stroke:none"
             id="path254063" />
          <path
             d="m 1296.32,1220.38 c 1.81,1.56 3.67,3.19 4.73,5.34 1.06,2.14 1.14,4.96 -0.45,6.75 -1.56,1.74 -4.28,2.02 -6.49,1.29 -2.23,-0.72 -4.07,-2.28 -5.85,-3.78 -5.83,-4.96 -11.67,-9.91 -17.51,-14.87 -4.83,-4.1 -13.61,-18.22 -1.36,-16.8 8.34,0.96 20.8,16.76 26.93,22.07"
             style="fill:#100f0d;fill-opacity:1;fill-rule:nonzero;stroke:none"
             id="path254065" />
          <path
             d="m 1252.82,1251.21 c 1.75,3.99 3.47,8.71 1.29,12.48 -2.74,4.73 -10.22,4.43 -14.29,0.76 -4.05,-3.65 -5.55,-9.3 -6.75,-14.63 -1.35,-5.9 -2.58,-11.84 -3.79,-17.78 -1.7,-8.24 2.59,-16.73 10.51,-9.35 6.27,5.85 9.59,20.68 13.03,28.52"
             style="fill:#100f0d;fill-opacity:1;fill-rule:nonzero;stroke:none"
             id="path254067" />
          <path
             d="m 1288.31,1184.43 c 6.12,-21.98 -0.72,-47.07 -17.15,-62.91 -16.43,-15.83 -41.77,-21.73 -63.5,-14.79 -25.02,7.99 -43.42,32.15 -46.66,58.21 -2.45,19.75 3.66,41.01 18.29,54.5 34.62,31.94 97.17,7.51 109.02,-35.01"
             style="fill:#ffffff;fill-opacity:1;fill-rule:nonzero;stroke:none"
             id="path254069" />
          <path
             d="m 1218.16,1152.44 c -20.52,-2.34 -24.04,29.54 -4.25,32.53 20.39,3.07 25.48,-30.11 4.25,-32.53"
             style="fill:#100f0d;fill-opacity:1;fill-rule:nonzero;stroke:none"
             id="path254071" />
          <path
             d="m 1177.05,1360.43 c 1.66,1.73 3.36,3.52 4.22,5.75 0.86,2.24 0.68,5.05 -1.07,6.68 -1.71,1.59 -4.44,1.62 -6.58,0.69 -2.15,-0.92 -3.83,-2.63 -5.47,-4.3 -5.36,-5.47 -10.72,-10.94 -16.07,-16.42 -4.44,-4.52 -11.88,-19.37 0.19,-16.84 8.21,1.72 19.17,18.59 24.78,24.44"
             style="fill:#100f0d;fill-opacity:1;fill-rule:nonzero;stroke:none"
             id="path254073" />
          <path
             d="m 1130.9,1387.14 c 1.38,4.12 2.66,8.99 0.14,12.54 -3.16,4.46 -10.58,3.46 -14.29,-0.54 -3.71,-4.01 -4.67,-9.77 -5.39,-15.19 -0.79,-6.01 -1.47,-12.04 -2.14,-18.05 -0.93,-8.37 4.12,-16.43 11.33,-8.36 5.71,6.4 7.65,21.47 10.35,29.6"
             style="fill:#100f0d;fill-opacity:1;fill-rule:nonzero;stroke:none"
             id="path254075" />
          <path
             d="m 1172.37,1323.91 c 8.12,-21.33 3.61,-46.95 -11.3,-64.22 -14.91,-17.28 -39.59,-25.48 -61.88,-20.57 -25.64,5.67 -46.18,28.03 -51.8,53.68 -4.25,19.45 -0.12,41.18 13.21,55.96 31.54,34.98 96.07,16.4 111.77,-24.85"
             style="fill:#ffffff;fill-opacity:1;fill-rule:nonzero;stroke:none"
             id="path254077" />
          <path
             d="m 1105.46,1285.61 c -20.22,-4.22 -26.66,27.21 -7.22,32 20.03,4.93 28.14,-27.65 7.22,-32"
             style="fill:#100f0d;fill-opacity:1;fill-rule:nonzero;stroke:none"
             id="path254079" />
          <path
             d="m 908.285,1516.8 c -1.168,2.58 -2.351,5.25 -2.43,8.08 -0.074,2.83 1.235,5.9 3.836,7.03 2.536,1.11 5.59,0.05 7.614,-1.83 2.027,-1.89 3.238,-4.46 4.398,-6.96 3.809,-8.23 7.621,-16.45 11.434,-24.67 3.152,-6.8 5.578,-26.31 -6.883,-18.72 -8.481,5.16 -14.024,28.32 -17.969,37.07"
             style="fill:#100f0d;fill-opacity:1;fill-rule:nonzero;stroke:none"
             id="path254081" />
          <path
             d="m 970.313,1528.33 c 0.097,5.15 0.593,11.08 4.808,14.04 5.289,3.72 13.18,-0.32 15.723,-6.26 2.551,-5.94 1.347,-12.75 0.008,-19.08 -1.497,-7.01 -3.122,-13.99 -4.758,-20.98 -2.27,-9.69 -11.09,-16.68 -15.938,-4.83 -3.843,9.4 -0.035,26.98 0.157,37.11"
             style="fill:#100f0d;fill-opacity:1;fill-rule:nonzero;stroke:none"
             id="path254083" />
          <path
             d="m 899.055,1474.22 c -17.492,-20.58 -22.602,-50.93 -12.805,-76.1 9.797,-25.16 34.078,-44.07 60.875,-47.41 30.84,-3.84 62.595,12.99 79.005,39.38 12.44,20 16.43,45.87 7.41,67.62 -21.34,51.49 -100.653,56.29 -134.485,16.51"
             style="fill:#ffffff;fill-opacity:1;fill-rule:nonzero;stroke:none"
             id="path254085" />
          <path
             d="m 950.625,1405.03 c 20.883,-12.7 40.504,19.8 20.715,32.83 -20.383,13.42 -42.317,-19.7 -20.715,-32.83"
             style="fill:#100f0d;fill-opacity:1;fill-rule:nonzero;stroke:none"
             id="path254087" />
          <path
             d="m 896.078,1227.47 c -11.687,-5.6 -22.859,-12.84 -31.035,-22.91 -8.172,-10.06 -13.086,-23.25 -11.234,-36.08 1.855,-12.84 11.328,-24.8 23.984,-27.6 8.367,-1.85 17.402,0.2 25.477,-2.67 5.8,-2.07 10.418,-6.44 15.339,-10.14 15.18,-11.41 34.707,-16.9 53.61,-15.05 18.898,1.84 36.991,10.99 49.681,25.13 20.95,0.97 40.24,17.58 43.99,38.21 3.75,20.62 -8.66,43.13 -28.22,50.67 -3.52,1.36 -7.37,2.35 -10.03,5.02 -3.41,3.42 -4.03,8.63 -4.6,13.43 -3.81,32.05 -17.28,65.41 -49.981,77.52 -29.551,10.94 -54.106,-19.23 -65.797,-42.79 -4.172,-8.39 -7.285,-17.31 -9.18,-26.49 -0.555,-2.67 -1.461,-25.99 -2.004,-26.25"
             style="fill:#f7913b;fill-opacity:1;fill-rule:nonzero;stroke:none"
             id="path254089" />
        </g>
      </g>
      <g
         id="g254091"
         transform="matrix(0.13333333,0,0,-0.13333333,1930,666.66667)">
        <g
           id="g254093"
           clip-path="url(#clipPath254097)">
          <g
             id="g254099"
             clip-path="url(#clipPath254103)">
            <path
               d="m 872.078,1079.39 c -20.945,2.63 -43.5,5.91 -62.129,-4.02 -18.363,-9.78 -28.519,-30.6 -31.644,-51.18 -5.399,-35.542 7.207,-72.51 29.976,-100.319 22.77,-27.82 54.918,-46.961 89.059,-58.199 58.398,-19.223 125.7,-15.262 177.63,17.648 50.68,32.121 84.63,94.508 75.26,155.03 -3.88,25.08 -15.14,50.33 -43.51,49.36 -32.75,-1.12 -65.65,-10.23 -98.57,-12.37 -45.345,-2.95 -90.978,-1.61 -136.072,4.05"
               style="fill:#100f0d;fill-opacity:1;fill-rule:nonzero;stroke:none"
               id="path254105" />
            <path
               d="m 873.398,974.5 c 6.899,-8.879 18.715,-17.68 28.336,-11.852 5.707,3.454 7.696,10.653 9.129,17.161 6.825,30.871 12.102,62.091 15.813,93.491 2.371,20.05 2.98,43.31 -11.848,57.02 -14.539,13.45 -39.933,12.34 -56.051,2.19 -13.175,-8.29 -12.808,-20.63 -14.578,-34.82 -5.465,-44.03 1.328,-87.31 29.199,-123.19"
               style="fill:#ffffff;fill-opacity:1;fill-rule:nonzero;stroke:none"
               id="path254107" />
            <path
               d="m 1071.89,974.5 c -6.89,-8.879 -18.71,-17.68 -28.33,-11.852 -5.7,3.454 -7.69,10.653 -9.13,17.161 -6.82,30.871 -12.1,62.091 -15.81,93.491 -2.37,20.05 -2.99,43.31 11.84,57.02 14.55,13.45 39.95,12.34 56.06,2.19 13.18,-8.29 12.81,-20.63 14.57,-34.82 5.47,-44.03 -1.32,-87.31 -29.2,-123.19"
               style="fill:#ffffff;fill-opacity:1;fill-rule:nonzero;stroke:none"
               id="path254109" />
            <path
               d="m 893.422,942.68 c 6.25,-2.461 4.848,-10.469 6.297,-18.289 4.64,-25.059 18.519,-50.559 11.476,-76.532 -10.527,-38.828 -63.59,-28.168 -61.191,9.86 1.519,24.082 7.922,59.492 24.906,77.672 3.465,3.711 7.863,7.941 13.332,8.05 2.149,0.039 3.836,-0.242 5.18,-0.761"
               style="fill:#ffffff;fill-opacity:1;fill-rule:nonzero;stroke:none"
               id="path254111" />
            <path
               d="m 1046.61,942.68 c -6.25,-2.461 -4.85,-10.469 -6.29,-18.289 -4.65,-25.059 -18.53,-50.559 -11.49,-76.532 10.54,-38.828 63.6,-28.168 61.2,9.86 -1.52,24.082 -7.93,59.492 -24.91,77.672 -3.46,3.711 -7.86,7.941 -13.33,8.05 -2.15,0.039 -3.84,-0.242 -5.18,-0.761"
               style="fill:#ffffff;fill-opacity:1;fill-rule:nonzero;stroke:none"
               id="path254113" />
          </g>
        </g>
      </g>
    </g>
  </g>
</svg>
