<?xml version="1.0" encoding="UTF-8" standalone="no"?>
<!-- Created with Inkscape (http://www.inkscape.org/) -->

<svg
   width="178.49094"
   height="178.49066"
   viewBox="0 0 178.49094 178.49066"
   version="1.1"
   id="svg5"
   inkscape:version="1.2.2 (b0a8486541, 2022-12-01)"
   inkscape:export-filename="card_red.png"
   inkscape:export-xdpi="96"
   inkscape:export-ydpi="96"
   sodipodi:docname="avatar_1.svg"
   xmlns:inkscape="http://www.inkscape.org/namespaces/inkscape"
   xmlns:sodipodi="http://sodipodi.sourceforge.net/DTD/sodipodi-0.dtd"
   xmlns="http://www.w3.org/2000/svg"
   xmlns:svg="http://www.w3.org/2000/svg">
  <sodipodi:namedview
     id="namedview7"
     pagecolor="#677178"
     bordercolor="#171c20"
     borderopacity="1"
     inkscape:showpageshadow="false"
     inkscape:pageopacity="0"
     inkscape:pagecheckerboard="0"
     inkscape:deskcolor="#25292d"
     inkscape:document-units="px"
     showgrid="false"
     showborder="false"
     borderlayer="true"
     inkscape:zoom="1.1796296"
     inkscape:cx="86.89168"
     inkscape:cy="72.480377"
     inkscape:window-width="1920"
     inkscape:window-height="1044"
     inkscape:window-x="0"
     inkscape:window-y="0"
     inkscape:window-maximized="1"
     inkscape:current-layer="layer1" />
  <defs
     id="defs2">
    <clipPath
       clipPathUnits="userSpaceOnUse"
       id="clipPath55488">
      <path
         id="path55490"
         style="fill:#008080;stroke-width:0.133333"
         d="m 3456.5313,314.00653 c -0.741,0 -1.3656,0.62892 -1.3656,1.47932 v 37.74399 c 0,0.8504 0.6246,1.47932 1.3656,1.47932 h 22.0219 c 0.74,0 1.3651,-0.62902 1.3651,-1.47932 v -37.74399 c 0,-0.8503 -0.6251,-1.47931 -1.3651,-1.47932 z" />
    </clipPath>
    <clipPath
       clipPathUnits="userSpaceOnUse"
       id="clipPath287942">
      <path
         id="path287940"
         style="fill:#008080;stroke-width:0.133333"
         d="m 3456.5313,314.00653 c -0.741,0 -1.3656,0.62892 -1.3656,1.47932 v 37.74399 c 0,0.8504 0.6246,1.47932 1.3656,1.47932 h 22.0219 c 0.74,0 1.3651,-0.62902 1.3651,-1.47932 v -37.74399 c 0,-0.8503 -0.6251,-1.47931 -1.3651,-1.47932 z" />
    </clipPath>
    <clipPath
       clipPathUnits="userSpaceOnUse"
       id="clipPath253439">
      <path
         d="m 1640.67,4053.14 c 0,-369.67 -299.67,-669.34 -669.338,-669.34 -369.668,0 -669.344,299.67 -669.344,669.34 0,369.67 299.676,669.34 669.344,669.34 369.668,0 669.338,-299.67 669.338,-669.34 z"
         id="path253437" />
    </clipPath>
    <clipPath
       clipPathUnits="userSpaceOnUse"
       id="clipPath253449">
      <path
         d="m 1640.67,4053.14 c 0,-369.67 -299.67,-669.34 -669.338,-669.34 -369.668,0 -669.344,299.67 -669.344,669.34 0,369.67 299.676,669.34 669.344,669.34 369.668,0 669.338,-299.67 669.338,-669.34 z"
         id="path253447" />
    </clipPath>
    <clipPath
       clipPathUnits="userSpaceOnUse"
       id="clipPath253455">
      <path
         d="m 945.746,4543.82 c -19.168,-1.89 -37.973,-4.86 -56.137,-8.88 -101.777,-22.54 -211.937,-85.77 -269.98,-177.9 -25.551,-40.56 -41.113,-75.67 -53.512,-122.94 -13.297,-50.68 -23.301,-102.27 -30.73,-154.22 -20.762,-145.16 -23.926,-294.07 -20.938,-440.2 0.985,-48.05 2.211,-97.38 19.774,-141.82 29.82,-75.43 96.011,-88.87 164.843,-105.47 103.047,-24.87 212.493,-16.43 317.354,-15.72 100.63,0.68 206.85,-8.31 303.7,24 73.35,24.47 91.17,120.45 101.03,191.44 13.93,100.31 5.17,200.78 -3.28,301.07 -8.84,104.91 -23.54,209.28 -44.03,312.41 -16.32,82.11 -38.04,166.97 -91.8,229.37 -37.6,43.63 -88.71,73.11 -142.62,89.97 -61.92,19.37 -129.42,25.23 -193.674,18.89 z"
         id="path253453" />
    </clipPath>
    <clipPath
       clipPathUnits="userSpaceOnUse"
       id="clipPath253513">
      <path
         d="m 1640.67,4053.14 c 0,-369.67 -299.67,-669.34 -669.338,-669.34 -369.668,0 -669.344,299.67 -669.344,669.34 0,369.67 299.676,669.34 669.344,669.34 369.668,0 669.338,-299.67 669.338,-669.34 z"
         id="path253511" />
    </clipPath>
  </defs>
  <g
     inkscape:label="Capa 1"
     inkscape:groupmode="layer"
     id="layer1"
     transform="translate(-393.67177,-339.9564)">
    <g
       id="g255866"
       transform="translate(-1576.5933,302.95371)"
       inkscape:export-filename="avatar_1.png"
       inkscape:export-xdpi="96"
       inkscape:export-ydpi="96">
      <g
         id="g253433"
         transform="matrix(0.13333333,0,0,-0.13333333,1930,666.66667)">
        <g
           id="g253435"
           clip-path="url(#clipPath253439)">
          <path
             d="m 1640.67,4053.14 c 0,-369.67 -299.67,-669.34 -669.338,-669.34 -369.668,0 -669.344,299.67 -669.344,669.34 0,369.67 299.676,669.34 669.344,669.34 369.668,0 669.338,-299.67 669.338,-669.34"
             style="fill:#2e212c;fill-opacity:0;fill-rule:nonzero;stroke:none"
             id="path253441" />
        </g>
      </g>
      <g
         id="g253443"
         transform="matrix(0.13333333,0,0,-0.13333333,1930,666.66667)">
        <g
           id="g253445"
           clip-path="url(#clipPath253449)">
          <g
             id="g253451"
             clip-path="url(#clipPath253455)">
            <path
               d="m 945.746,4543.82 c -19.168,-1.89 -37.973,-4.86 -56.137,-8.88 -101.777,-22.54 -211.937,-85.77 -269.98,-177.9 -25.551,-40.56 -41.113,-75.67 -53.512,-122.94 -13.297,-50.68 -23.301,-102.27 -30.73,-154.22 -20.762,-145.16 -23.926,-294.07 -20.938,-440.2 0.985,-48.05 2.211,-97.38 19.774,-141.82 29.82,-75.43 96.011,-88.87 164.843,-105.47 103.047,-24.87 212.493,-16.43 317.354,-15.72 100.63,0.68 206.85,-8.31 303.7,24 73.35,24.47 91.17,120.45 101.03,191.44 13.93,100.31 5.17,200.78 -3.28,301.07 -8.84,104.91 -23.54,209.28 -44.03,312.41 -16.32,82.11 -38.04,166.97 -91.8,229.37 -37.6,43.63 -88.71,73.11 -142.62,89.97 -61.92,19.37 -129.42,25.23 -193.674,18.89"
               style="fill:#fbc434;fill-opacity:1;fill-rule:nonzero;stroke:none"
               id="path253457" />
            <path
               d="m 510.996,3857.96 c -11.223,-23.24 -14.789,-49.55 -18.203,-75.31 -1.211,-9.13 -2.422,-18.27 -3.633,-27.4 -0.844,-6.4 -1.656,-13.16 0.735,-19.13 1.593,-3.98 4.507,-7.26 7.761,-9.94 16.992,-14 42.754,-11.6 60.758,0.96 18.004,12.55 29.363,33.19 37.035,54.3 9.207,25.33 14.004,52.39 14.086,79.47 0.078,25.37 -13.707,54.64 -42.461,47.01 -23.707,-6.29 -45.379,-27.81 -56.078,-49.96"
               style="fill:#eda224;fill-opacity:1;fill-rule:nonzero;stroke:none"
               id="path253459" />
            <path
               d="m 586.754,3993.67 c -3.117,-20.8 12.738,-40.64 31.586,-48.21 5.57,-2.23 11.508,-3.68 17.476,-3.43 18.762,0.78 33.516,18.13 39.676,36.6 2.926,8.77 4.453,18.32 2.391,27.35 -12.938,56.47 -83.992,35.35 -91.129,-12.31"
               style="fill:#eda224;fill-opacity:1;fill-rule:nonzero;stroke:none"
               id="path253461" />
            <path
               d="m 569.371,4142.09 c -7.301,-4.26 -14.41,-10.23 -16.66,-18.63 -1.93,-7.22 0.059,-14.84 1.105,-22.25 1.633,-11.55 0.93,-23.44 -2.046,-34.69 -1.676,-6.31 -3.922,-13.59 -0.309,-18.94 3.141,-4.65 9.367,-5.58 14.828,-5.34 24.477,1.12 47.477,18.97 55.488,43.09 2.086,6.27 3.219,12.82 4.344,19.34 2.274,13.11 4.332,27.54 -2.183,39.01 -11.086,19.48 -39.602,7.14 -54.567,-1.59"
               style="fill:#eda224;fill-opacity:1;fill-rule:nonzero;stroke:none"
               id="path253463" />
            <path
               d="m 546.086,4262.26 c -5.582,-9.91 -11.035,-20.54 -11.137,-32.03 -0.144,-17.71 13.117,-33.37 28.957,-39.77 15.844,-6.4 33.633,-5.07 50.215,-1.19 4.664,1.1 9.418,2.44 13.227,5.45 7.082,5.59 9.375,15.75 8.906,24.99 -0.469,9.25 -3.168,18.22 -3.984,27.43 -0.864,9.8 0.457,19.81 3.824,29.01 5.301,14.48 15.73,27.72 15.211,43.21 -0.371,10.96 -6.867,21.46 -16.289,26.35 -40.012,20.74 -73.825,-56.62 -88.93,-83.45"
               style="fill:#eda224;fill-opacity:1;fill-rule:nonzero;stroke:none"
               id="path253465" />
            <path
               d="m 647.02,4403.52 c 7.136,-9.94 23.14,-9.43 29.562,-19.89 6.086,-9.89 -0.078,-23.44 3.59,-34.55 4.437,-13.45 21.621,-17.63 34.683,-13.47 15.79,5.03 28.196,18.85 34.29,34.85 6.093,15.99 6.378,33.91 3.304,50.81 -4.484,24.68 -19.203,53.5 -45.965,40.7 -24.496,-11.71 -45.847,-34.62 -59.464,-58.45"
               style="fill:#eda224;fill-opacity:1;fill-rule:nonzero;stroke:none"
               id="path253467" />
            <path
               d="m 545.895,3665.15 c 4.89,2.01 10.339,3.76 15.332,2.01 7.507,-2.62 10.652,-11.68 12.812,-19.63 14.297,-52.5 28.426,-109.67 8.934,-160.32 -4.02,-10.44 -10.301,-21.12 -20.539,-24.7 -8.786,-3.06 -18.594,-0.08 -26.473,5 -18.656,12.05 -28.633,34.13 -37.609,54.99 -10.582,24.58 -27.059,60.72 -16.926,88.26 9.156,24.89 42.047,45.15 64.469,54.39"
               style="fill:#eda224;fill-opacity:1;fill-rule:nonzero;stroke:none"
               id="path253469" />
            <path
               d="m 593.434,3657.02 c 12.859,0.88 24.425,10.28 29.929,22.43 7.711,17 4.567,67.26 -23.797,52.04 -10.988,-5.9 -15.648,-20.43 -16.211,-32.36 -0.242,-5.01 4.985,-42.46 10.079,-42.11"
               style="fill:#eda224;fill-opacity:1;fill-rule:nonzero;stroke:none"
               id="path253471" />
            <path
               d="m 678.23,4302.48 c -9.542,-7.81 -16.667,-20.03 -15.398,-32.61 0.238,-2.38 0.82,-4.83 2.348,-6.63 2.343,-2.75 6.258,-3.25 9.785,-3.28 12.652,-0.13 25.324,3.38 36.246,10.02 13.523,8.25 27.449,29.16 11.355,43.12 -12.539,10.88 -33.621,-1.86 -44.336,-10.62"
               style="fill:#eda224;fill-opacity:1;fill-rule:nonzero;stroke:none"
               id="path253473" />
            <path
               d="m 814.695,4419.73 c 7.625,-2.71 15.825,1.37 22.676,5.76 17.426,11.17 33.59,25.77 42.363,45.02 8.778,19.26 8.836,43.79 -3.726,60.61 -19.922,26.69 -86.219,31.79 -98.875,-6.09 -5.438,-16.27 5.949,-33.73 11.73,-48.02 6.239,-15.41 8.032,-50.96 25.832,-57.28"
               style="fill:#eda224;fill-opacity:1;fill-rule:nonzero;stroke:none"
               id="path253475" />
            <path
               d="m 777.355,4367.09 c -1.472,-3.32 -2.007,-7 -2.535,-10.63 -0.761,-5.25 -1.519,-10.51 -2.281,-15.78 -0.715,-4.91 -1.394,-10.12 0.399,-14.73 1.554,-3.98 4.835,-7.04 8.511,-9 12.621,-6.72 27.989,-1.16 40.371,6.03 6.075,3.54 12.188,7.7 15.602,14.02 3.75,6.93 3.676,15.34 3.441,23.29 -1.101,37.75 -49.968,37.5 -63.508,6.8"
               style="fill:#eda224;fill-opacity:1;fill-rule:nonzero;stroke:none"
               id="path253477" />
            <path
               d="m 642.496,3912.81 c 22.625,19.84 42.195,-14.35 22.559,-39.11 -4.66,-5.88 -10.735,-11.75 -18.043,-11.51 -23.938,0.8 -21.016,31.17 -9.629,45.24 1.715,2.11 3.418,3.9 5.113,5.38"
               style="fill:#eda224;fill-opacity:1;fill-rule:nonzero;stroke:none"
               id="path253479" />
            <path
               d="m 1453.72,3857.96 c 11.22,-23.24 14.79,-49.55 18.2,-75.31 1.21,-9.13 2.42,-18.27 3.63,-27.4 0.85,-6.4 1.66,-13.16 -0.73,-19.13 -1.59,-3.98 -4.51,-7.26 -7.76,-9.94 -16.99,-14 -42.75,-11.6 -60.76,0.96 -18,12.55 -29.36,33.19 -37.04,54.3 -9.2,25.33 -14,52.39 -14.08,79.47 -0.08,25.37 13.7,54.64 42.46,47.01 23.71,-6.29 45.38,-27.81 56.08,-49.96"
               style="fill:#eda224;fill-opacity:1;fill-rule:nonzero;stroke:none"
               id="path253481" />
            <path
               d="m 1377.96,3993.67 c 3.11,-20.8 -12.74,-40.64 -31.59,-48.21 -5.57,-2.23 -11.51,-3.68 -17.47,-3.43 -18.76,0.78 -33.51,18.13 -39.68,36.6 -2.93,8.77 -4.45,18.32 -2.39,27.35 12.94,56.47 83.99,35.35 91.13,-12.31"
               style="fill:#eda224;fill-opacity:1;fill-rule:nonzero;stroke:none"
               id="path253483" />
            <path
               d="m 1395.34,4142.09 c 7.3,-4.26 14.41,-10.23 16.66,-18.63 1.94,-7.22 -0.06,-14.84 -1.1,-22.25 -1.64,-11.55 -0.93,-23.44 2.05,-34.69 1.67,-6.31 3.92,-13.59 0.31,-18.94 -3.15,-4.65 -9.38,-5.58 -14.84,-5.34 -24.47,1.12 -47.47,18.97 -55.49,43.09 -2.08,6.27 -3.21,12.82 -4.34,19.34 -2.27,13.11 -4.33,27.54 2.19,39.01 11.08,19.48 39.6,7.14 54.56,-1.59"
               style="fill:#eda224;fill-opacity:1;fill-rule:nonzero;stroke:none"
               id="path253485" />
            <path
               d="m 1418.63,4262.26 c 5.58,-9.91 11.04,-20.54 11.13,-32.03 0.15,-17.71 -13.11,-33.37 -28.95,-39.77 -15.85,-6.4 -33.64,-5.07 -50.21,-1.19 -4.67,1.1 -9.43,2.44 -13.24,5.45 -7.07,5.59 -9.37,15.75 -8.9,24.99 0.47,9.25 3.17,18.22 3.98,27.43 0.87,9.8 -0.45,19.81 -3.82,29.01 -5.3,14.48 -15.73,27.72 -15.21,43.21 0.37,10.96 6.86,21.46 16.29,26.35 40.01,20.74 73.83,-56.62 88.93,-83.45"
               style="fill:#eda224;fill-opacity:1;fill-rule:nonzero;stroke:none"
               id="path253487" />
            <path
               d="m 1317.7,4403.52 c -7.14,-9.94 -23.14,-9.43 -29.57,-19.89 -6.08,-9.89 0.08,-23.44 -3.58,-34.55 -4.45,-13.45 -21.63,-17.63 -34.69,-13.47 -15.79,5.03 -28.2,18.85 -34.29,34.85 -6.1,15.99 -6.38,33.91 -3.3,50.81 4.48,24.68 19.2,53.5 45.96,40.7 24.49,-11.71 45.85,-34.62 59.47,-58.45"
               style="fill:#eda224;fill-opacity:1;fill-rule:nonzero;stroke:none"
               id="path253489" />
            <path
               d="m 1418.82,3665.15 c -4.89,2.01 -10.34,3.76 -15.33,2.01 -7.51,-2.62 -10.65,-11.68 -12.82,-19.63 -14.29,-52.5 -28.42,-109.67 -8.93,-160.32 4.02,-10.44 10.3,-21.12 20.54,-24.7 8.78,-3.06 18.59,-0.08 26.47,5 18.66,12.05 28.63,34.13 37.62,54.99 10.57,24.58 27.05,60.72 16.92,88.26 -9.15,24.89 -42.05,45.15 -64.47,54.39"
               style="fill:#eda224;fill-opacity:1;fill-rule:nonzero;stroke:none"
               id="path253491" />
            <path
               d="m 1371.28,3657.02 c -12.86,0.88 -24.42,10.28 -29.93,22.43 -7.71,17 -4.57,67.26 23.8,52.04 10.98,-5.9 15.65,-20.43 16.21,-32.36 0.24,-5.01 -4.99,-42.46 -10.08,-42.11"
               style="fill:#eda224;fill-opacity:1;fill-rule:nonzero;stroke:none"
               id="path253493" />
            <path
               d="m 1286.48,4302.48 c 9.55,-7.81 16.67,-20.03 15.4,-32.61 -0.23,-2.38 -0.82,-4.83 -2.35,-6.63 -2.34,-2.75 -6.25,-3.25 -9.78,-3.28 -12.66,-0.13 -25.32,3.38 -36.24,10.02 -13.53,8.25 -27.46,29.16 -11.36,43.12 12.54,10.88 33.62,-1.86 44.33,-10.62"
               style="fill:#eda224;fill-opacity:1;fill-rule:nonzero;stroke:none"
               id="path253495" />
            <path
               d="m 1150.01,4419.73 c -7.61,-2.71 -15.81,1.37 -22.67,5.76 -17.42,11.17 -33.59,25.77 -42.36,45.02 -8.77,19.26 -8.83,43.79 3.73,60.61 19.92,26.69 86.21,31.79 98.87,-6.09 5.44,-16.27 -5.94,-33.73 -11.73,-48.02 -6.24,-15.41 -8.03,-50.96 -25.84,-57.28"
               style="fill:#eda224;fill-opacity:1;fill-rule:nonzero;stroke:none"
               id="path253497" />
            <path
               d="m 1187.36,4367.09 c 1.47,-3.32 2.01,-7 2.53,-10.63 0.76,-5.25 1.53,-10.51 2.29,-15.78 0.71,-4.91 1.39,-10.12 -0.4,-14.73 -1.56,-3.98 -4.84,-7.04 -8.51,-9 -12.63,-6.72 -28,-1.16 -40.38,6.03 -6.07,3.54 -12.18,7.7 -15.6,14.02 -3.75,6.93 -3.67,15.34 -3.44,23.29 1.1,37.75 49.97,37.5 63.51,6.8"
               style="fill:#eda224;fill-opacity:1;fill-rule:nonzero;stroke:none"
               id="path253499" />
            <path
               d="m 1322.22,3912.81 c -22.63,19.84 -42.2,-14.35 -22.56,-39.11 4.66,-5.88 10.73,-11.75 18.05,-11.51 23.93,0.8 21.01,31.17 9.62,45.24 -1.71,2.11 -3.42,3.9 -5.11,5.38"
               style="fill:#eda224;fill-opacity:1;fill-rule:nonzero;stroke:none"
               id="path253501" />
            <path
               d="m 896.086,4515.37 c 6.086,-16.03 30.965,-15.04 38.723,-30.26 3.445,-6.76 2.496,-15.04 4.82,-22.3 4.25,-13.26 18.934,-20.42 32.336,-19.71 13.394,0.71 25.723,7.55 37.235,14.71 10.76,6.69 21.83,14.46 26.9,26.38 2.99,7.02 3.61,14.89 3.44,22.57 -0.19,8.87 -1.39,17.81 -4.69,25.99 -6.55,16.25 -21.37,28.26 -37.862,32.13 -40.008,9.41 -82.199,-12.72 -100.902,-49.51"
               style="fill:#eda224;fill-opacity:1;fill-rule:nonzero;stroke:none"
               id="path253503" />
            <path
               d="m 1061.79,4451.52 c 19.36,-2.97 32.36,-33.82 10.03,-44.02 -7.19,-3.29 -15.5,-0.61 -22.76,2.5 -7.21,3.1 -14.85,7.23 -17.86,14.73 -8.06,20.09 13.38,27.96 28.81,26.98 0.61,-0.03 1.2,-0.1 1.78,-0.19"
               style="fill:#eda224;fill-opacity:1;fill-rule:nonzero;stroke:none"
               id="path253505" />
          </g>
        </g>
      </g>
      <g
         id="g253507"
         transform="matrix(0.13333333,0,0,-0.13333333,1930,666.66667)">
        <g
           id="g253509"
           clip-path="url(#clipPath253513)">
          <path
             d="m 440.797,4112.23 c -18.926,-5.66 -36.422,-18.1 -46.086,-35.98 -8.504,-15.73 -10.481,-34.48 -9.43,-52.5 0.981,-16.64 4.66,-33.74 14.492,-46.89 9.219,-12.32 23.082,-20.11 37.43,-24.66 23.192,-7.37 48.32,-7.02 71.86,-0.96 13.73,3.53 27.261,9.12 38.085,18.61 28.899,25.34 34.145,80.33 10.657,111.78 -24.36,32.61 -81.453,41.22 -117.008,30.6"
             style="fill:#fbc434;fill-opacity:1;fill-rule:nonzero;stroke:none"
             id="path253515" />
          <path
             d="m 463.988,4079.86 c -13.812,-2.22 -26.547,-10.91 -34.004,-23.23 -2.929,-4.84 -5.086,-10.95 -2.906,-16.21 2.856,-6.86 11.535,-8.67 18.629,-7.53 7.098,1.15 14.027,4.26 21.172,3.55 1.851,-0.19 3.723,-0.66 5.234,-1.78 5.371,-4 2.985,-13.02 -1.347,-18.21 -4.328,-5.19 -10.332,-9.67 -11.403,-16.45 -1.652,-10.5 9.723,-18.37 19.875,-19.52 20.059,-2.29 40.782,11.26 47.535,31.07 13.594,39.9 -26.89,74.09 -62.785,68.31"
             style="fill:#ef8026;fill-opacity:1;fill-rule:nonzero;stroke:none"
             id="path253517" />
          <path
             d="m 455.563,3830.73 c -4.848,-11.26 -17.805,-18.09 -29.352,-15.31 -11.547,2.79 -20.316,15.11 -19.297,27.4 1.215,14.85 17.727,31.59 32.332,26.71 14.692,-4.95 22.516,-24.44 16.317,-38.8 z m 26.183,45.34 c -16.59,29.03 -52.422,30.07 -78.109,14.54 -12.653,-7.68 -22.106,-20.71 -26.102,-35.39 -7.609,-28.11 4.356,-59 30.981,-69.8 17.554,-7.12 43.906,-6.87 58.347,6.92 7.028,6.69 10.996,16.11 14.196,25.41 6.558,18.92 10.582,41.03 0.687,58.32"
             style="fill:#f5f581;fill-opacity:1;fill-rule:nonzero;stroke:none"
             id="path253519" />
          <path
             d="m 409.441,3906.74 c -2.132,-16.03 -1.992,-34.49 9.207,-45.7 5.258,-5.27 12.586,-8.22 19.875,-8 3.047,0.09 6.184,0.76 8.625,2.66 3.34,2.61 4.809,7.01 6.032,11.17 7.285,24.77 12.187,50.51 11.715,76.41 -0.286,15.47 -11.532,50.78 -32.422,35.06 -16.336,-12.29 -20.493,-52.55 -23.032,-71.6"
             style="fill:#fdfddc;fill-opacity:1;fill-rule:nonzero;stroke:none"
             id="path253521" />
          <path
             d="m 1501.87,4112.23 c 18.93,-5.66 36.42,-18.1 46.08,-35.98 8.51,-15.73 10.49,-34.48 9.43,-52.5 -0.97,-16.64 -4.66,-33.74 -14.49,-46.89 -9.22,-12.32 -23.08,-20.11 -37.43,-24.66 -23.19,-7.37 -48.32,-7.02 -71.86,-0.96 -13.73,3.53 -27.26,9.12 -38.08,18.61 -28.9,25.34 -34.15,80.33 -10.66,111.78 24.36,32.61 81.45,41.22 117.01,30.6"
             style="fill:#fbc434;fill-opacity:1;fill-rule:nonzero;stroke:none"
             id="path253523" />
          <path
             d="m 1478.68,4079.86 c 13.81,-2.22 26.54,-10.91 34,-23.23 2.93,-4.84 5.09,-10.95 2.91,-16.21 -2.86,-6.86 -11.54,-8.67 -18.64,-7.53 -7.09,1.15 -14.02,4.26 -21.17,3.55 -1.84,-0.19 -3.72,-0.66 -5.23,-1.78 -5.37,-4 -2.99,-13.02 1.34,-18.21 4.34,-5.19 10.34,-9.67 11.41,-16.45 1.66,-10.5 -9.72,-18.37 -19.87,-19.52 -20.07,-2.29 -40.79,11.26 -47.54,31.07 -13.6,39.9 26.89,74.09 62.79,68.31"
             style="fill:#ef8026;fill-opacity:1;fill-rule:nonzero;stroke:none"
             id="path253525" />
          <path
             d="m 1503.42,3869.53 c 14.61,4.88 31.12,-11.86 32.33,-26.71 1.02,-12.29 -7.75,-24.61 -19.29,-27.4 -11.55,-2.78 -24.51,4.05 -29.36,15.31 -6.2,14.36 1.63,33.85 16.32,38.8 z m -41.81,-51.78 c 3.19,-9.3 7.16,-18.72 14.19,-25.41 14.44,-13.79 40.79,-14.04 58.35,-6.92 26.63,10.8 38.58,41.69 30.98,69.8 -4,14.68 -13.45,27.71 -26.1,35.39 -25.69,15.53 -61.52,14.49 -78.11,-14.54 -9.9,-17.29 -5.87,-39.4 0.69,-58.32"
             style="fill:#f5f581;fill-opacity:1;fill-rule:nonzero;stroke:none"
             id="path253527" />
          <path
             d="m 1533.22,3906.74 c 2.13,-16.03 1.99,-34.49 -9.2,-45.7 -5.26,-5.27 -12.59,-8.22 -19.88,-8 -3.05,0.09 -6.19,0.76 -8.62,2.66 -3.34,2.61 -4.81,7.01 -6.04,11.17 -7.28,24.77 -12.18,50.51 -11.71,76.41 0.29,15.47 11.53,50.78 32.43,35.06 16.32,-12.29 20.48,-52.55 23.02,-71.6"
             style="fill:#fdfddc;fill-opacity:1;fill-rule:nonzero;stroke:none"
             id="path253529" />
          <path
             d="m 663.27,4195.91 c -7.7,-24.72 -7.239,-52.77 4.375,-75.77 13.679,-27.08 41.296,-44.37 70.011,-50.82 10.742,-2.42 21.813,-3.5 32.758,-2.51 39.399,3.57 74.356,36.46 82.945,76.68 8.582,40.22 -9.078,84.78 -41.722,108.04 -59.121,42.12 -127.324,11.91 -148.367,-55.62"
             style="fill:#ffffff;fill-opacity:1;fill-rule:nonzero;stroke:none"
             id="path253531" />
          <path
             d="m 752.336,4193.93 c 12.758,5.65 26.84,3.39 30.777,-15.46 2.278,-10.89 -1.133,-23.04 -9.113,-30.45 -7.984,-7.41 -20.355,-9.47 -29.898,-4.45 -27.664,14.57 -11.266,41.71 8.234,50.36"
             style="fill:#100f0d;fill-opacity:1;fill-rule:nonzero;stroke:none"
             id="path253533" />
          <path
             d="m 869.984,4345.23 c -7.699,-24.72 -7.242,-52.77 4.375,-75.77 13.676,-27.08 41.301,-44.37 70.012,-50.82 10.742,-2.42 21.813,-3.5 32.758,-2.51 39.401,3.57 74.361,36.46 82.941,76.68 8.59,40.23 -9.07,84.78 -41.72,108.04 -59.116,42.12 -127.327,11.92 -148.366,-55.62"
             style="fill:#ffffff;fill-opacity:1;fill-rule:nonzero;stroke:none"
             id="path253535" />
          <path
             d="m 959.055,4343.25 c 12.754,5.65 26.836,3.39 30.773,-15.46 2.277,-10.89 -1.129,-23.03 -9.109,-30.45 -7.985,-7.41 -20.36,-9.47 -29.903,-4.45 -27.668,14.57 -11.265,41.71 8.239,50.36"
             style="fill:#100f0d;fill-opacity:1;fill-rule:nonzero;stroke:none"
             id="path253537" />
          <path
             d="m 1096,4195.91 c -7.7,-24.72 -7.25,-52.77 4.37,-75.77 13.68,-27.08 41.3,-44.37 70.01,-50.82 10.74,-2.42 21.81,-3.5 32.76,-2.51 39.4,3.57 74.36,36.46 82.94,76.68 8.59,40.22 -9.07,84.78 -41.72,108.04 -59.12,42.12 -127.32,11.91 -148.36,-55.62"
             style="fill:#ffffff;fill-opacity:1;fill-rule:nonzero;stroke:none"
             id="path253539" />
          <path
             d="m 1185.06,4193.93 c 12.76,5.65 26.84,3.39 30.78,-15.46 2.28,-10.89 -1.13,-23.04 -9.12,-30.45 -7.98,-7.41 -20.35,-9.47 -29.89,-4.45 -27.67,14.57 -11.27,41.71 8.23,50.36"
             style="fill:#100f0d;fill-opacity:1;fill-rule:nonzero;stroke:none"
             id="path253541" />
          <path
             d="m 1094.1,3824.23 c -0.69,7.36 -1.56,14.7 -2.55,22 -0.69,5.04 -1.47,10.23 -3.99,14.59 -4.08,7.09 -11.93,10.73 -19.48,13.24 -16.56,5.51 -33.96,7.6 -51.28,9.08 -30.941,2.64 -62.034,3.4 -93.062,2.28 -26.773,-0.97 -74.89,0.79 -85.758,-31.94 -1.945,-5.85 -3.503,-12.2 -4.695,-18.82 73.578,-48.36 175.135,-40.03 260.815,-10.43"
             style="fill:#ffffff;fill-opacity:1;fill-rule:nonzero;stroke:none"
             id="path253543" />
          <path
             d="m 1093.35,3770.82 c 0.18,1.1 0.36,2.22 0.5,3.33 2.22,16.59 1.79,33.37 0.25,50.08 -85.68,-29.6 -187.237,-37.93 -260.815,10.43 -3.836,-21.36 -3.621,-45.77 1.488,-67.05 81.829,-30.66 174.527,-25.58 258.577,3.21"
             style="fill:#100f0d;fill-opacity:1;fill-rule:nonzero;stroke:none"
             id="path253545" />
          <path
             d="m 885.879,3753.27 c -4.731,-13.9 -9.109,-28.02 -13.422,-42.27 5.523,-4.01 11.359,-7.57 17.43,-10.56 5.48,-2.7 11.125,-4.97 16.867,-6.95 4.32,18.29 9.574,36.47 14.203,54.86 -11.785,1.07 -23.496,2.66 -35.078,4.92"
             style="fill:#100f0d;fill-opacity:1;fill-rule:nonzero;stroke:none"
             id="path253547" />
          <path
             d="m 920.957,3748.35 c -4.629,-18.39 -9.883,-36.57 -14.203,-54.86 13.578,-4.7 27.758,-7.65 41.957,-9.74 20.336,-2.99 41.102,-4.37 61.369,-0.9 2.04,0.35 4.08,0.79 6.11,1.24 -4.6,22 -8.55,43.85 -11.03,66.09 -28.074,-3.58 -56.355,-4.33 -84.203,-1.83"
             style="fill:#ffffff;fill-opacity:1;fill-rule:nonzero;stroke:none"
             id="path253549" />
          <path
             d="m 1005.16,3750.18 c 2.48,-22.24 6.43,-44.09 11.03,-66.09 10.89,2.45 21.51,6.45 31.14,12.14 -3.26,19.86 -5.67,39.86 -8.26,59.66 -11.24,-2.35 -22.56,-4.26 -33.91,-5.71"
             style="fill:#100f0d;fill-opacity:1;fill-rule:nonzero;stroke:none"
             id="path253551" />
          <path
             d="m 1093.35,3770.82 c -17.76,-6.09 -35.92,-11.09 -54.28,-14.93 2.59,-19.8 5,-39.8 8.26,-59.66 6.38,3.77 12.34,8.25 17.63,13.59 15.85,16 24.83,38.25 28.39,61"
             style="fill:#ffffff;fill-opacity:1;fill-rule:nonzero;stroke:none"
             id="path253553" />
          <path
             d="m 834.773,3767.61 c 2.262,-9.41 5.469,-18.21 9.731,-25.85 6.863,-12.34 16.684,-22.58 27.953,-30.76 4.313,14.25 8.691,28.37 13.422,42.27 -17.371,3.38 -34.469,8.11 -51.106,14.34"
             style="fill:#ffffff;fill-opacity:1;fill-rule:nonzero;stroke:none"
             id="path253555" />
          <path
             d="m 743.668,3952.61 c -74.781,-91.6 -114.742,-216.99 -93.094,-335.11 5.196,-28.35 16.262,-59.11 41.414,-71.22 27.813,-13.39 61.524,2.47 81.996,26.21 53.141,61.63 43.274,162.99 96.184,224.84 32.172,37.61 85.137,53.58 132.172,41.9 47.04,-11.68 86.75,-49.65 104.09,-96.68 9.65,-26.16 12.73,-54.36 17.77,-81.89 5.05,-27.54 12.55,-55.54 29.36,-77.43 16.81,-21.89 44.91,-36.36 70.95,-29.3 20.36,5.51 36.23,23.22 44.51,43.37 8.27,20.16 9.91,42.58 9.62,64.5 -1.5,117.81 -55.11,229.5 -126.85,320.58 -37.24,47.27 -90.44,101.53 -153.267,103.65 -61.089,2.06 -123.566,-22.65 -173.605,-57.57 -30.305,-21.16 -57.633,-46.91 -81.25,-75.85"
             style="fill:#ef8026;fill-opacity:1;fill-rule:nonzero;stroke:none"
             id="path253557" />
          <path
             d="m 921.941,4166.78 c -20.171,-8.85 -37.449,-26.31 -43.421,-48.24 -7.766,-28.52 5.117,-60.42 27.347,-78.93 22.231,-18.5 52.086,-24.9 80.465,-22.76 11.766,0.88 23.608,3.19 34.118,8.75 10.71,5.65 19.65,14.5 26.87,24.48 20.23,27.97 26.04,70.4 4.35,97.15 -28.8,35.5 -91.49,36.32 -129.729,19.55"
             style="fill:#843a32;fill-opacity:1;fill-rule:nonzero;stroke:none"
             id="path253559" />
          <path
             d="m 913.727,4103.09 c 9.742,2.29 21.609,-1.69 27.421,-10.14 6.071,-8.83 6.915,-20.99 3.055,-31.08 -1.691,-4.43 -4.398,-8.69 -8.465,-10.89 -4.633,-2.51 -10.308,-1.96 -15.23,-0.12 -12.836,4.79 -24.883,24.03 -21.09,38.36 2.086,7.88 7.707,12.32 14.309,13.87"
             style="fill:#662623;fill-opacity:1;fill-rule:nonzero;stroke:none"
             id="path253561" />
          <path
             d="m 1023.42,4103.09 c -9.73,2.29 -21.6,-1.69 -27.412,-10.14 -6.074,-8.83 -6.922,-20.99 -3.063,-31.08 1.696,-4.43 4.403,-8.69 8.465,-10.89 4.64,-2.51 10.31,-1.96 15.23,-0.12 12.84,4.79 24.88,24.03 21.09,38.36 -2.09,7.88 -7.71,12.32 -14.31,13.87"
             style="fill:#662623;fill-opacity:1;fill-rule:nonzero;stroke:none"
             id="path253563" />
          <path
             d="m 819.949,3951.84 c -0.07,-10.8 8.903,-20.82 19.25,-21.49 10.348,-0.66 20.434,8.12 21.641,18.85 0.469,4.17 -0.258,8.43 -1.695,12.35 -0.938,2.58 -2.204,5.07 -3.993,7.1 -11.922,13.51 -35.089,-0.43 -35.203,-16.81"
             style="fill:#d3611d;fill-opacity:1;fill-rule:nonzero;stroke:none"
             id="path253565" />
          <path
             d="m 773.098,3900.15 c -0.075,-10.8 8.898,-20.82 19.246,-21.48 10.347,-0.67 20.433,8.12 21.64,18.84 0.469,4.17 -0.257,8.43 -1.695,12.35 -0.937,2.58 -2.199,5.07 -3.992,7.1 -11.918,13.51 -35.09,-0.43 -35.199,-16.81"
             style="fill:#d3611d;fill-opacity:1;fill-rule:nonzero;stroke:none"
             id="path253567" />
          <path
             d="m 731.754,3842.72 c -0.074,-10.8 8.898,-20.82 19.246,-21.48 10.348,-0.67 20.438,8.12 21.641,18.84 0.468,4.17 -0.258,8.43 -1.696,12.35 -0.933,2.58 -2.199,5.07 -3.992,7.1 -11.918,13.51 -35.09,-0.43 -35.199,-16.81"
             style="fill:#d3611d;fill-opacity:1;fill-rule:nonzero;stroke:none"
             id="path253569" />
          <path
             d="m 704.188,3768.06 c -0.071,-10.8 8.902,-20.82 19.25,-21.49 10.347,-0.67 20.441,8.12 21.64,18.85 0.469,4.17 -0.258,8.43 -1.687,12.35 -0.946,2.58 -2.203,5.07 -3.996,7.1 -11.922,13.51 -35.086,-0.43 -35.207,-16.81"
             style="fill:#d3611d;fill-opacity:1;fill-rule:nonzero;stroke:none"
             id="path253571" />
          <path
             d="m 762.07,3736.47 c -0.074,-10.8 8.903,-20.82 19.246,-21.48 10.348,-0.67 20.438,8.12 21.645,18.84 0.469,4.17 -0.262,8.43 -1.691,12.36 -0.942,2.57 -2.207,5.06 -4,7.09 -11.918,13.51 -35.086,-0.42 -35.2,-16.81"
             style="fill:#d3611d;fill-opacity:1;fill-rule:nonzero;stroke:none"
             id="path253573" />
          <path
             d="m 797.898,3814 c -0.07,-10.8 8.903,-20.82 19.25,-21.48 10.348,-0.67 20.442,8.12 21.641,18.85 0.469,4.17 -0.258,8.42 -1.687,12.35 -0.946,2.57 -2.204,5.06 -3.997,7.1 -11.921,13.51 -35.085,-0.43 -35.207,-16.82"
             style="fill:#d3611d;fill-opacity:1;fill-rule:nonzero;stroke:none"
             id="path253575" />
          <path
             d="m 839.242,3865.69 c -0.07,-10.8 8.903,-20.82 19.25,-21.49 10.348,-0.66 20.438,8.12 21.641,18.86 0.469,4.17 -0.262,8.42 -1.692,12.35 -0.941,2.57 -2.203,5.06 -3.992,7.09 -11.926,13.52 -35.09,-0.42 -35.207,-16.81"
             style="fill:#d3611d;fill-opacity:1;fill-rule:nonzero;stroke:none"
             id="path253577" />
          <path
             d="m 897.125,3908.76 c -0.074,-10.8 8.898,-20.81 19.246,-21.48 10.348,-0.67 20.442,8.12 21.641,18.85 0.468,4.17 -0.258,8.43 -1.688,12.35 -0.941,2.58 -2.203,5.06 -3.996,7.1 -11.922,13.51 -35.086,-0.43 -35.203,-16.82"
             style="fill:#d3611d;fill-opacity:1;fill-rule:nonzero;stroke:none"
             id="path253579" />
          <path
             d="m 1130.98,3951.84 c 0.07,-10.8 -8.9,-20.82 -19.25,-21.49 -10.34,-0.66 -20.43,8.12 -21.64,18.85 -0.47,4.17 0.26,8.43 1.7,12.35 0.93,2.58 2.2,5.07 3.99,7.1 11.92,13.51 35.09,-0.43 35.2,-16.81"
             style="fill:#d3611d;fill-opacity:1;fill-rule:nonzero;stroke:none"
             id="path253581" />
          <path
             d="m 1177.84,3900.15 c 0.07,-10.8 -8.9,-20.82 -19.25,-21.48 -10.35,-0.67 -20.44,8.12 -21.64,18.84 -0.47,4.17 0.26,8.43 1.69,12.35 0.94,2.58 2.2,5.07 4,7.1 11.92,13.51 35.08,-0.43 35.2,-16.81"
             style="fill:#d3611d;fill-opacity:1;fill-rule:nonzero;stroke:none"
             id="path253583" />
          <path
             d="m 1219.18,3842.72 c 0.07,-10.8 -8.9,-20.82 -19.25,-21.48 -10.35,-0.67 -20.43,8.12 -21.64,18.84 -0.47,4.17 0.26,8.43 1.7,12.35 0.93,2.58 2.2,5.07 3.99,7.1 11.92,13.51 35.09,-0.43 35.2,-16.81"
             style="fill:#d3611d;fill-opacity:1;fill-rule:nonzero;stroke:none"
             id="path253585" />
          <path
             d="m 1246.74,3768.06 c 0.08,-10.8 -8.9,-20.82 -19.24,-21.49 -10.35,-0.67 -20.44,8.12 -21.65,18.85 -0.46,4.17 0.26,8.43 1.69,12.35 0.95,2.58 2.21,5.07 4,7.1 11.92,13.51 35.09,-0.43 35.2,-16.81"
             style="fill:#d3611d;fill-opacity:1;fill-rule:nonzero;stroke:none"
             id="path253587" />
          <path
             d="m 1188.86,3736.47 c 0.08,-10.8 -8.9,-20.82 -19.25,-21.48 -10.34,-0.67 -20.43,8.12 -21.64,18.84 -0.47,4.17 0.26,8.43 1.69,12.36 0.95,2.57 2.21,5.06 4,7.09 11.92,13.51 35.09,-0.42 35.2,-16.81"
             style="fill:#d3611d;fill-opacity:1;fill-rule:nonzero;stroke:none"
             id="path253589" />
          <path
             d="m 1153.03,3814 c 0.08,-10.8 -8.9,-20.82 -19.25,-21.48 -10.34,-0.67 -20.44,8.12 -21.64,18.85 -0.47,4.17 0.26,8.42 1.69,12.35 0.95,2.57 2.21,5.06 4,7.1 11.92,13.51 35.09,-0.43 35.2,-16.82"
             style="fill:#d3611d;fill-opacity:1;fill-rule:nonzero;stroke:none"
             id="path253591" />
          <path
             d="m 1111.69,3865.69 c 0.07,-10.8 -8.9,-20.82 -19.25,-21.49 -10.35,-0.66 -20.44,8.12 -21.64,18.86 -0.47,4.17 0.26,8.42 1.69,12.35 0.94,2.57 2.2,5.06 3.99,7.09 11.93,13.52 35.09,-0.42 35.21,-16.81"
             style="fill:#d3611d;fill-opacity:1;fill-rule:nonzero;stroke:none"
             id="path253593" />
          <path
             d="m 1053.81,3908.76 c 0.07,-10.8 -8.9,-20.81 -19.25,-21.48 -10.35,-0.67 -20.44,8.12 -21.64,18.85 -0.47,4.17 0.26,8.43 1.69,12.35 0.94,2.58 2.2,5.06 3.99,7.1 11.93,13.51 35.09,-0.43 35.21,-16.82"
             style="fill:#d3611d;fill-opacity:1;fill-rule:nonzero;stroke:none"
             id="path253595" />
        </g>
      </g>
    </g>
  </g>
</svg>
