<?xml version="1.0" encoding="UTF-8" standalone="no"?>
<!-- Created with Inkscape (http://www.inkscape.org/) -->

<svg
   width="54.325401"
   height="82.79866"
   viewBox="0 0 54.325401 82.79866"
   version="1.1"
   id="svg5"
   inkscape:version="1.2.2 (b0a8486541, 2022-12-01)"
   sodipodi:docname="2_P.svg"
   xmlns:inkscape="http://www.inkscape.org/namespaces/inkscape"
   xmlns:sodipodi="http://sodipodi.sourceforge.net/DTD/sodipodi-0.dtd"
   xmlns="http://www.w3.org/2000/svg"
   xmlns:svg="http://www.w3.org/2000/svg">
  <sodipodi:namedview
     id="namedview7"
     pagecolor="#677178"
     bordercolor="#171c20"
     borderopacity="1"
     inkscape:showpageshadow="false"
     inkscape:pageopacity="0"
     inkscape:pagecheckerboard="0"
     inkscape:deskcolor="#25292d"
     inkscape:document-units="px"
     showgrid="false"
     showborder="false"
     borderlayer="true"
     inkscape:zoom="4.2013928"
     inkscape:cx="59.028044"
     inkscape:cy="30.704104"
     inkscape:window-width="1920"
     inkscape:window-height="997"
     inkscape:window-x="0"
     inkscape:window-y="0"
     inkscape:window-maximized="1"
     inkscape:current-layer="layer1" />
  <defs
     id="defs2" />
  <g
     inkscape:label="Capa 1"
     inkscape:groupmode="layer"
     id="layer1"
     transform="translate(-953.03365,-832.42956)">
    <g
       id="g26481"
       transform="translate(-46.294449,718.86313)">
      <path
         d="m 1049.054,196.36509 h -45.127 c -2.5407,0 -4.59945,-2.05867 -4.59945,-4.59867 v -73.60133 c 0,-2.53866 2.05875,-4.59866 4.59945,-4.59866 h 45.127 c 2.5402,0 4.5995,2.06 4.5995,4.59866 v 73.60133 c 0,2.54 -2.0593,4.59867 -4.5995,4.59867"
         style="fill:#ffffff;fill-opacity:1;fill-rule:nonzero;stroke:none;stroke-width:0.133333"
         id="path9281" />
      <path
         id="path9285"
         style="fill:#0c0a35;fill-opacity:1;fill-rule:nonzero;stroke:none;stroke-width:0.133333"
         d="m 1006.0762,117.30469 c -0.9499,0 -1.8444,0.32086 -2.4961,0.90625 l 0.375,1.02734 c 0.5965,-0.45285 1.2597,-0.68555 1.834,-0.68555 0.8726,0 1.4257,0.49698 1.4257,1.24805 0,1.03824 -1.0712,2.18727 -3.4238,4.29688 v 0.98437 h 5.1348 v -1.22656 h -3.084 c 2.0074,-1.76538 2.8418,-3.01655 2.8418,-4.27539 0,-1.39169 -1.028,-2.27539 -2.6074,-2.27539 z m 20.414,0.52148 c 0,0 -1.4954,1.56047 -2.334,2.20313 -0.9073,0.696 -2.0346,1.22321 -2.8144,2.06054 -0.7792,0.836 -1.324,1.992 -1.1016,3.11328 0.2516,1.276 1.5164,2.22421 2.8164,2.26954 1.207,0.0383 2.3721,-0.61876 3.1016,-1.58399 0,0.23116 -0.01,0.46181 -0.035,0.69141 -0.1297,1.17867 -0.5556,2.3057 -1.4414,3.09765 0.801,0.0467 2.8156,0.0467 3.6172,0 -0.8865,-0.79195 -1.3102,-1.91898 -1.4394,-3.09765 -0.026,-0.2296 -0.034,-0.46025 -0.037,-0.69141 0.7294,0.96524 1.8957,1.62235 3.1015,1.58399 1.3011,-0.0453 2.5648,-0.99354 2.8164,-2.26954 0.2224,-1.12128 -0.3224,-2.27728 -1.1015,-3.11328 -0.7792,-0.83733 -1.8493,-1.39214 -2.8047,-2.02148 -0.9738,-0.644 -2.3438,-2.24219 -2.3438,-2.24219 z m -20.33,8.15039 c 0,0 -0.5968,0.62415 -0.9317,0.88282 -0.3624,0.27864 -0.8115,0.48893 -1.123,0.82226 -0.3115,0.33334 -0.5299,0.79614 -0.4414,1.24414 0.1006,0.508 0.6063,0.88636 1.125,0.90234 0.4822,0.0174 0.9488,-0.2447 1.2402,-0.63085 0,0.0922 -0.01,0.18358 -0.016,0.27539 -0.052,0.47334 -0.22,0.92095 -0.5742,1.23828 0.3198,0.0187 1.1229,0.0187 1.4433,0 -0.3543,-0.31733 -0.5222,-0.76494 -0.5742,-1.23828 -0.011,-0.0918 -0.016,-0.1832 -0.018,-0.27539 0.291,0.38615 0.7581,0.64821 1.2402,0.63085 0.5187,-0.016 1.0242,-0.39434 1.125,-0.90234 0.088,-0.448 -0.1284,-0.9108 -0.4394,-1.24414 -0.3114,-0.33333 -0.7398,-0.55525 -1.1211,-0.80859 -0.3896,-0.25733 -0.9355,-0.89649 -0.9355,-0.89649 z m 40.4804,52.85938 c -0.281,0 -0.5605,0.004 -0.7207,0.0137 0.3532,0.31734 0.5222,0.76567 0.5742,1.23633 0.011,0.094 0.014,0.18726 0.016,0.27929 -0.2913,-0.38614 -0.757,-0.65016 -1.2403,-0.63281 -0.5188,0.016 -1.024,0.39363 -1.125,0.9043 -0.089,0.448 0.1291,0.90814 0.4395,1.24414 0.312,0.33333 0.7393,0.55526 1.1211,0.80859 0.3886,0.25467 0.9355,0.89258 0.9355,0.89258 0,0 0.5964,-0.62291 0.9317,-0.87891 0.3626,-0.27864 0.8135,-0.48893 1.125,-0.82226 0.3109,-0.336 0.529,-0.79614 0.4394,-1.24414 -0.1,-0.51067 -0.6057,-0.8883 -1.125,-0.9043 -0.4807,-0.0173 -0.9471,0.24463 -1.2383,0.62891 0,-0.0907 0.01,-0.18272 0.016,-0.27539 0.051,-0.47066 0.2212,-0.91899 0.5742,-1.23633 -0.1596,-0.009 -0.4417,-0.0137 -0.7227,-0.0137 z m -20.1504,1.38281 c -0.7038,0 -1.4081,0.0118 -1.8086,0.0352 0.8858,0.78933 1.3098,1.91694 1.4395,3.09961 0.026,0.22913 0.036,0.45874 0.039,0.68945 -0.7294,-0.96739 -1.8958,-1.62484 -3.1036,-1.58399 -1.3,0.044 -2.5648,0.99354 -2.8164,2.26954 -0.2224,1.12262 0.3224,2.27462 1.1016,3.11328 0.7798,0.836 1.849,1.39215 2.8047,2.02148 0.9751,0.644 2.3437,2.24219 2.3437,2.24219 0,0 1.4965,-1.56046 2.334,-2.20313 0.9084,-0.696 2.0353,-1.22454 2.8145,-2.06054 0.7791,-0.83866 1.3239,-1.99066 1.1015,-3.11328 -0.2516,-1.276 -1.5153,-2.22554 -2.8164,-2.26954 -1.2057,-0.0408 -2.3721,0.61584 -3.1015,1.58204 0,-0.23005 0.01,-0.45902 0.035,-0.6875 0.1292,-1.18267 0.5549,-2.31028 1.4414,-3.09961 -0.4008,-0.0233 -1.1047,-0.0352 -1.8086,-0.0352 z m 17.5645,4.59375 v 1.22656 h 3.084 c -2.0075,1.76538 -2.8399,3.01655 -2.8399,4.27539 0,1.39169 1.0261,2.27539 2.6055,2.27539 0.9499,0 1.8445,-0.32086 2.4961,-0.90625 l -0.375,-1.02734 c -0.5964,0.45285 -1.2596,0.68555 -1.834,0.68555 -0.8725,0 -1.4238,-0.49698 -1.4238,-1.24805 0,-1.03824 1.0712,-2.18727 3.4238,-4.29687 v -0.98438 z" />
    </g>
  </g>
</svg>
