<?xml version="1.0" encoding="UTF-8" standalone="no"?>
<!-- Created with Inkscape (http://www.inkscape.org/) -->

<svg
   width="54.325401"
   height="82.79866"
   viewBox="0 0 54.325401 82.79866"
   version="1.1"
   id="svg5"
   inkscape:version="1.2.2 (b0a8486541, 2022-12-01)"
   sodipodi:docname="3_P.svg"
   xmlns:inkscape="http://www.inkscape.org/namespaces/inkscape"
   xmlns:sodipodi="http://sodipodi.sourceforge.net/DTD/sodipodi-0.dtd"
   xmlns="http://www.w3.org/2000/svg"
   xmlns:svg="http://www.w3.org/2000/svg">
  <sodipodi:namedview
     id="namedview7"
     pagecolor="#677178"
     bordercolor="#171c20"
     borderopacity="1"
     inkscape:showpageshadow="false"
     inkscape:pageopacity="0"
     inkscape:pagecheckerboard="0"
     inkscape:deskcolor="#25292d"
     inkscape:document-units="px"
     showgrid="false"
     showborder="false"
     borderlayer="true"
     inkscape:zoom="4.2013928"
     inkscape:cx="59.028044"
     inkscape:cy="30.704104"
     inkscape:window-width="1920"
     inkscape:window-height="997"
     inkscape:window-x="0"
     inkscape:window-y="0"
     inkscape:window-maximized="1"
     inkscape:current-layer="layer1" />
  <defs
     id="defs2" />
  <g
     inkscape:label="Capa 1"
     inkscape:groupmode="layer"
     id="layer1"
     transform="translate(-953.03365,-832.42956)">
    <g
       id="g37495"
       transform="translate(-107.41255,718.86313)">
      <path
         d="m 1110.1739,196.36509 h -45.1283 c -2.5396,0 -4.5994,-2.05867 -4.5994,-4.59867 v -73.60133 c 0,-2.53866 2.0598,-4.59866 4.5994,-4.59866 h 45.1283 c 2.54,0 4.5987,2.06 4.5987,4.59866 v 73.60133 c 0,2.54 -2.0587,4.59867 -4.5987,4.59867"
         style="fill:#ffffff;fill-opacity:1;fill-rule:nonzero;stroke:none;stroke-width:0.133333"
         id="path9305" />
      <path
         id="path9309"
         style="fill:#0c0a35;fill-opacity:1;fill-rule:nonzero;stroke:none;stroke-width:0.133333"
         d="m 1067.1797,117.31641 c -0.8505,0 -1.745,0.23263 -2.4961,0.65234 l 0.3203,1.06055 c 0.6848,-0.32031 1.3481,-0.48633 1.9004,-0.48633 0.8284,0 1.4023,0.38666 1.4023,0.99414 0,0.6627 -0.6849,1.11523 -1.6679,1.11523 h -0.5645 v 1.11524 h 0.6641 c 1.1929,0 1.9551,0.46371 1.9551,1.18164 0,0.65166 -0.6082,1.01562 -1.6133,1.01562 -0.6738,0 -1.491,-0.15362 -2.1758,-0.46289 l -0.3203,1.12696 c 0.7731,0.38657 1.5799,0.57422 2.4414,0.57421 1.8777,0 3.1367,-0.89401 3.1367,-2.23046 0,-0.99435 -0.6811,-1.71817 -1.7422,-1.90039 0.8055,-0.20659 1.3223,-0.84782 1.3223,-1.72266 0,-1.25914 -0.9941,-2.0332 -2.5625,-2.0332 z m 20.4297,0.50976 c 0,0 -1.4966,1.56047 -2.334,2.20313 -0.908,0.696 -2.0358,1.22321 -2.8145,2.06054 -0.78,0.836 -1.3248,1.99196 -1.1035,3.11328 0.252,1.276 1.5184,2.22421 2.8184,2.26954 1.205,0.0383 2.3728,-0.61876 3.1015,-1.58399 0,0.23116 -0.011,0.46181 -0.035,0.69141 -0.1307,1.17867 -0.5548,2.30566 -1.4414,3.09765 0.8026,0.0467 2.8159,0.0467 3.6172,0 -0.8867,-0.79199 -1.3102,-1.91898 -1.4395,-3.09765 -0.026,-0.2296 -0.034,-0.46025 -0.037,-0.69141 0.7297,0.96524 1.8952,1.62235 3.1016,1.58399 1.3,-0.0453 2.5663,-0.99354 2.8183,-2.26954 0.2213,-1.12132 -0.3248,-2.27728 -1.1035,-3.11328 -0.78,-0.83733 -1.8487,-1.39214 -2.8047,-2.02148 -0.9734,-0.644 -2.3437,-2.24219 -2.3437,-2.24219 z m -20.3301,8.15039 c 0,0 -0.5969,0.62415 -0.9316,0.88282 -0.3613,0.27865 -0.8125,0.48893 -1.1231,0.82226 -0.3118,0.33334 -0.5299,0.79614 -0.4414,1.24414 0.1006,0.508 0.6063,0.88635 1.125,0.90234 0.4833,0.0174 0.9489,-0.2447 1.2402,-0.63085 0,0.0922 -0.01,0.18358 -0.016,0.27539 -0.052,0.47334 -0.2229,0.92095 -0.5762,1.23828 0.32,0.0187 1.1254,0.0187 1.4454,0 -0.3547,-0.31733 -0.5223,-0.76494 -0.5743,-1.23828 -0.01,-0.0912 -0.014,-0.1819 -0.016,-0.27344 0.2915,0.38495 0.7559,0.64623 1.2383,0.6289 0.5187,-0.016 1.025,-0.39434 1.125,-0.90234 0.089,-0.448 -0.1275,-0.9108 -0.4395,-1.24414 -0.312,-0.33333 -0.7397,-0.55525 -1.1211,-0.80859 -0.3893,-0.25733 -0.9355,-0.89649 -0.9355,-0.89649 z m 20.3301,23.04492 c 0,0 -1.4966,1.56047 -2.334,2.20313 -0.908,0.69467 -2.0358,1.22189 -2.8145,2.06055 -0.78,0.836 -1.3248,1.99256 -1.1035,3.11523 0.252,1.276 1.5184,2.2243 2.8184,2.26563 1.205,0.0408 2.3727,-0.61408 3.1015,-1.58008 0,0.23011 -0.011,0.4605 -0.035,0.68945 -0.1307,1.17999 -0.5548,2.30699 -1.4414,3.09766 0.8026,0.0467 2.8159,0.0467 3.6172,0 -0.8867,-0.79067 -1.3102,-1.91767 -1.4395,-3.09766 -0.026,-0.22895 -0.034,-0.45934 -0.037,-0.68945 0.7296,0.966 1.8953,1.6209 3.1016,1.58008 1.3,-0.0413 2.5663,-0.98963 2.8183,-2.26563 0.2213,-1.12267 -0.3248,-2.27923 -1.1035,-3.11523 -0.78,-0.83866 -1.8487,-1.39082 -2.8047,-2.02149 -0.9734,-0.64267 -2.3437,-2.24219 -2.3437,-2.24219 z m 20.1504,29.81446 c -0.281,0 -0.5614,0.004 -0.7207,0.0137 0.3534,0.31734 0.5222,0.76567 0.5742,1.23633 0.011,0.0947 0.016,0.18856 0.018,0.28125 -0.2913,-0.38735 -0.758,-0.65215 -1.2422,-0.63477 -0.5187,0.016 -1.025,0.39363 -1.125,0.9043 -0.089,0.448 0.1307,0.90814 0.4414,1.24414 0.312,0.33333 0.7377,0.55526 1.1191,0.80859 0.3893,0.25467 0.9356,0.89258 0.9356,0.89258 0,0 0.5989,-0.62291 0.9336,-0.87891 0.3626,-0.27866 0.811,-0.48893 1.123,-0.82226 0.3106,-0.336 0.5275,-0.79614 0.4395,-1.24414 -0.1014,-0.51067 -0.605,-0.8883 -1.125,-0.9043 -0.4806,-0.0173 -0.9466,0.24463 -1.2383,0.62891 0,-0.0907 0.01,-0.18272 0.016,-0.27539 0.052,-0.47066 0.2216,-0.91899 0.5762,-1.23633 -0.1607,-0.009 -0.4436,-0.0137 -0.7246,-0.0137 z m -20.1504,1.38281 c -0.7039,0 -1.4073,0.0118 -1.8086,0.0352 0.8866,0.78933 1.3121,1.91694 1.4414,3.09961 0.026,0.22848 0.032,0.45745 0.035,0.6875 -0.7287,-0.9662 -1.8965,-1.62286 -3.1015,-1.58204 -1.3,0.044 -2.5664,0.99354 -2.8184,2.26954 -0.2213,1.12265 0.3235,2.27462 1.1035,3.11328 0.7787,0.836 1.85,1.39215 2.8047,2.02148 0.9747,0.644 2.3438,2.24219 2.3438,2.24219 0,0 1.4972,-1.56046 2.3359,-2.20313 0.908,-0.696 2.0325,-1.22454 2.8125,-2.06054 0.7787,-0.83866 1.3248,-1.99063 1.1035,-3.11328 -0.252,-1.276 -1.5183,-2.22554 -2.8183,-2.26954 -1.2063,-0.0408 -2.3719,0.61584 -3.1016,1.58204 0,-0.23005 0.011,-0.45902 0.037,-0.6875 0.1293,-1.18267 0.5528,-2.31028 1.4395,-3.09961 -0.4007,-0.0233 -1.1048,-0.0352 -1.8086,-0.0352 z m 20.584,4.47266 c -1.8777,0 -3.1368,0.89596 -3.1368,2.23242 0,0.99434 0.6812,1.71622 1.7422,1.89844 -0.8054,0.20659 -1.3222,0.84781 -1.3222,1.72265 0,1.25914 0.9941,2.0332 2.5625,2.0332 0.8504,0 1.745,-0.23263 2.4961,-0.65234 l -0.3204,-1.06055 c -0.6848,0.32031 -1.3461,0.48633 -1.8984,0.48633 -0.8284,0 -1.4043,-0.38666 -1.4043,-0.99414 0,-0.6627 0.685,-1.11523 1.668,-1.11523 h 0.5644 v -1.11524 h -0.664 c -1.1929,0 -1.9551,-0.46371 -1.9551,-1.18164 0,-0.65166 0.6082,-1.01562 1.6133,-1.01562 0.6737,0 1.491,0.15363 2.1758,0.46289 l 0.3203,-1.12696 c -0.7732,-0.38657 -1.5799,-0.57421 -2.4414,-0.57421 z" />
    </g>
  </g>
</svg>
