<?xml version="1.0" encoding="UTF-8" standalone="no"?>
<!-- Created with Inkscape (http://www.inkscape.org/) -->

<svg
   width="54.325401"
   height="82.79866"
   viewBox="0 0 54.325401 82.79866"
   version="1.1"
   id="svg5"
   inkscape:version="1.2.2 (b0a8486541, 2022-12-01)"
   sodipodi:docname="4_P.svg"
   xmlns:inkscape="http://www.inkscape.org/namespaces/inkscape"
   xmlns:sodipodi="http://sodipodi.sourceforge.net/DTD/sodipodi-0.dtd"
   xmlns="http://www.w3.org/2000/svg"
   xmlns:svg="http://www.w3.org/2000/svg">
  <sodipodi:namedview
     id="namedview7"
     pagecolor="#677178"
     bordercolor="#171c20"
     borderopacity="1"
     inkscape:showpageshadow="false"
     inkscape:pageopacity="0"
     inkscape:pagecheckerboard="0"
     inkscape:deskcolor="#25292d"
     inkscape:document-units="px"
     showgrid="false"
     showborder="false"
     borderlayer="true"
     inkscape:zoom="4.2013928"
     inkscape:cx="59.028044"
     inkscape:cy="30.704104"
     inkscape:window-width="1920"
     inkscape:window-height="997"
     inkscape:window-x="0"
     inkscape:window-y="0"
     inkscape:window-maximized="1"
     inkscape:current-layer="layer1" />
  <defs
     id="defs2" />
  <g
     inkscape:label="Capa 1"
     inkscape:groupmode="layer"
     id="layer1"
     transform="translate(-953.03365,-832.42956)">
    <g
       id="g37611"
       transform="translate(-168.53225,718.86313)">
      <path
         d="m 1171.2926,196.36509 h -45.128 c -2.5387,0 -4.5987,-2.05867 -4.5987,-4.59867 v -73.60133 c 0,-2.53866 2.06,-4.59866 4.5987,-4.59866 h 45.128 c 2.54,0 4.6,2.06 4.6,4.59866 v 73.60133 c 0,2.54 -2.06,4.59867 -4.6,4.59867"
         style="fill:#ffffff;fill-opacity:1;fill-rule:nonzero;stroke:none;stroke-width:0.133333"
         id="path9333" />
      <path
         id="path9337"
         style="fill:#0c0a35;fill-opacity:1;fill-rule:nonzero;stroke:none;stroke-width:0.133333"
         d="m 1128.9941,117.41602 -3.7109,5.3457 v 0.74023 h 3.6699 v 1.66797 h 1.3789 v -1.66797 h 1.3711 v -1.19336 l -1.3711,-0.002 v -4.89062 z m 11.4493,0.41015 c 0,0 -1.4973,1.56047 -2.336,2.20313 -0.9066,0.696 -2.0338,1.22321 -2.8125,2.06054 -0.78,0.836 -1.3248,1.99196 -1.1035,3.11328 0.252,1.276 1.5164,2.22421 2.8164,2.26954 1.2072,0.0383 2.3749,-0.6196 3.1035,-1.58594 0,0.23182 -0.011,0.46311 -0.035,0.69336 -0.1306,1.17867 -0.5547,2.30566 -1.4414,3.09765 0.8027,0.0467 2.8159,0.0467 3.6172,0 -0.8866,-0.79199 -1.3121,-1.91898 -1.4415,-3.09765 -0.026,-0.23025 -0.034,-0.46155 -0.037,-0.69336 0.7295,0.96642 1.8963,1.62433 3.1036,1.58594 1.3,-0.0453 2.5644,-0.99354 2.8164,-2.26954 0.2213,-1.12132 -0.3229,-2.27728 -1.1016,-3.11328 -0.78,-0.83733 -1.8506,-1.39214 -2.8066,-2.02148 -0.9733,-0.644 -2.3418,-2.24219 -2.3418,-2.24219 z m 16.5722,0 c 0,0 -1.4973,1.56047 -2.3359,2.20313 -0.908,0.696 -2.0325,1.22321 -2.8125,2.06054 -0.7786,0.836 -1.3262,1.99196 -1.1035,3.11328 0.252,1.276 1.5183,2.22421 2.8183,2.26954 1.2064,0.0383 2.3719,-0.61876 3.1016,-1.58399 0,0.23116 -0.01,0.46181 -0.035,0.69141 -0.1293,1.17867 -0.5547,2.30566 -1.4414,3.09765 0.8014,0.0467 2.8145,0.0467 3.6172,0 -0.888,-0.79199 -1.3107,-1.91898 -1.4414,-3.09765 -0.026,-0.2296 -0.032,-0.46025 -0.035,-0.69141 0.7285,0.96524 1.8939,1.62235 3.1015,1.58399 1.2987,-0.0453 2.5664,-0.99354 2.8184,-2.26954 0.2214,-1.12132 -0.3235,-2.27728 -1.1035,-3.11328 -0.78,-0.83733 -1.85,-1.39214 -2.8047,-2.02148 -0.9746,-0.644 -2.3438,-2.24219 -2.3438,-2.24219 z m -28.0547,1.24805 -0.01,3.22851 -2.1582,-0.002 z m -0.5625,6.90234 c 0,0 -0.5969,0.62415 -0.9316,0.88282 -0.3626,0.27865 -0.8111,0.48893 -1.123,0.82226 -0.3106,0.33334 -0.5295,0.79614 -0.4415,1.24414 0.1,0.508 0.6064,0.88635 1.125,0.90234 0.4834,0.0174 0.9489,-0.2447 1.2403,-0.63085 0,0.0922 -0.01,0.18358 -0.016,0.27539 -0.052,0.47334 -0.2216,0.92095 -0.5762,1.23828 0.32,0.0187 1.1253,0.0187 1.4453,0 -0.3534,-0.31733 -0.5232,-0.76494 -0.5742,-1.23828 -0.011,-0.0918 -0.016,-0.1832 -0.018,-0.27539 0.2915,0.38615 0.7581,0.64821 1.2402,0.63085 0.52,-0.016 1.0237,-0.39434 1.125,-0.90234 0.089,-0.448 -0.1294,-0.9108 -0.4414,-1.24414 -0.3107,-0.33333 -0.7372,-0.55525 -1.1172,-0.80859 -0.3893,-0.25733 -0.9375,-0.89649 -0.9375,-0.89649 z m 40.4825,52.85938 c -0.281,0 -0.5627,0.004 -0.7227,0.0137 0.3533,0.31734 0.5232,0.76567 0.5742,1.23633 0.01,0.0927 0.014,0.18465 0.016,0.27539 -0.2915,-0.38428 -0.7583,-0.64621 -1.2402,-0.62891 -0.5187,0.016 -1.0236,0.39363 -1.125,0.9043 -0.088,0.448 0.1294,0.90814 0.4414,1.24414 0.3106,0.33333 0.7392,0.55526 1.1192,0.80859 0.3894,0.25467 0.9375,0.89258 0.9375,0.89258 0,0 0.595,-0.62291 0.9296,-0.87891 0.3627,-0.27866 0.8144,-0.48893 1.125,-0.82226 0.3107,-0.336 0.5295,-0.79614 0.4415,-1.24414 -0.1014,-0.51067 -0.6063,-0.8883 -1.125,-0.9043 -0.4821,-0.0174 -0.9487,0.24667 -1.2403,0.63281 0,-0.092 0,-0.18528 0.014,-0.27929 0.053,-0.47066 0.2215,-0.91899 0.5762,-1.23633 -0.16,-0.009 -0.4397,-0.0137 -0.7207,-0.0137 z m -28.4375,1.38281 c -0.7039,0 -1.4092,0.0118 -1.8106,0.0352 0.8867,0.78933 1.3108,1.91694 1.4414,3.09961 0.026,0.22913 0.034,0.45875 0.037,0.68945 -0.7287,-0.96731 -1.8963,-1.62484 -3.1035,-1.58399 -1.3,0.044 -2.5644,0.99354 -2.8164,2.26954 -0.2213,1.12265 0.3235,2.27462 1.1035,3.11328 0.7787,0.836 1.8487,1.39215 2.8047,2.02148 0.9747,0.644 2.3438,2.24219 2.3438,2.24219 0,0 1.4965,-1.56046 2.3339,-2.20313 0.9093,-0.696 2.0345,-1.22454 2.8145,-2.06054 0.7787,-0.83866 1.3229,-1.99063 1.1016,-3.11328 -0.252,-1.276 -1.5164,-2.22554 -2.8164,-2.26954 -1.2072,-0.0409 -2.3741,0.6166 -3.1036,1.58399 0,-0.23071 0.011,-0.46032 0.037,-0.68945 0.1294,-1.18267 0.5529,-2.31028 1.4395,-3.09961 -0.4006,-0.0233 -1.1028,-0.0352 -1.8066,-0.0352 z m 16.5722,0 c -0.7038,0 -1.4079,0.0118 -1.8086,0.0352 0.8867,0.78933 1.3102,1.91694 1.4395,3.09961 0.026,0.22848 0.034,0.45745 0.037,0.6875 -0.7297,-0.9662 -1.8953,-1.62286 -3.1016,-1.58204 -1.3,0.044 -2.5663,0.99354 -2.8183,2.26954 -0.2227,1.12265 0.3249,2.27462 1.1035,3.11328 0.78,0.836 1.8501,1.39215 2.8047,2.02148 0.9747,0.644 2.3437,2.24219 2.3437,2.24219 0,0 1.4967,-1.56046 2.334,-2.20313 0.908,-0.696 2.0345,-1.22454 2.8145,-2.06054 0.78,-0.83866 1.3249,-1.99063 1.1035,-3.11328 -0.252,-1.276 -1.5197,-2.22554 -2.8184,-2.26954 -1.2075,-0.0408 -2.373,0.61584 -3.1015,1.58204 0,-0.23005 0.011,-0.45902 0.035,-0.6875 0.1307,-1.18267 0.5534,-2.31028 1.4414,-3.09961 -0.4013,-0.0233 -1.1047,-0.0352 -1.8086,-0.0352 z m 10.1114,4.50586 v 1.66797 h -1.3692 v 1.19336 l 1.3692,0.002 v 4.89063 h 1.3378 l 3.711,-5.34571 v -0.74023 h -3.6699 v -1.66797 z m 1.3769,2.86719 2.1582,0.002 -2.1641,3.22656 z" />
    </g>
  </g>
</svg>
