<?xml version="1.0" encoding="UTF-8" standalone="no"?>
<!-- Created with Inkscape (http://www.inkscape.org/) -->

<svg
   width="54.325401"
   height="82.79866"
   viewBox="0 0 54.325401 82.79866"
   version="1.1"
   id="svg5"
   inkscape:version="1.2.2 (b0a8486541, 2022-12-01)"
   sodipodi:docname="5_P.svg"
   xmlns:inkscape="http://www.inkscape.org/namespaces/inkscape"
   xmlns:sodipodi="http://sodipodi.sourceforge.net/DTD/sodipodi-0.dtd"
   xmlns="http://www.w3.org/2000/svg"
   xmlns:svg="http://www.w3.org/2000/svg">
  <sodipodi:namedview
     id="namedview7"
     pagecolor="#677178"
     bordercolor="#171c20"
     borderopacity="1"
     inkscape:showpageshadow="false"
     inkscape:pageopacity="0"
     inkscape:pagecheckerboard="0"
     inkscape:deskcolor="#25292d"
     inkscape:document-units="px"
     showgrid="false"
     showborder="false"
     borderlayer="true"
     inkscape:zoom="4.2013928"
     inkscape:cx="59.028044"
     inkscape:cy="30.704104"
     inkscape:window-width="1920"
     inkscape:window-height="997"
     inkscape:window-x="0"
     inkscape:window-y="0"
     inkscape:window-maximized="1"
     inkscape:current-layer="layer1" />
  <defs
     id="defs2" />
  <g
     inkscape:label="Capa 1"
     inkscape:groupmode="layer"
     id="layer1"
     transform="translate(-953.03365,-832.42956)">
    <g
       id="g48589"
       transform="translate(-229.65225,718.86313)">
      <path
         d="m 1232.4112,196.36509 h -45.1266 c -2.54,0 -4.5987,-2.05867 -4.5987,-4.59867 v -73.60133 c 0,-2.53866 2.0587,-4.59866 4.5987,-4.59866 h 45.1266 c 2.5414,0 4.6,2.06 4.6,4.59866 v 73.60133 c 0,2.54 -2.0586,4.59867 -4.6,4.59867"
         style="fill:#ffffff;fill-opacity:1;fill-rule:nonzero;stroke:none;stroke-width:0.133333"
         id="path9365" />
      <path
         id="path9369"
         style="fill:#0c0a35;fill-opacity:1;fill-rule:nonzero;stroke:none;stroke-width:0.133333"
         d="m 1187.5078,117.41602 -0.1875,4.21875 c 0.486,-0.0994 1.1032,-0.16602 1.5781,-0.16602 1.226,0 1.9454,0.47631 1.9454,1.30469 0,0.75107 -0.5978,1.18164 -1.5918,1.18164 -0.6627,0 -1.3918,-0.16596 -1.9551,-0.45313 l -0.3965,1.11524 c 0.7179,0.37554 1.4894,0.57422 2.3398,0.57422 v 0 c 1.8556,0 3.0801,-0.98306 3.0801,-2.5625 0,-1.4469 -1.0369,-2.3086 -2.8262,-2.3086 -0.2745,0 -0.5009,0.0214 -0.7051,0.0645 l 0.074,-1.73243 h 3.0703 v -1.23632 z m 14.0547,0.41015 c 0,0 -1.4972,1.56047 -2.3359,2.20313 -0.908,0.696 -2.0338,1.22321 -2.8125,2.06054 -0.78,0.836 -1.3262,1.99196 -1.1036,3.11328 0.252,1.276 1.517,2.22421 2.8184,2.26954 1.2064,0.0383 2.3719,-0.61876 3.1016,-1.58399 0,0.23116 -0.011,0.46181 -0.037,0.69141 -0.1293,1.17867 -0.5542,2.30566 -1.4395,3.09765 0.8013,0.0467 2.8139,0.0467 3.6152,0 -0.8853,-0.79199 -1.3101,-1.91898 -1.4394,-3.09765 -0.027,-0.23025 -0.034,-0.46155 -0.037,-0.69336 0.7295,0.96635 1.8963,1.62433 3.1035,1.58594 1.3014,-0.0453 2.5644,-0.99354 2.8164,-2.26954 0.2226,-1.12132 -0.3235,-2.27728 -1.1035,-3.11328 -0.7787,-0.83733 -1.8481,-1.39214 -2.8028,-2.02148 -0.9746,-0.644 -2.3437,-2.24219 -2.3437,-2.24219 z m 16.5723,0 c 0,0 -1.4967,1.56047 -2.334,2.20313 -0.908,0.696 -2.0345,1.22321 -2.8145,2.06054 -0.78,0.836 -1.3261,1.99196 -1.1035,3.11328 0.252,1.276 1.5184,2.22421 2.8184,2.26954 1.2063,0.0383 2.3728,-0.61876 3.1015,-1.58399 0,0.23116 -0.011,0.46181 -0.035,0.69141 -0.1306,1.17867 -0.5547,2.30566 -1.4414,3.09765 0.8027,0.0467 2.8159,0.0467 3.6172,0 -0.8866,-0.79199 -1.3101,-1.91898 -1.4395,-3.09765 -0.027,-0.23025 -0.036,-0.46154 -0.039,-0.69336 0.7295,0.96642 1.8963,1.62433 3.1036,1.58594 1.3,-0.0453 2.5663,-0.99354 2.8183,-2.26954 0.2213,-1.12132 -0.3248,-2.27728 -1.1035,-3.11328 -0.78,-0.83733 -1.85,-1.39214 -2.8047,-2.02148 -0.976,-0.644 -2.3437,-2.24219 -2.3437,-2.24219 z m -28.6153,8.15039 c 0,0 -0.5989,0.62415 -0.9336,0.88282 -0.3613,0.27865 -0.8123,0.48893 -1.123,0.82226 -0.3106,0.33334 -0.5294,0.79614 -0.4414,1.24414 0.1013,0.508 0.6064,0.88635 1.125,0.90234 0.4821,0.0174 0.9487,-0.2447 1.2402,-0.63085 0,0.0922 -0.01,0.18358 -0.016,0.27539 -0.052,0.47334 -0.2209,0.92095 -0.5742,1.23828 0.32,0.0187 1.1233,0.0187 1.4433,0 -0.3547,-0.31733 -0.5232,-0.76494 -0.5742,-1.23828 -0.01,-0.0912 -0.014,-0.1819 -0.016,-0.27344 0.2914,0.3854 0.7575,0.64624 1.2402,0.6289 0.5187,-0.016 1.0237,-0.39434 1.125,-0.90234 0.088,-0.448 -0.1307,-0.9108 -0.4414,-1.24414 -0.3107,-0.33333 -0.7398,-0.55525 -1.1211,-0.80859 -0.3893,-0.25733 -0.9336,-0.89649 -0.9336,-0.89649 z m 20.3282,23.04492 c 0,0 -1.4953,1.56047 -2.334,2.20313 -0.908,0.69467 -2.0325,1.22189 -2.8125,2.06055 -0.78,0.836 -1.3269,1.99256 -1.1055,3.11523 0.2533,1.276 1.519,2.2243 2.8203,2.26563 1.206,0.0409 2.3719,-0.61506 3.1016,-1.58204 0,0.23078 -0.013,0.46181 -0.037,0.69141 -0.1294,1.17999 -0.5542,2.30699 -1.4395,3.09766 0.8013,0.0467 2.8139,0.0467 3.6152,0 -0.8866,-0.79067 -1.3101,-1.91767 -1.4394,-3.09766 -0.026,-0.2296 -0.034,-0.46064 -0.037,-0.69141 0.7296,0.96698 1.8944,1.62289 3.1015,1.58204 1.3,-0.0413 2.5664,-0.98963 2.8184,-2.26563 0.2227,-1.12267 -0.3249,-2.27923 -1.1035,-3.11523 -0.78,-0.83866 -1.8487,-1.39082 -2.8047,-2.02149 -0.9733,-0.64267 -2.3437,-2.24219 -2.3437,-2.24219 z M 1230,178.83594 c -0.2808,0 -0.562,0.004 -0.7227,0.0137 0.3546,0.31734 0.5242,0.76567 0.5762,1.23633 0.011,0.0947 0.014,0.18856 0.016,0.28125 -0.2912,-0.38735 -0.7573,-0.65215 -1.2402,-0.63477 -0.52,0.016 -1.025,0.39363 -1.125,0.9043 -0.089,0.448 0.1275,0.90814 0.4395,1.24414 0.3107,0.33333 0.7378,0.55526 1.1191,0.80859 0.3894,0.25467 0.9375,0.89258 0.9375,0.89258 0,0 0.597,-0.62291 0.9316,-0.87891 0.3627,-0.27866 0.8124,-0.48893 1.1231,-0.82226 0.312,-0.336 0.5294,-0.79614 0.4414,-1.24414 -0.1013,-0.51067 -0.607,-0.8883 -1.127,-0.9043 -0.4821,-0.0174 -0.9477,0.24667 -1.2382,0.63281 0,-0.092 0.01,-0.18528 0.016,-0.27929 0.052,-0.47066 0.2208,-0.91899 0.5742,-1.23633 -0.16,-0.009 -0.4399,-0.0137 -0.7207,-0.0137 z m -28.4375,1.38281 c -0.7037,0 -1.4079,0.0118 -1.8086,0.0352 0.8853,0.78933 1.3102,1.91694 1.4395,3.09961 0.026,0.22848 0.034,0.45745 0.037,0.6875 -0.7297,-0.9662 -1.8953,-1.62286 -3.1016,-1.58204 -1.3014,0.044 -2.5664,0.99354 -2.8184,2.26954 -0.2226,1.12265 0.3236,2.27462 1.1036,3.11328 0.7787,0.836 1.85,1.39215 2.8047,2.02148 0.9746,0.644 2.3437,2.24219 2.3437,2.24219 0,0 1.4953,-1.56046 2.334,-2.20313 0.908,-0.696 2.0338,-1.22454 2.8125,-2.06054 0.78,-0.83866 1.3261,-1.99063 1.1035,-3.11328 -0.252,-1.276 -1.515,-2.22554 -2.8164,-2.26954 -1.2071,-0.0409 -2.374,0.61668 -3.1035,1.58399 0,-0.23071 0.013,-0.46032 0.037,-0.68945 0.1293,-1.18267 0.5541,-2.31028 1.4394,-3.09961 -0.4006,-0.0233 -1.1029,-0.0352 -1.8066,-0.0352 z m 16.5723,0 c -0.7039,0 -1.4073,0.0118 -1.8086,0.0352 0.8867,0.78933 1.3108,1.91694 1.4414,3.09961 0.026,0.22848 0.032,0.45745 0.035,0.6875 -0.7288,-0.9662 -1.8952,-1.62286 -3.1015,-1.58204 -1.3,0.044 -2.5664,0.99354 -2.8184,2.26954 -0.2226,1.12265 0.3235,2.27462 1.1035,3.11328 0.78,0.836 1.8501,1.39215 2.8047,2.02148 0.9747,0.644 2.3438,2.24219 2.3438,2.24219 0,0 1.4966,-1.56046 2.334,-2.20313 0.9079,-0.696 2.0344,-1.22454 2.8144,-2.06054 0.7787,-0.83866 1.3248,-1.99063 1.1035,-3.11328 -0.252,-1.276 -1.5183,-2.22554 -2.8183,-2.26954 -1.2063,-0.0408 -2.372,0.61584 -3.1016,1.58204 0,-0.23005 0.01,-0.45902 0.035,-0.6875 0.1294,-1.18267 0.5548,-2.31028 1.4414,-3.09961 -0.4007,-0.0233 -1.1048,-0.0352 -1.8086,-0.0352 z m 12.3203,4.48437 c -1.8555,0 -3.0801,0.98306 -3.0801,2.5625 0,1.44691 1.0369,2.3086 2.8262,2.3086 0.2744,0 0.5009,-0.0214 0.705,-0.0644 l -0.074,1.73242 h -3.0703 v 1.23633 h 4.4278 l 0.1875,-4.21875 c -0.486,0.0994 -1.1032,0.16601 -1.5782,0.16601 -1.226,0 -1.9433,-0.47631 -1.9433,-1.30469 0,-0.75107 0.5957,-1.18164 1.5898,-1.18164 0.6627,0 1.3918,0.16596 1.9551,0.45313 l 0.3965,-1.11524 c -0.7179,-0.37553 -1.4913,-0.57421 -2.3418,-0.57422 z" />
    </g>
  </g>
</svg>
