<?xml version="1.0" encoding="UTF-8" standalone="no"?>
<!-- Created with Inkscape (http://www.inkscape.org/) -->

<svg
   width="54.325401"
   height="82.79866"
   viewBox="0 0 54.325401 82.79866"
   version="1.1"
   id="svg5"
   inkscape:version="1.2.2 (b0a8486541, 2022-12-01)"
   sodipodi:docname="6_P.svg"
   xmlns:inkscape="http://www.inkscape.org/namespaces/inkscape"
   xmlns:sodipodi="http://sodipodi.sourceforge.net/DTD/sodipodi-0.dtd"
   xmlns="http://www.w3.org/2000/svg"
   xmlns:svg="http://www.w3.org/2000/svg">
  <sodipodi:namedview
     id="namedview7"
     pagecolor="#677178"
     bordercolor="#171c20"
     borderopacity="1"
     inkscape:showpageshadow="false"
     inkscape:pageopacity="0"
     inkscape:pagecheckerboard="0"
     inkscape:deskcolor="#25292d"
     inkscape:document-units="px"
     showgrid="false"
     showborder="false"
     borderlayer="true"
     inkscape:zoom="4.2013928"
     inkscape:cx="59.028044"
     inkscape:cy="30.704104"
     inkscape:window-width="1920"
     inkscape:window-height="997"
     inkscape:window-x="0"
     inkscape:window-y="0"
     inkscape:window-maximized="1"
     inkscape:current-layer="layer1" />
  <defs
     id="defs2" />
  <g
     inkscape:label="Capa 1"
     inkscape:groupmode="layer"
     id="layer1"
     transform="translate(-953.03365,-832.42956)">
    <g
       id="g59573"
       transform="translate(-290.77095,718.86313)">
      <path
         d="m 1293.5312,196.36509 h -45.1266 c -2.54,0 -4.6,-2.05867 -4.6,-4.59867 v -73.60133 c 0,-2.53866 2.06,-4.59866 4.6,-4.59866 h 45.1266 c 2.54,0 4.6,2.06 4.6,4.59866 v 73.60133 c 0,2.54 -2.06,4.59867 -4.6,4.59867"
         style="fill:#ffffff;fill-opacity:1;fill-rule:nonzero;stroke:none;stroke-width:0.133333"
         id="path9401" />
      <path
         id="path9405"
         style="fill:#0c0a35;fill-opacity:1;fill-rule:nonzero;stroke:none;stroke-width:0.133333"
         d="m 1251.459,117.30469 c -2.2864,0 -3.5449,1.52557 -3.5449,4.15429 0,2.40784 1.061,3.73243 2.8945,3.73243 1.6236,0 2.7383,-1.0494 2.7383,-2.59571 0,-1.41377 -0.9052,-2.33008 -2.2637,-2.33008 -0.8181,0 -1.5144,0.33646 -1.9648,0.94727 0.027,-1.78772 0.7551,-2.71484 2.164,-2.71484 0.508,0 1.1032,0.12156 1.5781,0.35351 l 0.375,-1.08203 c -0.5964,-0.29822 -1.2475,-0.46484 -1.9765,-0.46484 z m 11.2226,0.52148 c 0,0 -1.4952,1.56047 -2.3339,2.20313 -0.908,0.696 -2.0358,1.22321 -2.8145,2.06054 -0.78,0.836 -1.3248,1.99196 -1.1035,3.11328 0.2533,1.276 1.5183,2.22421 2.8183,2.26954 1.2064,0.0383 2.3718,-0.61876 3.1016,-1.58399 0,0.23116 -0.011,0.46181 -0.035,0.69141 -0.1307,1.17867 -0.5562,2.30566 -1.4415,3.09765 0.8013,0.0467 2.8159,0.0467 3.6172,0 -0.8867,-0.79199 -1.3101,-1.91898 -1.4394,-3.09765 -0.027,-0.23025 -0.036,-0.46154 -0.039,-0.69336 0.7296,0.96642 1.8963,1.62433 3.1035,1.58594 1.3,-0.0453 2.5644,-0.99354 2.8164,-2.26954 0.2226,-1.12132 -0.3228,-2.27728 -1.1015,-3.11328 -0.78,-0.83733 -1.8487,-1.39214 -2.8047,-2.02148 -0.9747,-0.644 -2.3438,-2.24219 -2.3438,-2.24219 z m 16.5723,0 c 0,0 -1.4953,1.56047 -2.334,2.20313 -0.9066,0.696 -2.0344,1.22321 -2.8144,2.06054 -0.78,0.836 -1.3242,1.99196 -1.1016,3.11328 0.252,1.276 1.515,2.22421 2.8164,2.26954 1.2064,0.0383 2.3719,-0.61876 3.1016,-1.58399 0,0.23116 -0.011,0.46181 -0.035,0.69141 -0.1293,1.17867 -0.5547,2.30566 -1.4414,3.09765 0.8013,0.0467 2.8146,0.0467 3.6172,0 -0.8866,-0.79199 -1.3101,-1.91898 -1.4395,-3.09765 -0.026,-0.2296 -0.034,-0.46025 -0.037,-0.69141 0.7297,0.96524 1.8952,1.62235 3.1016,1.58399 1.3014,-0.0453 2.5651,-0.99354 2.8184,-2.26954 0.2213,-1.12132 -0.3249,-2.27728 -1.1036,-3.11328 -0.78,-0.83733 -1.8499,-1.39214 -2.8046,-2.02148 -0.9747,-0.644 -2.3438,-2.24219 -2.3438,-2.24219 z m -28.3906,3.58789 c 0.7953,0 1.3144,0.50749 1.3144,1.30274 0,0.77315 -0.4859,1.28125 -1.248,1.28125 -0.8264,0 -1.3581,-0.6093 -1.541,-1.72657 0.2984,-0.54814 0.8446,-0.85742 1.4746,-0.85742 z m -0.2246,4.5625 c 0,0 -0.5989,0.62415 -0.9336,0.88282 -0.3627,0.27865 -0.8111,0.48893 -1.1231,0.82226 -0.3107,0.33334 -0.5274,0.79614 -0.4394,1.24414 0.1,0.508 0.605,0.88635 1.125,0.90234 0.4821,0.0174 0.9478,-0.2447 1.2383,-0.63085 0,0.0922 -0.01,0.18358 -0.016,0.27539 -0.052,0.47334 -0.2195,0.92095 -0.5742,1.23828 0.3214,0.0187 1.1248,0.0187 1.4434,0 -0.3533,-0.31733 -0.5222,-0.76494 -0.5742,-1.23828 -0.01,-0.0918 -0.014,-0.1832 -0.016,-0.27539 0.2914,0.38615 0.7569,0.64821 1.2403,0.63085 0.5173,-0.016 1.0237,-0.39434 1.125,-0.90234 0.088,-0.448 -0.1307,-0.9108 -0.4414,-1.24414 -0.312,-0.33333 -0.7379,-0.55525 -1.1192,-0.80859 -0.3893,-0.25733 -0.9355,-0.89649 -0.9355,-0.89649 z m 12.0429,23.04492 c 0,0 -1.4952,1.56047 -2.3339,2.20313 -0.908,0.69467 -2.0358,1.22189 -2.8145,2.06055 -0.78,0.836 -1.3248,1.99256 -1.1035,3.11523 0.2533,1.276 1.5183,2.2243 2.8183,2.26563 1.2063,0.0408 2.3718,-0.61423 3.1016,-1.58008 0,0.23011 -0.011,0.4605 -0.035,0.68945 -0.1307,1.17999 -0.5562,2.30699 -1.4415,3.09766 0.8013,0.0467 2.8159,0.0467 3.6172,0 -0.8867,-0.79067 -1.3101,-1.91767 -1.4394,-3.09766 -0.026,-0.2296 -0.036,-0.46063 -0.039,-0.69141 0.7296,0.96706 1.8963,1.62289 3.1035,1.58204 1.3,-0.0413 2.5644,-0.98963 2.8164,-2.26563 0.2226,-1.12267 -0.3228,-2.27923 -1.1015,-3.11523 -0.78,-0.83866 -1.8487,-1.39082 -2.8047,-2.02149 -0.9747,-0.64267 -2.3438,-2.24219 -2.3438,-2.24219 z m 16.5723,0 c 0,0 -1.4953,1.56047 -2.334,2.20313 -0.9066,0.69467 -2.0344,1.22189 -2.8144,2.06055 -0.78,0.836 -1.3242,1.99256 -1.1016,3.11523 0.252,1.276 1.515,2.2243 2.8164,2.26563 1.2063,0.0408 2.3719,-0.61423 3.1016,-1.58008 0,0.23011 -0.011,0.4605 -0.035,0.68945 -0.1293,1.17999 -0.5547,2.30699 -1.4414,3.09766 0.8013,0.0467 2.8146,0.0467 3.6172,0 -0.8866,-0.79067 -1.3101,-1.91767 -1.4395,-3.09766 -0.026,-0.22895 -0.034,-0.45934 -0.037,-0.68945 0.7297,0.96585 1.8953,1.6209 3.1016,1.58008 1.3014,-0.0413 2.5651,-0.98963 2.8184,-2.26563 0.2213,-1.12267 -0.3249,-2.27923 -1.1036,-3.11523 -0.78,-0.83866 -1.8499,-1.39082 -2.8046,-2.02149 -0.9747,-0.64267 -2.3438,-2.24219 -2.3438,-2.24219 z m 11.8652,29.81446 c -0.281,0 -0.5626,0.004 -0.7226,0.0137 0.3533,0.31734 0.5222,0.76567 0.5742,1.23633 0.011,0.0947 0.016,0.18856 0.018,0.28125 -0.2902,-0.38735 -0.756,-0.65215 -1.2403,-0.63477 -0.5186,0.016 -1.025,0.39363 -1.125,0.9043 -0.089,0.448 0.1275,0.90814 0.4395,1.24414 0.3107,0.33333 0.7385,0.55526 1.1211,0.80859 0.3894,0.25467 0.9355,0.89258 0.9355,0.89258 0,0 0.5984,-0.62291 0.9317,-0.87891 0.3627,-0.27866 0.8123,-0.48893 1.123,-0.82226 0.312,-0.336 0.5294,-0.79614 0.4414,-1.24414 -0.1013,-0.51067 -0.6063,-0.8883 -1.125,-0.9043 -0.4833,-0.0174 -0.9488,0.24667 -1.2402,0.63281 0,-0.092 0.01,-0.18528 0.016,-0.27929 0.052,-0.47066 0.2215,-0.91899 0.5762,-1.23633 -0.16,-0.009 -0.4417,-0.0137 -0.7227,-0.0137 z m -28.4375,1.38281 c -0.7036,0 -1.4079,0.0118 -1.8086,0.0352 0.8853,0.78933 1.3108,1.91694 1.4415,3.09961 0.026,0.22848 0.032,0.45745 0.035,0.6875 -0.7298,-0.9662 -1.8953,-1.62286 -3.1016,-1.58204 -1.3,0.044 -2.565,0.99354 -2.8183,2.26954 -0.2213,1.12265 0.3235,2.27462 1.1035,3.11328 0.7787,0.836 1.85,1.39215 2.8047,2.02148 0.9747,0.644 2.3437,2.24219 2.3437,2.24219 0,0 1.4953,-1.56046 2.334,-2.20313 0.9066,-0.696 2.0345,-1.22454 2.8145,-2.06054 0.7787,-0.83866 1.3241,-1.99063 1.1015,-3.11328 -0.252,-1.276 -1.5164,-2.22554 -2.8164,-2.26954 -1.2063,-0.0408 -2.3719,0.61584 -3.1015,1.58204 0,-0.23005 0.011,-0.45902 0.035,-0.6875 0.1293,-1.18267 0.5547,-2.31028 1.4414,-3.09961 -0.4006,-0.0233 -1.1049,-0.0352 -1.8086,-0.0352 z m 16.5723,0 c -0.7038,0 -1.4079,0.0118 -1.8086,0.0352 0.8867,0.78933 1.3102,1.91694 1.4395,3.09961 0.026,0.22848 0.034,0.45745 0.037,0.6875 -0.7297,-0.9662 -1.8953,-1.62286 -3.1016,-1.58204 -1.3014,0.044 -2.5644,0.99354 -2.8164,2.26954 -0.2226,1.12265 0.3216,2.27462 1.1016,3.11328 0.78,0.836 1.85,1.39215 2.8047,2.02148 0.9747,0.644 2.3437,2.24219 2.3437,2.24219 0,0 1.4953,-1.56046 2.334,-2.20313 0.908,-0.696 2.0344,-1.22454 2.8144,-2.06054 0.7787,-0.83866 1.3249,-1.99063 1.1036,-3.11328 -0.2533,-1.276 -1.517,-2.22554 -2.8184,-2.26954 -1.2063,-0.0408 -2.3719,0.61584 -3.1016,1.58204 0,-0.23005 0.011,-0.45902 0.037,-0.6875 0.1294,-1.18267 0.5529,-2.31028 1.4395,-3.09961 -0.4013,-0.0233 -1.1048,-0.0352 -1.8086,-0.0352 z m 11.875,4.48437 c -1.6236,0 -2.7402,1.0494 -2.7402,2.59571 0,1.41377 0.907,2.33008 2.2656,2.33008 0.8181,0 1.5125,-0.33646 1.9629,-0.94727 -0.027,1.78772 -0.7533,2.71484 -2.1621,2.71484 -0.5081,0 -1.1051,-0.12156 -1.5801,-0.35351 l -0.375,1.08203 c 0.5964,0.29822 1.2476,0.46484 1.9766,0.46484 2.2863,0 3.5449,-1.52557 3.5449,-4.15429 0,-2.40784 -1.0591,-3.73243 -2.8926,-3.73243 z m -0.123,1.19336 c 0.8264,0 1.3581,0.6093 1.541,1.72657 -0.2983,0.54814 -0.8447,0.85742 -1.4746,0.85742 -0.7953,0 -1.3145,-0.5075 -1.3145,-1.30274 0,-0.77315 0.486,-1.28125 1.2481,-1.28125 z" />
    </g>
  </g>
</svg>
