<?xml version="1.0" encoding="UTF-8" standalone="no"?>
<!-- Created with Inkscape (http://www.inkscape.org/) -->

<svg
   width="54.325401"
   height="82.79866"
   viewBox="0 0 54.325401 82.79866"
   version="1.1"
   id="svg5"
   inkscape:version="1.2.2 (b0a8486541, 2022-12-01)"
   sodipodi:docname="7_P.svg"
   xmlns:inkscape="http://www.inkscape.org/namespaces/inkscape"
   xmlns:sodipodi="http://sodipodi.sourceforge.net/DTD/sodipodi-0.dtd"
   xmlns="http://www.w3.org/2000/svg"
   xmlns:svg="http://www.w3.org/2000/svg">
  <sodipodi:namedview
     id="namedview7"
     pagecolor="#677178"
     bordercolor="#171c20"
     borderopacity="1"
     inkscape:showpageshadow="false"
     inkscape:pageopacity="0"
     inkscape:pagecheckerboard="0"
     inkscape:deskcolor="#25292d"
     inkscape:document-units="px"
     showgrid="false"
     showborder="false"
     borderlayer="true"
     inkscape:zoom="4.2013928"
     inkscape:cx="59.028044"
     inkscape:cy="30.704104"
     inkscape:window-width="1920"
     inkscape:window-height="997"
     inkscape:window-x="0"
     inkscape:window-y="0"
     inkscape:window-maximized="1"
     inkscape:current-layer="layer1" />
  <defs
     id="defs2" />
  <g
     inkscape:label="Capa 1"
     inkscape:groupmode="layer"
     id="layer1"
     transform="translate(-953.03365,-832.42956)">
    <g
       id="g70537"
       transform="translate(-351.89095,718.86313)">
      <path
         d="m 1354.6499,196.36509 h -45.1267 c -2.54,0 -4.5986,-2.05867 -4.5986,-4.59867 v -73.60133 c 0,-2.53866 2.0586,-4.59866 4.5986,-4.59866 h 45.1267 c 2.5413,0 4.6,2.06 4.6,4.59866 v 73.60133 c 0,2.54 -2.0587,4.59867 -4.6,4.59867"
         style="fill:#ffffff;fill-opacity:1;fill-rule:nonzero;stroke:none;stroke-width:0.133333"
         id="path9441" />
      <path
         id="path9445"
         style="fill:#0c0a35;fill-opacity:1;fill-rule:nonzero;stroke:none;stroke-width:0.133333"
         d="m 1309.1445,117.41602 v 1.23632 h 3.7129 l -2.9179,6.42969 h 1.4921 l 3.125,-6.98047 v -0.68554 z m 14.6563,0.41015 c 0,0 -1.4953,1.56047 -2.334,2.20313 -0.908,0.696 -2.0345,1.22321 -2.8145,2.06054 -0.7787,0.836 -1.3242,1.99196 -1.1015,3.11328 0.252,1.276 1.5164,2.22421 2.8164,2.26954 1.2064,0.0383 2.3728,-0.61876 3.1016,-1.58399 0,0.23116 -0.013,0.46181 -0.037,0.69141 -0.1307,1.17867 -0.5528,2.30566 -1.4394,3.09765 0.8013,0.0467 2.8158,0.0467 3.6172,0 -0.8854,-0.79199 -1.3115,-1.91898 -1.4395,-3.09765 -0.027,-0.2296 -0.034,-0.46025 -0.037,-0.69141 0.7298,0.96524 1.8952,1.62235 3.1016,1.58399 1.3,-0.0453 2.5649,-0.99354 2.8183,-2.26954 0.2213,-1.12132 -0.3235,-2.27728 -1.1035,-3.11328 -0.78,-0.83733 -1.8501,-1.39214 -2.8047,-2.02148 -0.9747,-0.644 -2.3437,-2.24219 -2.3437,-2.24219 z m 16.5722,0 c 0,0 -1.4972,1.56047 -2.3359,2.20313 -0.9067,0.696 -2.0318,1.22321 -2.8105,2.06054 -0.78,0.836 -1.3262,1.99196 -1.1036,3.11328 0.252,1.276 1.517,2.22421 2.8184,2.26954 1.2064,0.0383 2.3711,-0.61876 3.0996,-1.58399 0,0.23116 -0.011,0.46181 -0.035,0.69141 -0.1307,1.17867 -0.5528,2.30566 -1.4395,3.09765 0.8013,0.0467 2.8139,0.0467 3.6152,0 -0.8867,-0.79199 -1.3087,-1.91898 -1.4394,-3.09765 -0.026,-0.2296 -0.034,-0.46025 -0.037,-0.69141 0.73,0.96516 1.8965,1.62235 3.1015,1.58399 1.3,-0.0453 2.5664,-0.99354 2.8184,-2.26954 0.2226,-1.12132 -0.3249,-2.27728 -1.1035,-3.11328 -0.7787,-0.83733 -1.8487,-1.39214 -2.8047,-2.02148 -0.9747,-0.644 -2.3438,-2.24219 -2.3438,-2.24219 z m -28.6152,8.15039 c 0,0 -0.599,0.62415 -0.9336,0.88282 -0.3614,0.27865 -0.811,0.48893 -1.123,0.82226 -0.312,0.33334 -0.5288,0.79614 -0.4395,1.24414 0.1,0.508 0.6063,0.88635 1.125,0.90234 0.4819,0.0173 0.9468,-0.24266 1.2383,-0.62695 0,0.0909 -0.01,0.18097 -0.016,0.27149 -0.052,0.47334 -0.2208,0.92095 -0.5742,1.23828 0.32,0.0187 1.1233,0.0187 1.4433,0 -0.3533,-0.31733 -0.5222,-0.76494 -0.5742,-1.23828 -0.011,-0.0918 -0.014,-0.1832 -0.016,-0.27539 0.2914,0.38615 0.7569,0.64821 1.2402,0.63085 0.5186,-0.016 1.0237,-0.39434 1.125,-0.90234 0.088,-0.448 -0.1294,-0.9108 -0.4414,-1.24414 -0.3107,-0.33333 -0.7365,-0.55525 -1.1191,-0.80859 -0.388,-0.25733 -0.9356,-0.89649 -0.9356,-0.89649 z m 20.3301,7.69922 c 0,0 -1.4973,1.55922 -2.3359,2.19922 -0.9067,0.69867 -2.0338,1.22455 -2.8125,2.06055 -0.78,0.83867 -1.3263,1.99453 -1.1036,3.11718 0.252,1.276 1.5171,2.22163 2.8184,2.26563 1.2063,0.0408 2.3719,-0.61585 3.1016,-1.58203 0,0.23027 -0.013,0.46074 -0.037,0.68945 -0.1306,1.18267 -0.5528,2.31028 -1.4395,3.09961 0.8014,0.0493 2.8159,0.0493 3.6172,0 -0.8853,-0.78933 -1.312,-1.91694 -1.4414,-3.09961 -0.026,-0.22871 -0.032,-0.45918 -0.035,-0.68945 0.7296,0.9661 1.8954,1.62286 3.1016,1.58203 1.3,-0.044 2.5644,-0.98963 2.8164,-2.26563 0.2227,-1.12265 -0.3235,-2.27851 -1.1035,-3.11718 -0.7786,-0.836 -1.8481,-1.39092 -2.8028,-2.01758 -0.9746,-0.64667 -2.3437,-2.24219 -2.3437,-2.24219 z m -8.2871,15.3457 c 0,0 -1.4953,1.56047 -2.334,2.20313 -0.908,0.69467 -2.0345,1.22189 -2.8145,2.06055 -0.7787,0.836 -1.3242,1.99256 -1.1015,3.11523 0.252,1.276 1.5164,2.2243 2.8164,2.26563 1.2063,0.0408 2.3728,-0.61423 3.1016,-1.58008 0,0.23011 -0.013,0.4605 -0.037,0.68945 -0.1307,1.17999 -0.5528,2.30699 -1.4394,3.09766 0.8013,0.0467 2.8158,0.0467 3.6172,0 -0.8854,-0.79067 -1.3115,-1.91767 -1.4395,-3.09766 -0.026,-0.22895 -0.034,-0.45934 -0.037,-0.68945 0.7298,0.96585 1.8953,1.6209 3.1016,1.58008 1.3,-0.0413 2.5649,-0.98963 2.8183,-2.26563 0.2213,-1.12267 -0.3235,-2.27923 -1.1035,-3.11523 -0.78,-0.83866 -1.8501,-1.39082 -2.8047,-2.02149 -0.9747,-0.64267 -2.3437,-2.24219 -2.3437,-2.24219 z m 16.5722,0 c 0,0 -1.4972,1.56047 -2.3359,2.20313 -0.9067,0.69467 -2.0318,1.22189 -2.8105,2.06055 -0.78,0.836 -1.3262,1.99256 -1.1036,3.11523 0.252,1.276 1.517,2.2243 2.8184,2.26563 1.2063,0.0408 2.3711,-0.61423 3.0996,-1.58008 0,0.23011 -0.011,0.4605 -0.035,0.68945 -0.1307,1.17999 -0.5528,2.30699 -1.4395,3.09766 0.8013,0.0467 2.8139,0.0467 3.6152,0 -0.8867,-0.79067 -1.3087,-1.91767 -1.4394,-3.09766 -0.026,-0.22895 -0.034,-0.45934 -0.037,-0.68945 0.73,0.96577 1.8966,1.6209 3.1015,1.58008 1.3,-0.0413 2.5664,-0.98963 2.8184,-2.26563 0.2226,-1.12267 -0.3249,-2.27923 -1.1035,-3.11523 -0.7787,-0.83866 -1.8487,-1.39082 -2.8047,-2.02149 -0.9747,-0.64267 -2.3438,-2.24219 -2.3438,-2.24219 z m 11.8653,29.81446 c -0.281,0 -0.5614,0.004 -0.7207,0.0137 0.3533,0.31734 0.5202,0.76567 0.5722,1.23633 0.011,0.094 0.016,0.18726 0.018,0.27929 -0.2915,-0.38614 -0.7581,-0.65016 -1.2402,-0.63281 -0.5186,0.016 -1.0237,0.39363 -1.125,0.9043 -0.089,0.448 0.1294,0.90814 0.4414,1.24414 0.3107,0.33333 0.7378,0.55526 1.1191,0.80859 0.3893,0.25467 0.9356,0.89258 0.9356,0.89258 0,0 0.5983,-0.62291 0.9316,-0.87891 0.3627,-0.27866 0.8111,-0.48893 1.1231,-0.82226 0.3107,-0.336 0.5281,-0.79614 0.4414,-1.24414 -0.1026,-0.51067 -0.6063,-0.8883 -1.125,-0.9043 -0.4819,-0.0173 -0.9485,0.24463 -1.2403,0.62891 0,-0.0907 0.01,-0.18272 0.016,-0.27539 0.052,-0.47066 0.2214,-0.91899 0.5761,-1.23633 -0.1607,-0.009 -0.4416,-0.0137 -0.7226,-0.0137 z m -28.4375,1.38281 c -0.7037,0 -1.408,0.0118 -1.8086,0.0352 0.8866,0.78933 1.3087,1.91694 1.4394,3.09961 0.026,0.22848 0.034,0.45745 0.037,0.6875 -0.7288,-0.9662 -1.8953,-1.62286 -3.1016,-1.58204 -1.3,0.044 -2.5644,0.99354 -2.8164,2.26954 -0.2227,1.12265 0.3228,2.27462 1.1015,3.11328 0.78,0.836 1.8487,1.39215 2.8047,2.02148 0.9747,0.644 2.3438,2.24219 2.3438,2.24219 0,0 1.4967,-1.56046 2.334,-2.20313 0.908,-0.696 2.0344,-1.22454 2.8144,-2.06054 0.78,-0.83866 1.3248,-1.99063 1.1035,-3.11328 -0.2534,-1.276 -1.5183,-2.22554 -2.8183,-2.26954 -1.2063,-0.0408 -2.3718,0.61584 -3.1016,1.58204 0,-0.23005 0.011,-0.45902 0.037,-0.6875 0.128,-1.18267 0.5521,-2.31028 1.4375,-3.09961 -0.4007,-0.0233 -1.103,-0.0352 -1.8066,-0.0352 z m 16.5722,0 c -0.7036,0 -1.4059,0.0118 -1.8066,0.0352 0.8867,0.78933 1.3088,1.91694 1.4395,3.09961 0.026,0.22913 0.034,0.45874 0.037,0.68945 -0.7285,-0.96739 -1.8944,-1.62484 -3.1016,-1.58399 -1.3014,0.044 -2.5664,0.99354 -2.8184,2.26954 -0.2226,1.12265 0.3236,2.27462 1.1036,3.11328 0.7787,0.836 1.848,1.39215 2.8027,2.02148 0.9747,0.644 2.3437,2.24219 2.3437,2.24219 0,0 1.4973,-1.56046 2.336,-2.20313 0.9066,-0.696 2.0338,-1.22454 2.8125,-2.06054 0.7786,-0.83866 1.3261,-1.99063 1.1035,-3.11328 -0.252,-1.276 -1.5184,-2.22554 -2.8184,-2.26954 -1.2049,-0.0408 -2.3715,0.61593 -3.1015,1.58204 0,-0.23005 0.011,-0.45902 0.037,-0.6875 0.1307,-1.18267 0.5527,-2.31028 1.4394,-3.09961 -0.4006,-0.0233 -1.1049,-0.0352 -1.8086,-0.0352 z m 12.3711,4.59375 -3.125,6.98047 v 0.68555 h 5.4121 v -1.23633 h -3.7148 l 2.918,-6.42969 z" />
    </g>
  </g>
</svg>
