<?xml version="1.0" encoding="UTF-8" standalone="no"?>
<!-- Created with Inkscape (http://www.inkscape.org/) -->

<svg
   width="54.325401"
   height="82.79866"
   viewBox="0 0 54.325401 82.79866"
   version="1.1"
   id="svg5"
   inkscape:version="1.2.2 (b0a8486541, 2022-12-01)"
   sodipodi:docname="8_P.svg"
   xmlns:inkscape="http://www.inkscape.org/namespaces/inkscape"
   xmlns:sodipodi="http://sodipodi.sourceforge.net/DTD/sodipodi-0.dtd"
   xmlns="http://www.w3.org/2000/svg"
   xmlns:svg="http://www.w3.org/2000/svg">
  <sodipodi:namedview
     id="namedview7"
     pagecolor="#677178"
     bordercolor="#171c20"
     borderopacity="1"
     inkscape:showpageshadow="false"
     inkscape:pageopacity="0"
     inkscape:pagecheckerboard="0"
     inkscape:deskcolor="#25292d"
     inkscape:document-units="px"
     showgrid="false"
     showborder="false"
     borderlayer="true"
     inkscape:zoom="4.2013928"
     inkscape:cx="59.028044"
     inkscape:cy="30.704104"
     inkscape:window-width="1920"
     inkscape:window-height="997"
     inkscape:window-x="0"
     inkscape:window-y="0"
     inkscape:window-maximized="1"
     inkscape:current-layer="layer1" />
  <defs
     id="defs2" />
  <g
     inkscape:label="Capa 1"
     inkscape:groupmode="layer"
     id="layer1"
     transform="translate(-953.03365,-832.42956)">
    <g
       id="g70653"
       transform="translate(-413.01095,718.86313)">
      <path
         d="m 1415.7699,196.36509 h -45.128 c -2.5387,0 -4.5973,-2.05867 -4.5973,-4.59867 v -73.60133 c 0,-2.53866 2.0586,-4.59866 4.5973,-4.59866 h 45.128 c 2.54,0 4.5987,2.06 4.5987,4.59866 v 73.60133 c 0,2.54 -2.0587,4.59867 -4.5987,4.59867"
         style="fill:#ffffff;fill-opacity:1;fill-rule:nonzero;stroke:none;stroke-width:0.133333"
         id="path9485" />
      <path
         id="path9489"
         style="fill:#0c0a35;fill-opacity:1;fill-rule:nonzero;stroke:none;stroke-width:0.133333"
         d="m 1373.002,117.30469 c -1.6016,0 -2.6602,0.8835 -2.6602,2.17578 0,0.91812 0.5386,1.42629 1.2246,1.7793 -0.9097,0.30852 -1.4687,0.99873 -1.4687,1.85546 0,1.23705 1.1499,2.07618 2.8398,2.07618 1.7451,0 2.9043,-0.8829 2.9043,-2.19727 0,-1.08801 -0.7952,-1.59293 -1.6856,-1.95898 0.8739,-0.37471 1.3868,-1.05648 1.3868,-1.83008 0,-1.13764 -1.05,-1.90039 -2.541,-1.90039 z m 11.9179,0.52148 c 0,0 -1.4953,1.56047 -2.334,2.20313 -0.908,0.696 -2.0339,1.22321 -2.8125,2.06054 -0.78,0.836 -1.3262,1.99196 -1.1035,3.11328 0.252,1.276 1.5164,2.22421 2.8164,2.26954 1.2076,0.0383 2.373,-0.61876 3.1016,-1.58399 0,0.23116 -0.011,0.46181 -0.035,0.69141 -0.1307,1.17867 -0.5541,2.30566 -1.4394,3.09765 0.5008,0.0292 1.4738,0.0405 2.3301,0.0332 0.5137,-0.004 0.9861,-0.0157 1.2871,-0.0332 -0.8867,-0.79199 -1.3121,-1.91898 -1.4414,-3.09765 0,-0.0433 -0.01,-0.0874 -0.014,-0.13086 0,-0.0434 -0.01,-0.0874 -0.01,-0.13086 -0.01,-0.14341 -0.012,-0.28578 -0.014,-0.42969 0.7287,0.96524 1.8951,1.62235 3.1015,1.58399 0.1627,-0.006 0.3248,-0.0259 0.4844,-0.0586 0.08,-0.0164 0.16,-0.0359 0.2383,-0.0586 0.9398,-0.27271 1.7551,-0.99145 2.0371,-1.91602 0.024,-0.077 0.043,-0.15658 0.059,-0.23633 0.2213,-1.12132 -0.3229,-2.27728 -1.1016,-3.11328 -0.098,-0.10466 -0.2008,-0.20624 -0.3066,-0.30273 -0.7406,-0.67546 -1.6648,-1.16808 -2.5,-1.71875 -0.9747,-0.644 -2.3438,-2.24219 -2.3438,-2.24219 z m 16.5723,0 c 0,0 -1.4946,1.56047 -2.332,2.20313 -0.7957,0.609 -1.7584,1.08849 -2.5079,1.75976 -0.107,0.0959 -0.2093,0.19612 -0.3066,0.30078 -0.78,0.836 -1.3262,1.99196 -1.1035,3.11328 0.252,1.276 1.5164,2.22421 2.8164,2.26954 1.206,0.0383 2.3747,-0.6196 3.1035,-1.58594 0,0.23182 -0.013,0.46311 -0.037,0.69336 -0.032,0.29467 -0.082,0.58526 -0.1543,0.86914 -0.2153,0.85162 -0.6212,1.63451 -1.2852,2.22851 0.4,0.0233 1.105,0.0352 1.8086,0.0352 0.176,0 0.3504,-4.9e-4 0.5215,-0.002 0.5135,-0.004 0.9852,-0.0157 1.2852,-0.0332 -0.8867,-0.79199 -1.3102,-1.91898 -1.4395,-3.09765 0,-0.0433 -0.01,-0.0874 -0.014,-0.13086 0,-0.0434 -0.01,-0.0874 -0.01,-0.13086 -0.01,-0.14406 -0.012,-0.28708 -0.014,-0.43164 0.7285,0.96635 1.8951,1.62433 3.1035,1.58594 0.1625,-0.006 0.3249,-0.0259 0.4844,-0.0586 0.08,-0.0164 0.158,-0.0359 0.2363,-0.0586 0.9395,-0.27271 1.756,-0.99145 2.0371,-1.91602 0.024,-0.077 0.043,-0.15658 0.059,-0.23633 0.2213,-1.12132 -0.3249,-2.27728 -1.1035,-3.11328 -0.097,-0.10466 -0.199,-0.20624 -0.3047,-0.30273 -0.7394,-0.67546 -1.6635,-1.16808 -2.5,-1.71875 -0.9747,-0.644 -2.3437,-2.24219 -2.3437,-2.24219 z m -28.5879,0.63867 c 0.7401,0 1.2578,0.39771 1.2578,0.99414 0,0.55297 -0.4621,0.99848 -1.1465,1.14844 -0.714,-0.27797 -1.2832,-0.59446 -1.2832,-1.21484 0,-0.55226 0.454,-0.92774 1.1719,-0.92774 z m -0.25,3.24024 c 0.9239,0.32922 1.7734,0.61524 1.7734,1.36523 0,0.57434 -0.5088,0.96094 -1.3593,0.96094 -0.9278,0 -1.5684,-0.46236 -1.5684,-1.1582 0,-0.58397 0.4382,-1.01367 1.1543,-1.16797 z m 0.2227,4.27148 c 0,0 -0.5957,0.62415 -0.9317,0.88282 -0.3627,0.27865 -0.813,0.48893 -1.125,0.82226 -0.3107,0.33334 -0.5268,0.79614 -0.4375,1.24414 0.099,0.508 0.6044,0.88635 1.1231,0.90234 0.4806,0.0173 0.9476,-0.24266 1.2382,-0.62695 0,0.0909 0,0.18097 -0.014,0.27149 -0.052,0.47334 -0.2215,0.92095 -0.5762,1.23828 0.32,0.0187 1.1253,0.0187 1.4453,0 -0.3546,-0.31733 -0.5242,-0.76494 -0.5762,-1.23828 -0.01,-0.0918 -0.014,-0.1832 -0.016,-0.27539 0.2915,0.38615 0.7594,0.64821 1.2402,0.63085 0.52,-0.016 1.0236,-0.39434 1.125,-0.90234 0.089,-0.448 -0.1308,-0.9108 -0.4414,-1.24414 -0.3107,-0.33333 -0.7391,-0.55525 -1.1191,-0.80859 -0.3894,-0.25733 -0.9355,-0.89649 -0.9355,-0.89649 z m 20.3281,7.69922 c 0,0 -1.4953,1.55922 -2.334,2.19922 -0.9066,0.69867 -2.0325,1.22455 -2.8125,2.06055 -0.78,0.83867 -1.3248,1.99453 -1.1035,3.11718 0.2534,1.276 1.5183,2.22163 2.8183,2.26563 0.1627,0.005 0.3242,-6.9e-4 0.4844,-0.0195 0.1602,-0.0189 0.3188,-0.0505 0.4746,-0.0918 0.8457,-0.22421 1.6102,-0.76578 2.1426,-1.47265 0,0.23092 -0.011,0.46204 -0.035,0.6914 -0.1306,1.18267 -0.554,2.31028 -1.4394,3.09961 0.5009,0.0308 1.4742,0.0429 2.3301,0.0352 0.5135,-0.005 0.9842,-0.0167 1.2851,-0.0352 -0.8866,-0.78933 -1.31,-1.91694 -1.4394,-3.09961 0,-0.0432 -0.01,-0.0876 -0.014,-0.13086 0,-0.0432 -0.01,-0.0856 -0.01,-0.1289 -0.01,-0.1427 -0.012,-0.28634 -0.014,-0.42969 0.7287,0.96618 1.8952,1.62286 3.1015,1.58203 0.081,-0.003 0.1615,-0.01 0.2422,-0.0195 0.1615,-0.0193 0.322,-0.0505 0.4785,-0.0957 0.9392,-0.27145 1.7553,-0.98973 2.0371,-1.91406 0.024,-0.077 0.043,-0.15658 0.059,-0.23633 0.2227,-1.12265 -0.3235,-2.27851 -1.1035,-3.11718 -0.049,-0.0523 -0.098,-0.10416 -0.1484,-0.1543 -0.7626,-0.75207 -1.7593,-1.27579 -2.6543,-1.86328 -0.976,-0.64667 -2.3457,-2.24219 -2.3457,-2.24219 z m -8.2852,15.3457 c 0,0 -1.4953,1.56047 -2.334,2.20313 -0.908,0.69467 -2.0339,1.22189 -2.8125,2.06055 -0.78,0.836 -1.3262,1.99256 -1.1035,3.11523 0.252,1.276 1.5164,2.2243 2.8164,2.26563 1.2075,0.0408 2.373,-0.61423 3.1016,-1.58008 0,0.23011 -0.011,0.4605 -0.035,0.68945 -0.1307,1.17999 -0.5541,2.30699 -1.4394,3.09766 0.5008,0.0292 1.4738,0.0405 2.3301,0.0332 0.5137,-0.004 0.9861,-0.0157 1.2871,-0.0332 -0.8867,-0.79067 -1.3121,-1.91767 -1.4414,-3.09766 0,-0.0433 -0.01,-0.0875 -0.014,-0.13086 0,-0.0434 -0.01,-0.0874 -0.01,-0.13086 -0.01,-0.14256 -0.012,-0.28472 -0.014,-0.42773 0.5814,0.77068 1.4419,1.34254 2.3789,1.52148 0.079,0.0151 0.1582,0.0277 0.2382,0.0371 0.1601,0.0188 0.3219,0.027 0.4844,0.0215 0.1627,-0.005 0.3248,-0.0262 0.4844,-0.0586 0.08,-0.0162 0.16,-0.0341 0.2383,-0.0566 0.9398,-0.27073 1.7551,-0.99146 2.0371,-1.91601 0.024,-0.0771 0.043,-0.15463 0.059,-0.23438 0.2213,-1.12267 -0.3229,-2.27923 -1.1016,-3.11523 -0.098,-0.10484 -0.2008,-0.20615 -0.3066,-0.30274 -0.7406,-0.67611 -1.6648,-1.16691 -2.5,-1.71875 -0.9747,-0.64267 -2.3438,-2.24219 -2.3438,-2.24219 z m 16.5723,0 c 0,0 -1.4946,1.56047 -2.332,2.20313 -0.7957,0.60784 -1.7584,1.08762 -2.5079,1.75977 -0.107,0.096 -0.2093,0.19594 -0.3066,0.30078 -0.78,0.836 -1.3262,1.99256 -1.1035,3.11523 0.252,1.276 1.5164,2.2243 2.8164,2.26563 0.2435,0.008 0.4855,-0.0133 0.7226,-0.0586 0.079,-0.0151 0.1585,-0.0321 0.2364,-0.0527 0.8454,-0.22354 1.6119,-0.76407 2.1445,-1.47071 0,0.23078 -0.013,0.46181 -0.037,0.69141 -0.024,0.22125 -0.059,0.44054 -0.1055,0.65625 -0.1996,0.93475 -0.6146,1.79899 -1.334,2.44141 0.4,0.0233 1.105,0.0351 1.8086,0.0351 0.176,0 0.3504,-4.9e-4 0.5215,-0.002 0.5135,-0.004 0.9852,-0.0157 1.2852,-0.0332 -0.8867,-0.79067 -1.3102,-1.91767 -1.4395,-3.09766 0,-0.0433 -0.01,-0.0875 -0.014,-0.13086 0,-0.0434 -0.01,-0.0874 -0.01,-0.13086 -0.01,-0.14321 -0.012,-0.28603 -0.014,-0.42969 0.5814,0.77173 1.4408,1.34435 2.3789,1.52344 0.079,0.0151 0.1602,0.0277 0.2403,0.0371 0.1602,0.0188 0.3217,0.027 0.4843,0.0215 0.1625,-0.005 0.3249,-0.0262 0.4844,-0.0586 0.08,-0.0162 0.158,-0.0341 0.2363,-0.0566 0.9395,-0.27073 1.756,-0.99146 2.0371,-1.91601 0.024,-0.0771 0.043,-0.15463 0.059,-0.23438 0.2213,-1.12267 -0.3249,-2.27923 -1.1035,-3.11523 -0.097,-0.10484 -0.199,-0.20615 -0.3047,-0.30274 -0.7394,-0.67611 -1.6635,-1.16691 -2.5,-1.71875 -0.9747,-0.64267 -2.3437,-2.24219 -2.3437,-2.24219 z m -8.2852,16.22071 c -0.7035,0 -1.4079,0.0118 -1.8086,0.0352 0.6087,0.54634 0.9995,1.24788 1.2266,2.01758 0.021,0.07 0.041,0.13991 0.059,0.21094 0.072,0.2841 0.1236,0.57738 0.1562,0.87305 0.026,0.23002 0.032,0.45904 0.035,0.68945 -0.7285,-0.96625 -1.8932,-1.62484 -3.1016,-1.58398 -1.3,0.044 -2.5649,0.99023 -2.8183,2.26757 -0.2213,1.12133 0.3235,2.27729 1.1035,3.11328 0.78,0.83867 1.8501,1.39277 2.8047,2.02344 0.9747,0.64267 2.3418,2.24024 2.3418,2.24024 0,0 1.4985,-1.55646 2.3359,-2.20313 0.908,-0.69467 2.0338,-1.22188 2.8125,-2.06055 0.78,-0.83599 1.3262,-1.99195 1.1035,-3.11328 -0.2533,-1.27734 -1.5164,-2.22358 -2.8164,-2.26757 -0.081,-0.003 -0.1614,-0.002 -0.2422,0.002 -0.081,0.003 -0.1621,0.0101 -0.2422,0.0195 -0.9606,0.11306 -1.8599,0.64787 -2.4882,1.39844 -0.044,0.0529 -0.087,0.10707 -0.1289,0.16211 7e-4,-0.0561 3e-4,-0.11188 0,-0.16797 0,-0.1735 0.014,-0.3462 0.033,-0.51953 0.1213,-1.10875 0.5017,-2.16662 1.2793,-2.94922 0.052,-0.0522 0.1067,-0.10268 0.1621,-0.15235 -0.4013,-0.0234 -1.1051,-0.0352 -1.8086,-0.0352 z m 20.1504,13.59375 c -0.281,0 -0.5613,0.004 -0.7226,0.0137 0.3547,0.31734 0.5251,0.76567 0.5761,1.23633 0.011,0.094 0.014,0.18726 0.016,0.27929 -0.2914,-0.38614 -0.7569,-0.65016 -1.2403,-0.63281 -0.52,0.016 -1.0224,0.39363 -1.125,0.9043 -0.088,0.448 0.1288,0.90814 0.4395,1.24414 0.3133,0.33333 0.7398,0.55526 1.1211,0.80859 0.388,0.25467 0.9355,0.89258 0.9355,0.89258 0,0 0.597,-0.62291 0.9317,-0.87891 0.3613,-0.27866 0.811,-0.48893 1.123,-0.82226 0.312,-0.336 0.5307,-0.79614 0.4414,-1.24414 -0.1,-0.51067 -0.6064,-0.8883 -1.125,-0.9043 -0.4819,-0.0173 -0.9467,0.24463 -1.2383,0.62891 0,-0.0907 0,-0.18272 0.016,-0.27539 0.051,-0.47066 0.2209,-0.91899 0.5742,-1.23633 -0.16,-0.009 -0.4417,-0.0137 -0.7227,-0.0137 z m -28.4375,1.38281 c -0.7038,0 -1.4079,0.0118 -1.8086,0.0352 0.6087,0.54266 0.9994,1.24509 1.2266,2.01562 0.021,0.0701 0.041,0.13984 0.059,0.21094 0.072,0.28439 0.1236,0.57738 0.1562,0.87305 0.026,0.22848 0.032,0.45745 0.035,0.6875 -0.042,-0.0551 -0.085,-0.10911 -0.1289,-0.16211 -0.7329,-0.87655 -1.834,-1.45843 -2.9727,-1.41993 -1.3,0.044 -2.5644,0.99354 -2.8164,2.26954 -0.2227,1.12265 0.3235,2.27462 1.1035,3.11328 0.7786,0.836 1.8495,1.39215 2.8028,2.02148 0.9774,0.644 2.3437,2.24219 2.3437,2.24219 0,0 1.4967,-1.56046 2.334,-2.20313 0.9093,-0.696 2.0364,-1.22454 2.8164,-2.06054 0.7787,-0.83866 1.3229,-1.99063 1.1016,-3.11328 -0.2534,-1.276 -1.5171,-2.22554 -2.8184,-2.26954 -0.081,-0.003 -0.1614,-0.001 -0.2422,0.002 -0.081,0.003 -0.1621,0.0101 -0.2422,0.0195 -0.9606,0.11308 -1.8599,0.64711 -2.4882,1.39844 -0.044,0.053 -0.087,0.10701 -0.1289,0.16211 0,-0.23005 0.011,-0.45902 0.037,-0.6875 0.1252,-1.14571 0.5281,-2.2405 1.3593,-3.0254 0.027,-0.0253 0.054,-0.0496 0.082,-0.0742 -0.4014,-0.0233 -1.1068,-0.0352 -1.8106,-0.0352 z m 16.5742,0 c -0.1759,0 -0.3522,4.9e-4 -0.5234,0.002 -0.5135,0.004 -0.9852,0.0157 -1.2852,0.0332 0.664,0.59199 1.0679,1.37337 1.2833,2.22656 0.072,0.28439 0.1239,0.57738 0.1562,0.87305 0.026,0.22913 0.034,0.45875 0.037,0.68945 -0.7288,-0.96731 -1.8976,-1.62484 -3.1035,-1.58399 -0.081,0.003 -0.1615,0.01 -0.2422,0.0195 -1.2111,0.14507 -2.338,1.05375 -2.5742,2.25 -0.2227,1.12265 0.3235,2.27462 1.1035,3.11328 0.097,0.1045 0.1991,0.20437 0.3047,0.30078 0.7394,0.67482 1.6627,1.17004 2.498,1.7207 0.732,0.483 1.6848,1.50261 2.1153,1.98242 0.1435,0.15994 0.2285,0.25977 0.2285,0.25977 0,0 1.4972,-1.56046 2.3359,-2.20313 0.9066,-0.696 2.0338,-1.22454 2.8125,-2.06054 0.7786,-0.83866 1.3248,-1.99063 1.1035,-3.11328 -0.252,-1.276 -1.5164,-2.22554 -2.8164,-2.26954 -0.081,-0.003 -0.1633,-0.001 -0.2441,0.002 -0.081,0.003 -0.1601,0.0101 -0.2402,0.0195 -0.9612,0.11308 -1.8621,0.64711 -2.4903,1.39844 -0.045,0.0537 -0.087,0.10825 -0.1289,0.16406 0,-0.23071 0.013,-0.46032 0.037,-0.68945 0.1265,-1.14571 0.5264,-2.2405 1.3575,-3.0254 0.027,-0.0253 0.054,-0.0496 0.082,-0.0742 -0.4,-0.0233 -1.103,-0.0352 -1.8067,-0.0352 z m 11.9825,4.48437 c -1.7451,0 -2.9043,0.8829 -2.9043,2.19727 0,1.08866 0.7945,1.59288 1.6855,1.95899 -0.8742,0.37466 -1.3887,1.05636 -1.3887,1.83007 0,1.13764 1.05,1.90039 2.5411,1.90039 1.6015,0 2.6621,-0.8835 2.6621,-2.17578 0,-0.91786 -0.5389,-1.42631 -1.2246,-1.77929 0.9091,-0.30868 1.4668,-0.99902 1.4668,-1.85547 0,-1.23705 -1.148,-2.07618 -2.8379,-2.07618 z m -0.1328,1.16016 c 0.9277,0 1.5683,0.46237 1.5683,1.1582 0,0.58351 -0.4373,1.01336 -1.1523,1.16797 -0.9239,-0.32922 -1.7735,-0.61524 -1.7735,-1.36523 0,-0.57434 0.507,-0.96094 1.3575,-0.96094 z m 0.055,3.42383 c 0.7141,0.27797 1.2832,0.59446 1.2832,1.21484 0,0.55226 -0.4539,0.92774 -1.1718,0.92774 -0.74,0 -1.2598,-0.3977 -1.2598,-0.99414 0,-0.55297 0.4641,-0.99848 1.1484,-1.14844 z" />
    </g>
  </g>
</svg>
