<?xml version="1.0" encoding="UTF-8" standalone="no"?>
<!-- Created with Inkscape (http://www.inkscape.org/) -->

<svg
   width="54.325401"
   height="82.79866"
   viewBox="0 0 54.325401 82.79866"
   version="1.1"
   id="svg5"
   inkscape:version="1.2.2 (b0a8486541, 2022-12-01)"
   sodipodi:docname="A_P.svg"
   xmlns:inkscape="http://www.inkscape.org/namespaces/inkscape"
   xmlns:sodipodi="http://sodipodi.sourceforge.net/DTD/sodipodi-0.dtd"
   xmlns="http://www.w3.org/2000/svg"
   xmlns:svg="http://www.w3.org/2000/svg">
  <sodipodi:namedview
     id="namedview7"
     pagecolor="#677178"
     bordercolor="#171c20"
     borderopacity="1"
     inkscape:showpageshadow="false"
     inkscape:pageopacity="0"
     inkscape:pagecheckerboard="0"
     inkscape:deskcolor="#25292d"
     inkscape:document-units="px"
     showgrid="false"
     showborder="false"
     borderlayer="true"
     inkscape:zoom="4.2013928"
     inkscape:cx="59.028044"
     inkscape:cy="30.704104"
     inkscape:window-width="1920"
     inkscape:window-height="997"
     inkscape:window-x="0"
     inkscape:window-y="0"
     inkscape:window-maximized="1"
     inkscape:current-layer="layer1" />
  <defs
     id="defs2" />
  <g
     inkscape:label="Capa 1"
     inkscape:groupmode="layer"
     id="layer1"
     transform="translate(-953.03365,-832.42956)">
    <g
       id="g26236"
       transform="translate(14.825403,718.86313)">
      <path
         d="m 987.93475,196.36509 h -45.1276 c -2.5396,0 -4.5989,-2.05867 -4.5989,-4.59867 v -73.60133 c 0,-2.53866 2.0593,-4.59866 4.5989,-4.59866 h 45.1276 c 2.5396,0 4.5989,2.06 4.5989,4.59866 v 73.60133 c 0,2.54 -2.0593,4.59867 -4.5989,4.59867"
         style="fill:#ffffff;fill-opacity:1;fill-rule:nonzero;stroke:none;stroke-width:0.133333"
         id="path6823" />
      <path
         id="path6827"
         style="fill:#0c0a35;fill-opacity:1;fill-rule:nonzero;stroke:none;stroke-width:0.133333"
         d="m 985.52148,178.83594 c -0.28085,0 -0.56085,0.004 -0.7207,0.0137 0.3536,0.31734 0.52127,0.76567 0.57227,1.23633 0.0113,0.094 0.0163,0.18726 0.0176,0.27929 -0.29089,-0.38614 -0.75719,-0.65016 -1.24023,-0.63281 -0.5188,0.016 -1.0234,0.39363 -1.125,0.9043 -0.088,0.448 0.13001,0.90814 0.44141,1.24414 0.311,0.33333 0.73734,0.55526 1.11914,0.80859 0.389,0.25467 0.93554,0.89258 0.93554,0.89258 0,0 0.59675,-0.62291 0.93164,-0.87891 0.3625,-0.27866 0.81301,-0.48893 1.125,-0.82226 0.3109,-0.336 0.52906,-0.79614 0.43946,-1.24414 -0.1,-0.51067 -0.6058,-0.8883 -1.125,-0.9043 -0.48134,-0.0173 -0.94691,0.24463 -1.23828,0.62891 0.001,-0.0907 0.004,-0.18272 0.0137,-0.27539 0.0527,-0.47066 0.22052,-0.91899 0.57422,-1.23633 -0.15995,-0.009 -0.43986,-0.0137 -0.72071,-0.0137 z" />
      <path
         id="path6833"
         style="fill:#0c0a35;fill-opacity:1;fill-rule:nonzero;stroke:none;stroke-width:0.133333"
         d="m 945.04102,125.97656 c 0,0 -0.59675,0.62415 -0.93164,0.88282 -0.363,0.27865 -0.81361,0.48893 -1.125,0.82226 -0.311,0.33334 -0.52856,0.79614 -0.43946,1.24414 0.1005,0.508 0.6063,0.88635 1.125,0.90234 0.48222,0.0173 0.94721,-0.24395 1.23828,-0.6289 -10e-4,0.0915 -0.004,0.18228 -0.0137,0.27344 -0.0521,0.47334 -0.22197,0.92095 -0.57617,1.23828 0.3203,0.0187 1.12501,0.0187 1.44531,0 -0.3542,-0.31733 -0.52417,-0.76494 -0.57617,-1.23828 -0.01,-0.0905 -0.0125,-0.18059 -0.0137,-0.27149 0.29119,0.38428 0.75759,0.64426 1.23828,0.62695 0.5183,-0.016 1.024,-0.39434 1.125,-0.90234 0.089,-0.448 -0.12855,-0.9108 -0.43945,-1.24414 -0.3115,-0.33333 -0.7405,-0.55525 -1.1211,-0.80859 -0.3891,-0.25733 -0.93554,-0.89649 -0.93554,-0.89649 z" />
      <path
         id="path6837"
         style="fill:#0c0a35;fill-opacity:1;fill-rule:nonzero;stroke:none;stroke-width:0.133333"
         d="m 965.37109,149.02148 c 0,0 -1.49548,1.56047 -2.33398,2.20313 -0.9079,0.69467 -2.03475,1.22189 -2.81445,2.06055 -0.7796,0.836 -1.32532,1.99256 -1.10352,3.11523 0.2527,1.276 1.51896,2.2243 2.81836,2.26563 1.2077,0.0409 2.37268,-0.61506 3.10156,-1.58204 -0.004,0.23077 -0.0106,0.46181 -0.0351,0.69141 -0.1297,1.17999 -0.55541,2.30699 -1.44141,3.09766 0.8016,0.0467 2.81519,0.0467 3.61719,0 -0.8869,-0.79067 -1.31026,-1.91767 -1.43946,-3.09766 -0.0258,-0.22895 -0.0339,-0.45934 -0.0371,-0.68945 0.72956,0.96577 1.89534,1.6209 3.10157,1.58008 1.3005,-0.0413 2.56566,-0.98963 2.81836,-2.26563 0.2219,-1.12267 -0.32482,-2.27923 -1.10352,-3.11523 -0.7792,-0.83866 -1.84999,-1.39082 -2.80469,-2.02149 -0.9745,-0.64267 -2.34375,-2.24219 -2.34375,-2.24219 z" />
      <path
         id="path15304"
         style="font-weight:bold;font-size:11.0451px;font-family:Cantarell;-inkscape-font-specification:'Cantarell Bold';fill:#0c0a35;stroke-width:2.99999;stroke-linecap:round;stroke-linejoin:round;paint-order:stroke fill markers"
         d="m 981.96289,184.8125 2.66211,7.66602 h 1.82227 l 2.80664,-7.66602 h -1.51368 l -0.625,1.91211 h -2.95312 l -0.61914,-1.91211 z m 2.60938,3.18164 h 2.12695 l -1.06836,3.26953 z" />
      <path
         id="path15292"
         style="font-weight:bold;font-size:11.0451px;font-family:Cantarell;-inkscape-font-specification:'Cantarell Bold';fill:#0c0a35;stroke-width:2.99999;stroke-linecap:round;stroke-linejoin:round;paint-order:stroke fill markers"
         d="m 944.29492,117.41602 -2.80664,7.66601 h 1.51367 l 0.625,-1.91211 h 2.95313 l 0.61914,1.91211 h 1.58008 l -2.66211,-7.66601 z m 0.81641,1.21484 1.05859,3.26953 h -2.12695 z" />
    </g>
  </g>
</svg>
